<?xml version="1.0" encoding="UTF-8"?>
<!DOCTYPE svg PUBLIC "-//W3C//DTD SVG 1.1//EN" "http://www.w3.org/Graphics/SVG/1.1/DTD/svg11.dtd">
<!-- Creator: CorelDRAW 2021 (64-Bit) -->
<svg xmlns="http://www.w3.org/2000/svg" xml:space="preserve" width="11.4214mm" height="11.3788mm" version="1.1" style="shape-rendering:geometricPrecision; text-rendering:geometricPrecision; image-rendering:optimizeQuality; fill-rule:evenodd; clip-rule:evenodd"
viewBox="0 0 144.63 144.09"
 xmlns:xlink="http://www.w3.org/1999/xlink"
 xmlns:xodm="http://www.corel.com/coreldraw/odm/2003">
 <defs>
  <style type="text/css">
   <![CDATA[
    .fil2 {fill:#FEFEFE;fill-rule:nonzero}
    .fil1 {fill:url(#id0)}
    .fil0 {fill:url(#id1)}
   ]]>
  </style>
  <linearGradient id="id0" gradientUnits="userSpaceOnUse" x1="62.07" y1="0" x2="62.1" y2="144.09">
   <stop offset="0" style="stop-opacity:1; stop-color:#5B5B5B"/>
   <stop offset="1" style="stop-opacity:1; stop-color:#2B2A29"/>
  </linearGradient>
  <linearGradient id="id1" gradientUnits="userSpaceOnUse" xlink:href="#id0" x1="63.16" y1="136" x2="63.19" y2="8.1">
  </linearGradient>
 </defs>
 <g id="Слой_x0020_1">
  <metadata id="CorelCorpID_0Corel-Layer"/>
  <path class="fil0" d="M54.69 136l35.25 0c25.66,0 46.66,-20.97 46.59,-46.59l-0.09 -34.7c-0.07,-25.63 -20.98,-46.59 -46.6,-46.59l-35.25 0c-25.62,0 -46.66,20.94 -46.59,46.59l0.1 34.7c0.07,25.65 20.93,46.59 46.59,46.59z"/>
  <path class="fil1" d="M54.69 135.99l35.25 0c25.66,0 46.59,-20.94 46.59,-46.6l0 -34.69c0,-25.66 -20.94,-46.6 -46.59,-46.6l-35.25 -0c-25.65,0 -46.59,20.93 -46.59,46.6l0 34.7c0,25.66 20.93,46.6 46.59,46.6zm35.25 8.1l-35.25 0c-15.03,0 -28.71,-6.15 -38.63,-16.06 -9.92,-9.89 -16.06,-23.56 -16.06,-38.63l0 -34.7c0,-15.07 6.14,-28.75 16.05,-38.65 9.9,-9.9 23.59,-16.05 38.65,-16.05l35.25 0c15.02,0 28.68,6.15 38.6,16.05l0.04 0.03c9.91,9.92 16.05,23.59 16.05,38.62l0 34.69c0,15.06 -6.14,28.75 -16.05,38.65 -9.9,9.9 -23.58,16.04 -38.64,16.04z"/>
  <path class="fil2" d="M62.59 110.62l15.53 0 0 -38.9 10.84 0 1.16 -13.02 -11.99 0c0,0 0,-4.86 0,-7.42 0,-3.07 0.62,-4.28 3.59,-4.28 2.39,0 8.41,0 8.41,0l0 -13.52c0,0 -8.86,0 -10.75,0 -11.56,0 -16.77,5.09 -16.77,14.83 0,8.49 0,10.38 0,10.38l-8.08 0 0 13.19 8.08 0 0 38.74z"/>
 </g>
</svg>
