<?xml version="1.0" encoding="UTF-8"?>
<!DOCTYPE svg PUBLIC "-//W3C//DTD SVG 1.1//EN" "http://www.w3.org/Graphics/SVG/1.1/DTD/svg11.dtd">
<!-- Creator: CorelDRAW 2021 (64-Bit) -->
<svg xmlns="http://www.w3.org/2000/svg" xml:space="preserve" width="11.2805mm" height="11.2386mm" version="1.1" style="shape-rendering:geometricPrecision; text-rendering:geometricPrecision; image-rendering:optimizeQuality; fill-rule:evenodd; clip-rule:evenodd"
viewBox="0 0 34.57 34.45"
 xmlns:xlink="http://www.w3.org/1999/xlink"
 xmlns:xodm="http://www.corel.com/coreldraw/odm/2003">
 <defs>
  <style type="text/css">
   <![CDATA[
    .fil2 {fill:#2B2A29;fill-rule:nonzero}
    .fil0 {fill:url(#id0)}
    .fil1 {fill:url(#id1)}
   ]]>
  </style>
  <linearGradient id="id0" gradientUnits="userSpaceOnUse" x1="15.1" y1="32.51" x2="15.1" y2="1.94">
   <stop offset="0" style="stop-opacity:1; stop-color:#EBECEC"/>
   <stop offset="1" style="stop-opacity:1; stop-color:#898989"/>
  </linearGradient>
  <linearGradient id="id1" gradientUnits="userSpaceOnUse" xlink:href="#id0" x1="14.84" y1="0" x2="14.84" y2="34.45">
  </linearGradient>
 </defs>
 <g id="Слой_x0020_1">
  <metadata id="CorelCorpID_0Corel-Layer"/>
  <path class="fil0" d="M13.07 32.51l8.43 0c6.13,0 11.15,-5.01 11.14,-11.14l-0.02 -8.3c-0.02,-6.13 -5.02,-11.14 -11.14,-11.14l-8.43 0c-6.12,0 -11.16,5.01 -11.14,11.14l0.02 8.3c0.02,6.13 5,11.14 11.14,11.14z"/>
  <path class="fil1" d="M13.07 32.51l8.43 0c6.14,0 11.14,-5.01 11.14,-11.14l0 -8.29c0,-6.13 -5.01,-11.14 -11.14,-11.14l-8.43 -0c-6.13,0 -11.14,5 -11.14,11.14l0 8.3c0,6.13 5,11.14 11.14,11.14zm8.43 1.94l-8.43 0c-3.59,0 -6.86,-1.47 -9.23,-3.84 -2.37,-2.36 -3.84,-5.63 -3.84,-9.24l0 -8.3c0,-3.6 1.47,-6.87 3.84,-9.24 2.37,-2.37 5.64,-3.84 9.24,-3.84l8.43 0c3.59,0 6.86,1.47 9.23,3.84l0.01 0.01c2.37,2.37 3.84,5.64 3.84,9.23l0 8.29c0,3.6 -1.47,6.87 -3.84,9.24 -2.37,2.37 -5.64,3.84 -9.24,3.84z"/>
  <path class="fil2" d="M14.96 26.44l3.71 0 0 -9.3 2.59 0 0.28 -3.11 -2.87 0c0,0 0,-1.16 0,-1.77 0,-0.73 0.15,-1.02 0.86,-1.02 0.57,0 2.01,0 2.01,0l0 -3.23c0,0 -2.12,0 -2.57,0 -2.76,0 -4.01,1.22 -4.01,3.55 0,2.03 0,2.48 0,2.48l-1.93 0 0 3.15 1.93 0 0 9.26z"/>
 </g>
</svg>
