<?xml version="1.0" encoding="UTF-8"?>
<!DOCTYPE svg PUBLIC "-//W3C//DTD SVG 1.1//EN" "http://www.w3.org/Graphics/SVG/1.1/DTD/svg11.dtd">
<!-- Creator: CorelDRAW 2021 (64-Bit) -->
<svg xmlns="http://www.w3.org/2000/svg" xml:space="preserve" width="11.2805mm" height="11.2386mm" version="1.1" style="shape-rendering:geometricPrecision; text-rendering:geometricPrecision; image-rendering:optimizeQuality; fill-rule:evenodd; clip-rule:evenodd"
viewBox="0 0 32.3 32.18"
 xmlns:xlink="http://www.w3.org/1999/xlink"
 xmlns:xodm="http://www.corel.com/coreldraw/odm/2003">
 <defs>
  <style type="text/css">
   <![CDATA[
    .fil2 {fill:#2B2A29;fill-rule:nonzero}
    .fil0 {fill:url(#id0)}
    .fil1 {fill:url(#id1)}
   ]]>
  </style>
  <linearGradient id="id0" gradientUnits="userSpaceOnUse" x1="14.11" y1="30.37" x2="14.11" y2="1.81">
   <stop offset="0" style="stop-opacity:1; stop-color:#EBECEC"/>
   <stop offset="1" style="stop-opacity:1; stop-color:#898989"/>
  </linearGradient>
  <linearGradient id="id1" gradientUnits="userSpaceOnUse" xlink:href="#id0" x1="13.86" y1="0" x2="13.87" y2="32.18">
  </linearGradient>
 </defs>
 <g id="Слой_x0020_1">
  <metadata id="CorelCorpID_0Corel-Layer"/>
  <path class="fil0" d="M12.21 30.37l7.87 0c5.73,0 10.42,-4.68 10.41,-10.41l-0.02 -7.75c-0.01,-5.72 -4.69,-10.41 -10.41,-10.41l-7.87 0c-5.72,0 -10.42,4.68 -10.41,10.41l0.02 7.75c0.02,5.73 4.67,10.41 10.41,10.41z"/>
  <path class="fil1" d="M12.21 30.37l7.87 0c5.73,0 10.41,-4.68 10.41,-10.41l0 -7.75c0,-5.73 -4.68,-10.41 -10.41,-10.41l-7.87 -0c-5.73,0 -10.41,4.67 -10.41,10.41l0 7.75c0,5.73 4.67,10.41 10.41,10.41zm7.87 1.81l-7.87 0c-3.36,0 -6.41,-1.37 -8.63,-3.59 -2.22,-2.21 -3.59,-5.26 -3.59,-8.63l0 -7.75c0,-3.37 1.37,-6.42 3.58,-8.63 2.21,-2.21 5.27,-3.58 8.63,-3.58l7.87 0c3.36,0 6.41,1.37 8.62,3.58l0.01 0.01c2.21,2.22 3.58,5.27 3.58,8.62l0 7.75c0,3.36 -1.37,6.42 -3.58,8.63 -2.21,2.21 -5.27,3.58 -8.63,3.58z"/>
  <path class="fil2" d="M16.15 6.82c-2.52,0 -2.83,0.01 -3.82,0.06 -0.99,0.04 -1.66,0.2 -2.25,0.43 -0.61,0.24 -1.13,0.55 -1.64,1.07 -0.52,0.52 -0.83,1.03 -1.07,1.64 -0.23,0.59 -0.39,1.26 -0.43,2.25 -0.05,0.99 -0.06,1.3 -0.06,3.82 0,2.52 0.01,2.83 0.06,3.82 0.04,0.99 0.2,1.66 0.43,2.25 0.24,0.61 0.55,1.13 1.07,1.64 0.52,0.52 1.03,0.83 1.64,1.07 0.59,0.23 1.26,0.39 2.25,0.43 0.99,0.04 1.3,0.06 3.82,0.06 2.52,0 2.83,-0.01 3.82,-0.06 0.99,-0.05 1.66,-0.2 2.25,-0.43 0.61,-0.24 1.13,-0.55 1.64,-1.07 0.52,-0.52 0.83,-1.03 1.07,-1.64 0.23,-0.59 0.39,-1.26 0.43,-2.25 0.04,-0.99 0.06,-1.3 0.06,-3.82 0,-2.52 -0.01,-2.83 -0.06,-3.82 -0.04,-0.99 -0.2,-1.66 -0.43,-2.25 -0.24,-0.61 -0.55,-1.13 -1.07,-1.64 -0.52,-0.52 -1.03,-0.83 -1.64,-1.07 -0.59,-0.23 -1.26,-0.39 -2.25,-0.43 -0.99,-0.05 -1.3,-0.06 -3.82,-0.06zm6.06 4.32c0,0.61 -0.5,1.11 -1.11,1.11 -0.61,0 -1.11,-0.5 -1.11,-1.11 0,-0.61 0.5,-1.11 1.11,-1.11 0.61,0 1.11,0.5 1.11,1.11zm-6.06 8.04c-1.71,0 -3.09,-1.38 -3.09,-3.09 0,-1.71 1.38,-3.09 3.09,-3.09 1.71,0 3.09,1.38 3.09,3.09 0,1.71 -1.38,3.09 -3.09,3.09zm0 -7.85c-2.63,0 -4.76,2.13 -4.76,4.76 0,2.63 2.13,4.76 4.76,4.76 2.63,0 4.76,-2.13 4.76,-4.76 0,-2.63 -2.13,-4.76 -4.76,-4.76zm0 -2.84c2.47,0 2.77,0.01 3.75,0.05 0.9,0.04 1.39,0.19 1.72,0.32 0.43,0.17 0.74,0.37 1.07,0.69 0.32,0.32 0.53,0.63 0.69,1.07 0.13,0.33 0.28,0.82 0.32,1.72 0.04,0.98 0.05,1.27 0.05,3.75 0,2.48 -0.01,2.77 -0.05,3.75 -0.04,0.9 -0.19,1.39 -0.32,1.72 -0.17,0.43 -0.37,0.74 -0.69,1.07 -0.32,0.32 -0.63,0.52 -1.07,0.69 -0.33,0.13 -0.82,0.28 -1.72,0.32 -0.98,0.04 -1.27,0.05 -3.75,0.05 -2.48,0 -2.77,-0.01 -3.75,-0.05 -0.9,-0.04 -1.39,-0.19 -1.72,-0.32 -0.43,-0.17 -0.74,-0.37 -1.07,-0.69 -0.32,-0.32 -0.53,-0.63 -0.69,-1.07 -0.13,-0.33 -0.28,-0.82 -0.32,-1.72 -0.04,-0.98 -0.05,-1.27 -0.05,-3.75 0,-2.48 0.01,-2.77 0.05,-3.75 0.04,-0.9 0.19,-1.39 0.32,-1.72 0.17,-0.43 0.37,-0.74 0.69,-1.07 0.32,-0.32 0.63,-0.53 1.07,-0.69 0.33,-0.13 0.82,-0.28 1.72,-0.32 0.98,-0.04 1.27,-0.05 3.75,-0.05z"/>
 </g>
</svg>
