<?xml version="1.0" encoding="UTF-8"?>
<!DOCTYPE svg PUBLIC "-//W3C//DTD SVG 1.1//EN" "http://www.w3.org/Graphics/SVG/1.1/DTD/svg11.dtd">
<!-- Creator: CorelDRAW 2021 (64-Bit) -->
<svg xmlns="http://www.w3.org/2000/svg" xml:space="preserve" width="11.4215mm" height="11.3788mm" version="1.1" style="shape-rendering:geometricPrecision; text-rendering:geometricPrecision; image-rendering:optimizeQuality; fill-rule:evenodd; clip-rule:evenodd"
viewBox="0 0 112.04 111.62"
 xmlns:xlink="http://www.w3.org/1999/xlink"
 xmlns:xodm="http://www.corel.com/coreldraw/odm/2003">
 <defs>
  <style type="text/css">
   <![CDATA[
    .fil2 {fill:#FEFEFE;fill-rule:nonzero}
    .fil1 {fill:url(#id0)}
    .fil0 {fill:url(#id1)}
   ]]>
  </style>
  <linearGradient id="id0" gradientUnits="userSpaceOnUse" x1="48.08" y1="0" x2="48.1" y2="111.62">
   <stop offset="0" style="stop-opacity:1; stop-color:#5B5B5B"/>
   <stop offset="1" style="stop-opacity:1; stop-color:#2B2A29"/>
  </linearGradient>
  <linearGradient id="id1" gradientUnits="userSpaceOnUse" xlink:href="#id0" x1="48.93" y1="105.35" x2="48.95" y2="6.28">
  </linearGradient>
 </defs>
 <g id="Слой_x0020_1">
  <metadata id="CorelCorpID_0Corel-Layer"/>
  <path class="fil0" d="M42.37 105.35l27.3 0c19.88,0 36.14,-16.24 36.09,-36.09l-0.07 -26.88c-0.05,-19.85 -16.25,-36.09 -36.1,-36.09l-27.3 0c-19.85,0 -36.15,16.22 -36.09,36.09l0.07 26.88c0.05,19.87 16.21,36.09 36.09,36.09z"/>
  <path class="fil1" d="M42.37 105.35l27.31 0c19.88,0 36.09,-16.22 36.09,-36.1l0 -26.88c0,-19.88 -16.22,-36.1 -36.09,-36.1l-27.31 -0c-19.87,0 -36.09,16.21 -36.09,36.09l0 26.88c0,19.88 16.21,36.1 36.09,36.1zm27.31 6.28l-27.31 0c-11.65,0 -22.24,-4.76 -29.92,-12.44 -7.68,-7.66 -12.44,-18.25 -12.44,-29.93l0 -26.88c0,-11.68 4.76,-22.27 12.43,-29.94 7.67,-7.67 18.27,-12.43 29.94,-12.43l27.31 0c11.64,0 22.22,4.77 29.9,12.43l0.03 0.02c7.67,7.69 12.43,18.27 12.43,29.91l0 26.88c0,11.67 -4.76,22.27 -12.43,29.94 -7.67,7.67 -18.26,12.43 -29.93,12.43z"/>
  <path class="fil2" d="M56.02 23.67c-8.73,0 -9.83,0.04 -13.26,0.19 -3.42,0.16 -5.76,0.7 -7.8,1.5 -2.11,0.82 -3.91,1.92 -5.69,3.71 -1.79,1.79 -2.89,3.58 -3.71,5.7 -0.8,2.05 -1.34,4.38 -1.49,7.8 -0.16,3.43 -0.19,4.53 -0.19,13.26 0,8.73 0.04,9.83 0.19,13.25 0.15,3.42 0.7,5.76 1.49,7.8 0.82,2.11 1.92,3.91 3.71,5.69 1.79,1.79 3.58,2.89 5.69,3.71 2.05,0.79 4.38,1.34 7.8,1.49 3.43,0.16 4.53,0.19 13.26,0.19 8.73,0 9.83,-0.04 13.26,-0.19 3.42,-0.16 5.76,-0.7 7.8,-1.49 2.11,-0.82 3.91,-1.92 5.69,-3.71 1.79,-1.79 2.88,-3.58 3.71,-5.69 0.79,-2.05 1.34,-4.38 1.49,-7.8 0.16,-3.43 0.19,-4.52 0.19,-13.25 0,-8.73 -0.04,-9.83 -0.19,-13.26 -0.16,-3.42 -0.7,-5.76 -1.49,-7.8 -0.82,-2.11 -1.92,-3.91 -3.71,-5.7 -1.79,-1.79 -3.58,-2.88 -5.69,-3.71 -2.05,-0.8 -4.38,-1.34 -7.8,-1.5 -3.43,-0.16 -4.53,-0.19 -13.26,-0.19zm21.02 14.99c0,2.13 -1.73,3.86 -3.86,3.86 -2.13,0 -3.86,-1.73 -3.86,-3.86 0,-2.13 1.73,-3.86 3.86,-3.86 2.13,0 3.86,1.73 3.86,3.86zm-21.02 27.88c-5.92,0 -10.72,-4.8 -10.72,-10.72 0,-5.92 4.8,-10.72 10.72,-10.72 5.92,0 10.72,4.8 10.72,10.72 0,5.92 -4.8,10.72 -10.72,10.72zm0 -27.22c-9.12,0 -16.51,7.39 -16.51,16.51 0,9.12 7.39,16.51 16.51,16.51 9.12,0 16.51,-7.39 16.51,-16.51 0,-9.12 -7.39,-16.51 -16.51,-16.51zm0 -9.85c8.58,0 9.6,0.03 12.99,0.19 3.13,0.14 4.84,0.67 5.97,1.11 1.5,0.58 2.57,1.28 3.7,2.41 1.13,1.13 1.82,2.2 2.41,3.7 0.44,1.13 0.97,2.84 1.11,5.97 0.15,3.39 0.19,4.41 0.19,12.99 0,8.58 -0.03,9.6 -0.19,12.99 -0.14,3.14 -0.67,4.84 -1.11,5.97 -0.58,1.5 -1.28,2.57 -2.41,3.7 -1.13,1.12 -2.2,1.82 -3.7,2.4 -1.13,0.44 -2.84,0.96 -5.97,1.11 -3.39,0.15 -4.41,0.19 -12.99,0.19 -8.59,0 -9.6,-0.03 -12.99,-0.19 -3.14,-0.14 -4.84,-0.67 -5.97,-1.11 -1.5,-0.58 -2.57,-1.28 -3.7,-2.4 -1.12,-1.13 -1.82,-2.2 -2.41,-3.7 -0.44,-1.13 -0.96,-2.83 -1.11,-5.97 -0.15,-3.39 -0.19,-4.41 -0.19,-12.99 0,-8.59 0.03,-9.6 0.19,-12.99 0.14,-3.13 0.67,-4.84 1.11,-5.97 0.58,-1.5 1.28,-2.57 2.41,-3.7 1.13,-1.12 2.2,-1.82 3.7,-2.41 1.13,-0.44 2.83,-0.96 5.97,-1.11 3.39,-0.15 4.41,-0.19 12.99,-0.19z"/>
 </g>
</svg>
