<?xml version="1.0" encoding="UTF-8"?>
<!DOCTYPE svg PUBLIC "-//W3C//DTD SVG 1.1//EN" "http://www.w3.org/Graphics/SVG/1.1/DTD/svg11.dtd">
<!-- Creator: CorelDRAW 2021 (64-Bit) -->
<svg xmlns="http://www.w3.org/2000/svg" xml:space="preserve" width="16.5341mm" height="9.8157mm" version="1.1" style="shape-rendering:geometricPrecision; text-rendering:geometricPrecision; image-rendering:optimizeQuality; fill-rule:evenodd; clip-rule:evenodd"
viewBox="0 0 105.47 62.61"
 xmlns:xlink="http://www.w3.org/1999/xlink"
 xmlns:xodm="http://www.corel.com/coreldraw/odm/2003">
 <defs>
  <style type="text/css">
   <![CDATA[
    .fil1 {fill:#FEFEFE}
    .fil0 {fill:url(#id2)}
   ]]>
  </style>
   <mask id="id0">
  <linearGradient id="id1" gradientUnits="userSpaceOnUse" x1="54.75" y1="-24.16" x2="54.75" y2="24.52">
   <stop offset="0" style="stop-opacity:1; stop-color:white"/>
   <stop offset="1" style="stop-opacity:0; stop-color:white"/>
  </linearGradient>
    <rect style="fill:url(#id1)" x="7.16" y="4.74" width="91.14" height="21.5"/>
   </mask>
  <linearGradient id="id2" gradientUnits="userSpaceOnUse" x1="71.08" y1="-2.55" x2="50.34" y2="61.08">
   <stop offset="0" style="stop-opacity:1; stop-color:#D23643"/>
   <stop offset="1" style="stop-opacity:1; stop-color:#712324"/>
  </linearGradient>
 </defs>
 <g id="Слой_x0020_1">
  <metadata id="CorelCorpID_0Corel-Layer"/>
  <path class="fil0" d="M17.35 -0l70.76 0c9.56,0 17.35,7.8 17.35,17.35l0 27.91c0,9.55 -7.8,17.35 -17.35,17.35l-70.76 0c-9.55,0 -17.35,-7.8 -17.35,-17.35l0 -27.91c0,-9.56 7.79,-17.35 17.35,-17.35z"/>
  <path class="fil1" style="mask:url(#id0)" d="M89.52 4.74l-73.58 0c-2.42,0 -4.61,0.99 -6.2,2.58 -1.59,1.59 -2.58,3.79 -2.58,6.2l0 3.94c0,2.42 0.98,4.62 2.57,6.2l0.01 0.01c1.59,1.59 3.78,2.57 6.2,2.57l73.58 0c2.42,0 4.62,-0.99 6.21,-2.58 1.59,-1.6 2.58,-3.79 2.58,-6.21l0 -3.94c0,-2.41 -0.99,-4.61 -2.58,-6.2 -1.59,-1.59 -3.79,-2.58 -6.2,-2.58z"/>
 </g>
</svg>
