<?xml version="1.0" encoding="UTF-8"?>
<!DOCTYPE svg PUBLIC "-//W3C//DTD SVG 1.1//EN" "http://www.w3.org/Graphics/SVG/1.1/DTD/svg11.dtd">
<!-- Creator: CorelDRAW 2021 (64-Bit) -->
<svg xmlns="http://www.w3.org/2000/svg" xml:space="preserve" width="46.9271mm" height="12.0842mm" version="1.1" style="shape-rendering:geometricPrecision; text-rendering:geometricPrecision; image-rendering:optimizeQuality; fill-rule:evenodd; clip-rule:evenodd"
viewBox="0 0 21633 5570.71"
 xmlns:xlink="http://www.w3.org/1999/xlink"
 xmlns:xodm="http://www.corel.com/coreldraw/odm/2003">
 <defs>
  <style type="text/css">
   <![CDATA[
    .fil1 {fill:url(#id0)}
    .fil0 {fill:url(#id1)}
   ]]>
  </style>
  <linearGradient id="id0" gradientUnits="userSpaceOnUse" x1="9285.57" y1="0" x2="9285.8" y2="5570.71">
   <stop offset="0" style="stop-opacity:1; stop-color:#5B5B5B"/>
   <stop offset="1" style="stop-opacity:1; stop-color:#2B2A29"/>
  </linearGradient>
  <linearGradient id="id1" gradientUnits="userSpaceOnUse" xlink:href="#id0" x1="9314.2" y1="5368.39" x2="9314.52" y2="202.42">
  </linearGradient>
 </defs>
 <g id="Слой_x0020_1">
  <metadata id="CorelCorpID_0Corel-Layer"/>
  <path class="fil0" d="M1366.7 5368.39l18899.59 0c641.29,0 1164.28,-523.23 1164.28,-1164.23l0 -2837.54c0,-641.01 -523.27,-1164.19 -1164.28,-1164.19l-18899.59 0c-641.01,0 -1164.28,523.04 -1164.28,1164.19l0 2837.54c0,641.24 522.99,1164.23 1164.28,1164.23z"/>
  <path class="fil1" d="M1366.56 5368.39l18899.83 0c641.24,0 1164.19,-523.32 1164.19,-1164.28l0 -2837.5c0,-640.96 -523.23,-1164.19 -1164.19,-1164.19l-18899.83 0c-640.92,0 -1164.14,522.95 -1164.14,1164.19l0 2837.5c0,641.15 522.9,1164.28 1164.14,1164.28zm18899.83 202.33l-18899.83 0c-375.66,0 -717.35,-153.65 -965.18,-401.39 -247.88,-247.05 -401.39,-588.73 -401.39,-965.22l0 -2837.5c0,-376.49 153.51,-718.18 400.97,-965.64 247.46,-247.41 589.33,-400.97 965.59,-400.97l18899.83 0c375.39,0 716.84,153.56 964.72,401.11l0.78 0.78c247.69,247.97 401.11,589.33 401.11,964.72l0 2837.5c0,376.4 -153.56,718.18 -400.97,965.73 -247.46,247.46 -589.15,400.88 -965.64,400.88z"/>
 </g>
</svg>
