<?xml version="1.0" encoding="UTF-8"?>
<!DOCTYPE svg PUBLIC "-//W3C//DTD SVG 1.1//EN" "http://www.w3.org/Graphics/SVG/1.1/DTD/svg11.dtd">
<!-- Creator: CorelDRAW 2021 (64-Bit) -->
<svg xmlns="http://www.w3.org/2000/svg" xml:space="preserve" width="46.3483mm" height="11.9353mm" version="1.1" style="shape-rendering:geometricPrecision; text-rendering:geometricPrecision; image-rendering:optimizeQuality; fill-rule:evenodd; clip-rule:evenodd"
viewBox="0 0 743.27 191.4"
 xmlns:xlink="http://www.w3.org/1999/xlink"
 xmlns:xodm="http://www.corel.com/coreldraw/odm/2003">
 <defs>
  <style type="text/css">
   <![CDATA[
    .fil1 {fill:url(#id0)}
    .fil0 {fill:url(#id1)}
   ]]>
  </style>
  <linearGradient id="id0" gradientUnits="userSpaceOnUse" x1="319.04" y1="0" x2="319.04" y2="191.4">
   <stop offset="0" style="stop-opacity:1; stop-color:#EBECEC"/>
   <stop offset="1" style="stop-opacity:1; stop-color:#898989"/>
  </linearGradient>
  <linearGradient id="id1" gradientUnits="userSpaceOnUse" xlink:href="#id0" x1="320.02" y1="184.45" x2="320.03" y2="6.96">
  </linearGradient>
 </defs>
 <g id="Слой_x0020_1">
  <metadata id="CorelCorpID_0Corel-Layer"/>
  <path class="fil0" d="M46.96 184.45l649.35 0c22.03,0 40,-17.98 40,-40l0 -97.49c0,-22.02 -17.98,-40 -40,-40l-649.35 0c-22.02,0 -40,17.97 -40,40l0 97.49c0,22.03 17.97,40 40,40z"/>
  <path class="fil1" d="M46.96 184.45l649.36 0c22.03,0 40,-17.98 40,-40l0 -97.49c0,-22.02 -17.98,-40 -40,-40l-649.36 0c-22.02,0 -40,17.97 -40,40l0 97.49c0,22.03 17.97,40 40,40zm649.36 6.95l-649.36 0c-12.91,0 -24.65,-5.28 -33.16,-13.79 -8.52,-8.49 -13.79,-20.23 -13.79,-33.16l0 -97.49c0,-12.94 5.27,-24.68 13.78,-33.18 8.5,-8.5 20.25,-13.78 33.18,-13.78l649.36 0c12.9,0 24.63,5.27 33.14,13.78l0.03 0.03c8.51,8.52 13.78,20.25 13.78,33.15l0 97.49c0,12.93 -5.28,24.67 -13.78,33.18 -8.5,8.5 -20.24,13.77 -33.18,13.77z"/>
 </g>
</svg>
