<?xml version="1.0" encoding="UTF-8"?>
<!DOCTYPE svg PUBLIC "-//W3C//DTD SVG 1.1//EN" "http://www.w3.org/Graphics/SVG/1.1/DTD/svg11.dtd">
<!-- Creator: CorelDRAW 2021 (64-Bit) -->
<svg xmlns="http://www.w3.org/2000/svg" xml:space="preserve" width="11.2806mm" height="11.2386mm" version="1.1" style="shape-rendering:geometricPrecision; text-rendering:geometricPrecision; image-rendering:optimizeQuality; fill-rule:evenodd; clip-rule:evenodd"
viewBox="0 0 51.73 51.53"
 xmlns:xlink="http://www.w3.org/1999/xlink"
 xmlns:xodm="http://www.corel.com/coreldraw/odm/2003">
 <defs>
  <style type="text/css">
   <![CDATA[
    .fil2 {fill:#2B2A29;fill-rule:nonzero}
    .fil1 {fill:url(#id0)}
    .fil0 {fill:url(#id1)}
   ]]>
  </style>
  <linearGradient id="id0" gradientUnits="userSpaceOnUse" x1="22.2" y1="0" x2="22.21" y2="51.53">
   <stop offset="0" style="stop-opacity:1; stop-color:#EBECEC"/>
   <stop offset="1" style="stop-opacity:1; stop-color:#898989"/>
  </linearGradient>
  <linearGradient id="id1" gradientUnits="userSpaceOnUse" xlink:href="#id0" x1="22.59" y1="48.64" x2="22.6" y2="2.9">
  </linearGradient>
 </defs>
 <g id="Слой_x0020_1">
  <metadata id="CorelCorpID_0Corel-Layer"/>
  <path class="fil0" d="M19.56 48.64l12.61 0c9.18,0 16.69,-7.5 16.66,-16.66l-0.03 -12.41c-0.02,-9.17 -7.5,-16.66 -16.66,-16.66l-12.61 0c-9.16,0 -16.69,7.49 -16.66,16.66l0.03 12.41c0.03,9.17 7.49,16.66 16.66,16.66z"/>
  <path class="fil1" d="M19.56 48.64l12.61 0c9.18,0 16.66,-7.49 16.66,-16.67l0 -12.41c0,-9.18 -7.49,-16.66 -16.66,-16.66l-12.61 -0c-9.17,0 -16.66,7.48 -16.66,16.66l0 12.41c0,9.18 7.48,16.66 16.66,16.66zm12.61 2.9l-12.61 0c-5.38,0 -10.27,-2.2 -13.81,-5.75 -3.55,-3.54 -5.75,-8.43 -5.75,-13.82l0 -12.41c0,-5.39 2.2,-10.28 5.74,-13.82 3.54,-3.54 8.44,-5.74 13.82,-5.74l12.61 0c5.37,0 10.26,2.2 13.81,5.74l0.01 0.01c3.54,3.55 5.74,8.44 5.74,13.81l0 12.41c0,5.39 -2.2,10.28 -5.74,13.82 -3.54,3.54 -8.43,5.74 -13.82,5.74z"/>
  <path class="fil2" d="M14.5 36.31l4.88 0 0 -15.78 -4.88 0 0 15.78zm12.69 -8.28c0,-2.22 1.02,-3.54 2.98,-3.54 1.8,0 2.66,1.27 2.66,3.54 0,2.27 0,8.28 0,8.28l4.86 0c0,0 0,-5.76 0,-9.99 0,-4.23 -2.4,-6.27 -5.74,-6.27 -3.35,0 -4.76,2.61 -4.76,2.61l0 -2.13 -4.69 0 0 15.78 4.69 0c0,0 0,-5.85 0,-8.28zm-10.27 -9.56c1.6,0 2.89,-1.31 2.89,-2.91 0,-1.61 -1.29,-2.91 -2.89,-2.91 -1.6,0 -2.89,1.3 -2.89,2.91 0,1.61 1.29,2.91 2.89,2.91z"/>
 </g>
</svg>
