<?xml version="1.0" encoding="UTF-8"?>
<!DOCTYPE svg PUBLIC "-//W3C//DTD SVG 1.1//EN" "http://www.w3.org/Graphics/SVG/1.1/DTD/svg11.dtd">
<!-- Creator: CorelDRAW 2021 (64-Bit) -->
<svg xmlns="http://www.w3.org/2000/svg" xml:space="preserve" width="46.0489mm" height="12.0844mm" version="1.1" style="shape-rendering:geometricPrecision; text-rendering:geometricPrecision; image-rendering:optimizeQuality; fill-rule:evenodd; clip-rule:evenodd"
viewBox="0 0 1827.31 479.53"
 xmlns:xlink="http://www.w3.org/1999/xlink"
 xmlns:xodm="http://www.corel.com/coreldraw/odm/2003">
 <defs>
  <style type="text/css">
   <![CDATA[
    .fil2 {fill:#FEFEFE}
    .fil1 {fill:#A12B33}
    .fil3 {fill:#FEFEFE;fill-rule:nonzero}
    .fil0 {fill:url(#id0)}
   ]]>
  </style>
  <linearGradient id="id0" gradientUnits="userSpaceOnUse" x1="784.34" y1="0" x2="784.37" y2="479.53">
   <stop offset="0" style="stop-opacity:1; stop-color:#5B5B5B"/>
   <stop offset="1" style="stop-opacity:1; stop-color:#2B2A29"/>
  </linearGradient>
 </defs>
 <g id="Слой_x0020_1">
  <metadata id="CorelCorpID_0Corel-Layer"/>
  <path class="fil0" d="M100.22 0l1626.87 0c55.21,0 100.22,45.08 100.22,100.22l0 279.1c0,55.13 -45.09,100.21 -100.22,100.21l-1626.87 0c-55.13,0 -100.22,-45.02 -100.22,-100.21l0 -279.1c0,-55.2 45.02,-100.22 100.22,-100.22z"/>
  <path class="fil1" d="M318.56 222.98c-0.75,0 -1.4,0.81 -1.43,1.85 -0.01,0.32 -0.02,0.64 -0.03,0.96 -0.04,1.06 0.56,1.9 1.33,1.9 1.5,-0 2.92,0.01 4.4,-0.02 0.81,-0.01 1.47,-0.91 1.46,-1.98 -0,-0.36 0,-0.65 0.01,-0.98 0.03,-1.04 -0.63,-1.84 -1.42,-1.82 -1.46,0.04 -2.88,0.09 -4.31,0.09zm-0.31 9.58c-0.77,0 -1.49,0.91 -1.53,1.9 -0.02,0.38 -0.04,0.71 -0.05,1 -0.06,1.06 0.56,1.98 1.4,1.96 1.59,-0.04 3.12,-0.04 4.66,-0.05 0.84,-0.01 1.5,-0.95 1.5,-1.99 0,-0.33 0.01,-0.65 0.01,-1.01 0.01,-1.05 -0.65,-1.92 -1.47,-1.91 -1.48,0.01 -2.97,0.09 -4.52,0.1l0 0zm-0.51 9.98c-0.87,0.02 -1.65,0.91 -1.74,2.12 -0.02,0.35 -0.03,0.71 -0.06,1.02 -0.08,1.19 0.5,2.12 1.38,2.12 1.62,0 3.23,-0.03 4.83,-0.01 0.88,0.02 1.67,-1 1.71,-2.11 0.01,-0.36 0.06,-0.71 0.07,-1.11 0.05,-1.11 -0.57,-2.14 -1.45,-2.13 -1.6,0.02 -3.13,0.06 -4.75,0.1l0 0zm-0.81 10.56c-0.93,-0.01 -1.7,0.94 -1.81,2.08 -0.04,0.39 -0.08,0.77 -0.12,1.15 -0.13,1.15 0.41,2.23 1.37,2.24 1.69,0.02 3.33,0.02 5.05,0.05 0.93,0.01 1.82,-0.99 1.89,-2.23 0.02,-0.39 0.07,-0.75 0.1,-1.1 0.08,-1.2 -0.63,-2.13 -1.52,-2.14 -1.67,-0.02 -3.32,-0.03 -4.94,-0.05l0 0zm-1.26 11.09c-0.93,-0.02 -1.77,0.96 -1.95,2.22 -0.05,0.38 -0.12,0.73 -0.16,1.14 -0.14,1.27 0.5,2.31 1.43,2.34 1.75,0.06 3.54,0.14 5.33,0.19 0.92,0.02 1.83,-0.98 1.97,-2.27 0.04,-0.39 0.06,-0.78 0.1,-1.17 0.12,-1.23 -0.57,-2.29 -1.5,-2.3 -1.79,-0.02 -3.49,-0.11 -5.21,-0.15l0 0zm-1.43 11.48c-0.98,-0.04 -1.94,1.02 -2.13,2.31 -0.06,0.38 -0.11,0.79 -0.17,1.2 -0.19,1.33 0.41,2.37 1.4,2.43 1.83,0.11 3.62,0.22 5.51,0.36 1.03,0.07 1.96,-0.99 2.13,-2.3 0.06,-0.42 0.12,-0.8 0.17,-1.22 0.16,-1.35 -0.52,-2.5 -1.48,-2.53 -1.84,-0.07 -3.63,-0.19 -5.41,-0.25l0 0zm-1.83 11.96c-0.98,-0.07 -1.97,0.97 -2.19,2.29 -0.07,0.41 -0.14,0.81 -0.21,1.22 -0.23,1.31 0.41,2.49 1.46,2.59 1.87,0.18 3.77,0.35 5.71,0.52 1.08,0.1 2.07,-0.96 2.27,-2.3 0.07,-0.45 0.12,-0.79 0.17,-1.25 0.17,-1.35 -0.55,-2.56 -1.62,-2.63 -1.91,-0.14 -3.74,-0.29 -5.59,-0.43l0 0zm-2.12 12.27c-1.04,-0.13 -2.1,0.96 -2.38,2.33 -0.08,0.4 -0.15,0.84 -0.24,1.27 -0.28,1.33 0.41,2.59 1.49,2.72 1.99,0.25 3.96,0.51 5.94,0.75 1.1,0.13 2.17,-0.92 2.38,-2.35 0.06,-0.41 0.15,-0.82 0.22,-1.27 0.23,-1.42 -0.44,-2.67 -1.54,-2.79 -2.01,-0.22 -3.88,-0.42 -5.85,-0.66l0 0zm-2.33 12.64c-1.11,-0.16 -2.26,0.79 -2.57,2.23 -0.09,0.4 -0.21,0.82 -0.31,1.25 -0.34,1.4 0.4,2.73 1.54,2.91 2.07,0.33 4.16,0.72 6.23,1.04 1.08,0.17 2.25,-0.92 2.52,-2.36 0.09,-0.44 0.16,-0.87 0.24,-1.32 0.27,-1.44 -0.45,-2.77 -1.56,-2.92 -2.04,-0.27 -4.04,-0.54 -6.08,-0.84l0 0zm-2.73 12.82c-1.18,-0.21 -2.38,0.75 -2.68,2.18 -0.08,0.42 -0.17,0.81 -0.27,1.24 -0.31,1.42 0.43,2.81 1.59,3.05 2.14,0.44 4.31,0.87 6.48,1.31 1.16,0.23 2.35,-0.81 2.61,-2.27 0.09,-0.46 0.17,-0.87 0.24,-1.31 0.26,-1.5 -0.47,-2.85 -1.63,-3.06 -2.12,-0.38 -4.21,-0.75 -6.33,-1.14l0 0zm-2.9 13c-1.24,-0.26 -2.51,0.63 -2.85,2.1 -0.11,0.44 -0.21,0.86 -0.32,1.29 -0.35,1.44 0.38,2.85 1.59,3.14 2.2,0.54 4.47,1.06 6.76,1.62 1.23,0.3 2.49,-0.71 2.77,-2.19 0.08,-0.44 0.18,-0.89 0.29,-1.36 0.34,-1.5 -0.41,-2.89 -1.66,-3.16 -2.2,-0.47 -4.38,-0.97 -6.57,-1.44l0 0zm-3.14 13.09c-1.3,-0.34 -2.6,0.54 -3,2.01 -0.12,0.44 -0.23,0.88 -0.35,1.3 -0.38,1.38 0.33,2.9 1.68,3.26 2.21,0.59 4.54,1.26 6.9,1.92 1.31,0.36 2.68,-0.61 3,-2.03 0.11,-0.46 0.21,-0.91 0.32,-1.37 0.33,-1.5 -0.43,-2.94 -1.71,-3.28 -2.32,-0.62 -4.61,-1.23 -6.85,-1.82l0 0zm19.21 -137.24c-0.75,0 -1.34,0.77 -1.34,1.73 0,0.29 0.04,0.55 0.04,0.87 -0,0.96 0.65,1.78 1.35,1.78 1.41,-0.01 2.8,-0.05 4.17,-0.03 0.81,0 1.37,-0.81 1.34,-1.75 -0.01,-0.29 -0.03,-0.59 -0.06,-0.91 -0.06,-0.91 -0.72,-1.71 -1.44,-1.69 -1.37,0.02 -2.75,0 -4.06,0l0 0zm-45.36 9.29c-0.64,0.01 -1.44,0.83 -1.86,1.9 -0.12,0.31 -0.26,0.62 -0.37,0.93 -0.41,1.04 -0.22,1.92 0.45,1.91 1.21,-0.02 2.44,-0 3.68,-0 0.67,0 1.56,-0.91 1.95,-1.96 0.12,-0.31 0.23,-0.6 0.33,-0.91 0.36,-1.08 0.1,-1.88 -0.56,-1.88 -1.23,0 -2.39,0.01 -3.61,0.02l0 0zm-3.65 9.45c-0.69,0 -1.6,0.87 -2.03,1.92 -0.13,0.33 -0.25,0.64 -0.37,0.94 -0.38,1.03 -0.17,1.86 0.54,1.87 1.28,0.01 2.56,0.02 3.83,0.02 0.75,-0 1.67,-0.89 2.04,-1.9 0.11,-0.31 0.22,-0.65 0.34,-0.96 0.38,-1.04 0.11,-1.92 -0.6,-1.92 -1.26,0.01 -2.54,0.02 -3.75,0.03l0 0zm-3.88 9.54c-0.74,-0.01 -1.71,0.83 -2.21,1.9 -0.15,0.32 -0.31,0.65 -0.45,0.95 -0.48,1 -0.25,1.89 0.5,1.89 1.39,0 2.72,0.06 4.14,0.06 0.72,0 1.69,-0.88 2.12,-1.93 0.12,-0.28 0.26,-0.59 0.4,-0.94 0.46,-1.09 0.2,-1.94 -0.54,-1.94 -1.35,-0 -2.66,0.04 -3.97,0.02l0 0zm-4.26 9.53c-0.77,-0.01 -1.76,0.81 -2.25,1.89 -0.15,0.33 -0.31,0.62 -0.48,0.94 -0.55,1.04 -0.33,1.89 0.47,1.92 1.4,0.05 2.83,0.09 4.27,0.13 0.81,0.02 1.88,-0.84 2.37,-1.89 0.15,-0.32 0.29,-0.6 0.43,-0.96 0.41,-1.07 0.14,-1.93 -0.64,-1.95 -1.38,-0.04 -2.82,-0.06 -4.18,-0.08l0 0zm-4.67 9.52c-0.77,-0.02 -1.88,0.79 -2.41,1.84 -0.16,0.32 -0.32,0.67 -0.48,0.98 -0.54,1.06 -0.34,1.88 0.51,1.92 1.5,0.08 2.99,0.18 4.49,0.28 0.85,0.05 1.94,-0.81 2.42,-1.88 0.14,-0.33 0.31,-0.65 0.48,-1 0.51,-1.05 0.23,-1.93 -0.6,-1.95 -1.47,-0.04 -2.92,-0.15 -4.39,-0.19l0 0zm-4.87 9.51c-0.81,-0.05 -2,0.75 -2.58,1.76 -0.2,0.33 -0.37,0.65 -0.53,0.95 -0.57,1.06 -0.38,1.93 0.44,1.99 1.59,0.12 3.12,0.25 4.73,0.37 0.92,0.07 1.99,-0.78 2.58,-1.82 0.17,-0.29 0.35,-0.6 0.53,-0.94 0.53,-1.06 0.3,-1.98 -0.58,-2.04 -1.52,-0.1 -3.09,-0.19 -4.59,-0.28l0 0zm-5.29 9.46c-0.88,-0.09 -2.12,0.68 -2.71,1.72 -0.17,0.3 -0.32,0.62 -0.49,0.91 -0.6,1.07 -0.42,1.92 0.46,2.02 1.64,0.18 3.28,0.37 4.94,0.54 0.91,0.09 2.14,-0.65 2.69,-1.77 0.15,-0.31 0.32,-0.62 0.48,-0.93 0.59,-1.09 0.29,-2 -0.61,-2.1 -1.57,-0.17 -3.21,-0.25 -4.77,-0.4l0 0zm-5.64 9.27c-0.91,-0.11 -2.19,0.65 -2.86,1.68 -0.19,0.29 -0.33,0.6 -0.54,0.92 -0.65,1.01 -0.46,1.96 0.48,2.1 1.69,0.24 3.41,0.42 5.1,0.66 0.98,0.14 2.27,-0.6 2.88,-1.66 0.2,-0.35 0.38,-0.63 0.56,-0.93 0.6,-1.06 0.36,-2.04 -0.57,-2.14 -1.71,-0.19 -3.37,-0.43 -5.04,-0.63l0 0zm-5.86 9.29c-0.95,-0.15 -2.31,0.54 -3,1.53 -0.24,0.33 -0.41,0.6 -0.63,0.91 -0.69,0.99 -0.48,1.93 0.45,2.08 1.79,0.29 3.53,0.6 5.33,0.9 1,0.17 2.37,-0.52 3.05,-1.58 0.16,-0.27 0.38,-0.59 0.58,-0.9 0.67,-1.06 0.38,-1.98 -0.54,-2.11 -1.79,-0.26 -3.5,-0.56 -5.24,-0.83l0 0zm-6.35 9.02c-0.96,-0.19 -2.35,0.45 -3.07,1.46 -0.21,0.3 -0.42,0.61 -0.62,0.88 -0.69,0.95 -0.47,1.93 0.54,2.12 1.83,0.36 3.65,0.74 5.5,1.1 1.04,0.2 2.4,-0.44 3.09,-1.44 0.2,-0.29 0.41,-0.59 0.62,-0.91 0.67,-1.05 0.37,-1.99 -0.67,-2.18 -1.79,-0.33 -3.6,-0.7 -5.39,-1.05l0 0zm-6.52 8.86c-1.03,-0.22 -2.5,0.35 -3.26,1.31 -0.25,0.32 -0.48,0.59 -0.71,0.87 -0.74,0.9 -0.51,1.92 0.52,2.17 1.93,0.45 3.82,0.89 5.73,1.34 1.05,0.25 2.5,-0.36 3.22,-1.32 0.23,-0.3 0.44,-0.61 0.67,-0.93 0.7,-0.98 0.48,-1.98 -0.58,-2.21 -1.9,-0.41 -3.74,-0.84 -5.58,-1.23l0 0zm-6.83 8.68c-1.04,-0.25 -2.5,0.31 -3.3,1.21 -0.27,0.31 -0.51,0.56 -0.77,0.86 -0.79,0.88 -0.58,1.85 0.52,2.15 1.92,0.52 3.87,1.06 5.86,1.61 1.1,0.3 2.68,-0.21 3.43,-1.16 0.22,-0.28 0.46,-0.59 0.7,-0.9 0.76,-0.97 0.44,-2.03 -0.62,-2.29 -1.96,-0.5 -3.94,-1.03 -5.83,-1.48l0 0zm-7.22 8.36c-1.08,-0.31 -2.66,0.18 -3.43,1.07 -0.26,0.29 -0.48,0.55 -0.73,0.84 -0.81,0.88 -0.55,1.89 0.56,2.23 1.98,0.62 4.02,1.21 6.12,1.85 1.13,0.34 2.69,-0.16 3.44,-1.1 0.21,-0.25 0.45,-0.56 0.68,-0.84 0.75,-0.94 0.49,-2 -0.63,-2.32 -2.03,-0.59 -4.04,-1.15 -6,-1.73l0 0zm-7.38 8.14c-1.15,-0.38 -2.76,0.06 -3.61,0.91 -0.27,0.27 -0.54,0.51 -0.8,0.76 -0.86,0.86 -0.6,1.85 0.58,2.26 2.04,0.7 4.15,1.45 6.3,2.17 1.18,0.4 2.77,-0.02 3.62,-0.98 0.21,-0.24 0.47,-0.49 0.73,-0.78 0.83,-0.92 0.54,-1.94 -0.6,-2.33 -2.08,-0.7 -4.17,-1.34 -6.21,-2.02l0 0zm-7.76 7.81c-1.15,-0.4 -2.79,-0.03 -3.61,0.78 -0.28,0.27 -0.52,0.55 -0.77,0.78 -0.93,0.86 -0.7,1.81 0.51,2.25 2.12,0.77 4.27,1.59 6.5,2.44 1.23,0.47 2.91,0.17 3.76,-0.71 0.27,-0.27 0.54,-0.55 0.79,-0.82 0.82,-0.88 0.49,-1.98 -0.73,-2.41 -2.11,-0.75 -4.27,-1.54 -6.44,-2.31l0 0zm-7.94 7.49c-1.21,-0.46 -2.93,-0.21 -3.83,0.59 -0.26,0.23 -0.52,0.46 -0.79,0.7 -0.9,0.78 -0.65,1.85 0.56,2.33 2.23,0.87 4.48,1.79 6.75,2.71 1.25,0.52 2.96,0.22 3.81,-0.62 0.24,-0.23 0.54,-0.49 0.79,-0.75 0.85,-0.87 0.58,-1.98 -0.69,-2.46 -2.21,-0.85 -4.42,-1.67 -6.59,-2.5l0 0zm-8.1 7.14c-1.23,-0.51 -3.04,-0.31 -3.99,0.44 -0.27,0.21 -0.56,0.45 -0.82,0.65 -0.97,0.76 -0.7,1.79 0.56,2.31 2.27,0.96 4.57,2 6.9,2.98 1.28,0.54 3.1,0.39 3.99,-0.4 0.27,-0.24 0.52,-0.49 0.79,-0.72 0.91,-0.79 0.64,-1.87 -0.63,-2.41 -2.33,-0.98 -4.57,-1.93 -6.81,-2.85l0 0zm-8.46 6.7c-1.25,-0.57 -3.07,-0.4 -4,0.34 -0.27,0.22 -0.55,0.39 -0.82,0.61 -0.91,0.74 -0.65,1.79 0.61,2.37 2.37,1.07 4.74,2.12 7.12,3.24 1.35,0.63 3.19,0.54 4.05,-0.23 0.26,-0.23 0.54,-0.44 0.8,-0.66 0.94,-0.78 0.56,-1.91 -0.76,-2.49 -2.37,-1.04 -4.69,-2.11 -7,-3.17l0 0zm-8.56 6.32c-1.31,-0.61 -3.14,-0.52 -4.13,0.13 -0.31,0.21 -0.58,0.39 -0.87,0.59 -0.96,0.64 -0.66,1.69 0.65,2.33 2.41,1.17 4.84,2.32 7.28,3.49 1.4,0.67 3.26,0.62 4.16,-0.04 0.27,-0.19 0.58,-0.38 0.88,-0.62 0.92,-0.73 0.59,-1.77 -0.79,-2.42 -2.44,-1.15 -4.8,-2.33 -7.19,-3.46l0 0zm116.49 -163.52c-0.62,0.01 -1.4,0.8 -1.76,1.86 -0.11,0.31 -0.23,0.62 -0.34,0.94 -0.35,1.02 -0.13,1.89 0.52,1.88 1.12,-0.01 2.31,0.04 3.44,0.03 0.64,-0 1.45,-0.91 1.77,-1.92 0.1,-0.32 0.19,-0.64 0.29,-0.95 0.33,-1.01 0.08,-1.85 -0.54,-1.85 -1.16,0 -2.25,-0.01 -3.37,0.01l0 0zm50.63 -1.06c0.89,50.47 -4.28,100.99 -14.52,150.33 -2.84,1.37 -5.71,2.69 -8.6,3.96 -0.28,-0.29 -0.63,-0.51 -1.02,-0.63 -2.38,-0.73 -4.74,-1.42 -7.1,-2.14 -1.27,-0.38 -2.72,0.5 -3.09,1.93 -0.12,0.44 -0.25,0.85 -0.37,1.32 -0.38,1.39 0.33,2.95 1.68,3.38l0.4 0.13c-31.96,12.69 -66.42,19.54 -101.03,20.19 -11.54,0.21 -23.08,-0.23 -34.56,-1.37 0.2,-0.13 0.4,-0.25 0.61,-0.38 1.02,-0.63 0.64,-1.73 -0.76,-2.42 -2.52,-1.24 -4.96,-2.5 -7.4,-3.7 -1.36,-0.67 -3.25,-0.72 -4.25,-0.13 -0.33,0.19 -0.61,0.35 -0.93,0.55 -0.98,0.59 -0.7,1.6 0.68,2.29 2.08,1.05 4.17,2.08 6.28,3.15 -6.75,-0.8 -13.46,-1.84 -20.13,-3.12 68.71,-41.19 107.31,-91.3 139.75,-173.01l-43.43 18.87c23.79,-57.84 47.57,-115.67 71.36,-173.5 23.79,57.83 47.57,115.67 71.35,173.5l-44.9 -19.21 0 0z"/>
  <path class="fil2" d="M116.15 389.47c110.58,37.8 244.4,11.27 322.4,-77.47l-20.51 -18.38c-68.72,90.19 -193.22,123.89 -301.89,95.85z"/>
  <polygon class="fil2" points="598.63,264.59 566.06,206.6 554.14,220.3 554.14,264.59 519.79,264.59 519.79,123.19 554.14,123.19 554.14,173.23 595.06,123.19 637.55,123.19 589.29,180.38 639.14,264.59 "/>
  <polygon class="fil2" points="653.44,264.59 687.99,264.59 687.99,123.19 653.44,123.19 "/>
  <polygon class="fil2" points="796.63,264.59 751.35,193.49 751.35,264.59 716.79,264.59 716.79,123.19 747.18,123.19 792.46,194.29 792.46,123.19 827.01,123.19 827.01,264.59 "/>
  <path class="fil2" d="M924.13 193.89c0,-6.48 -0.13,-11.75 -0.4,-15.79 -0.27,-4.04 -0.6,-7.29 -0.99,-9.73 -0.4,-2.45 -0.92,-4.34 -1.59,-5.66 -0.69,-1.32 -1.42,-2.52 -2.22,-3.57 -1.32,-1.72 -3.17,-3.18 -5.59,-4.37 -2.38,-1.19 -5.17,-1.79 -8.38,-1.79 -3.17,0 -5.99,0.6 -8.37,1.79 -2.42,1.19 -4.27,2.65 -5.6,4.37 -0.8,1.06 -1.52,2.25 -2.22,3.57 -0.66,1.32 -1.19,3.21 -1.59,5.66 -0.4,2.45 -0.73,5.69 -1,9.73 -0.27,4.04 -0.4,9.3 -0.4,15.79 0,6.49 0.13,11.72 0.4,15.69 0.27,3.97 0.6,7.17 1,9.63 0.4,2.44 0.92,4.33 1.59,5.66 0.7,1.33 1.42,2.52 2.22,3.58 1.32,1.72 3.18,3.21 5.6,4.47 2.38,1.25 5.19,1.88 8.37,1.88 3.21,0 5.99,-0.63 8.38,-1.88 2.42,-1.26 4.27,-2.75 5.59,-4.47 0.8,-1.06 1.53,-2.25 2.22,-3.58 0.67,-1.33 1.19,-3.21 1.59,-5.66 0.4,-2.46 0.73,-5.66 0.99,-9.63 0.27,-3.98 0.4,-9.2 0.4,-15.69zm-19.88 71.89l1.42 0c8.43,-0.07 15.64,-1.43 21.69,-4.07 6.19,-2.72 11.88,-6.65 17.05,-11.82 3.71,-3.71 6.52,-7.71 8.51,-12.02 1.99,-4.31 3.41,-8.84 4.27,-13.61 0.86,-4.77 1.32,-9.69 1.39,-14.79 0.06,-5.1 0.1,-10.29 0.1,-15.59l0 0c0,-5.29 -0.03,-10.49 -0.1,-15.59 -0.07,-5.1 -0.53,-10.03 -1.39,-14.8 -0.86,-4.76 -2.28,-9.3 -4.27,-13.6 -1.98,-4.31 -4.8,-8.31 -8.51,-12.02 -5.16,-5.16 -10.86,-9.1 -17.05,-11.81 -6.22,-2.72 -13.67,-4.07 -22.41,-4.07 -8.7,0 -16.18,1.35 -22.4,4.07 -6.19,2.71 -11.88,6.65 -17.05,11.81 -3.71,3.71 -6.52,7.71 -8.5,12.02 -1.99,4.3 -3.41,8.84 -4.27,13.6 -0.86,4.77 -1.32,9.7 -1.39,14.8 -0.07,5.1 -0.1,10.29 -0.1,15.59 0,5.3 0.03,10.5 0.1,15.59 0.07,5.1 0.53,10.03 1.39,14.79 0.86,4.77 2.29,9.3 4.27,13.61 1.98,4.3 4.8,8.31 8.5,12.02 5.17,5.16 10.86,9.1 17.05,11.82 6.05,2.64 13.29,3.99 21.69,4.07z"/>
  <path class="fil2" d="M1052.42 168.66c0,-3.64 -1.32,-6.91 -4,-9.8 -2.65,-2.88 -6.38,-4.3 -11.19,-4.3l-19.76 0 0 28.2 19.76 0c4.8,0 8.54,-1.42 11.19,-4.31 2.68,-2.88 4,-6.15 4,-9.8zm34.56 0c0,5.83 -1.06,11.46 -3.18,16.88 -2.12,5.43 -5.2,10.26 -9.23,14.5 -4.04,4.23 -9.07,7.65 -15.1,10.23 -6.02,2.58 -12.94,3.88 -20.75,3.88l-21.25 0 0 50.44 -34.56 0 0 -141.4 55.9 0c7.78,0 14.7,1.29 20.72,3.87 5.99,2.59 11.02,6 15.06,10.23 4,4.24 7.08,9.07 9.2,14.5 2.12,5.42 3.18,11.05 3.18,16.88l0 0z"/>
  <path class="fil2" d="M1176.94 168.87c0,-3.71 -1.33,-7.02 -4,-9.93 -2.65,-2.91 -6.39,-4.37 -11.19,-4.37l-19.76 0 0 28.6 19.76 0c4.8,0 8.54,-1.46 11.19,-4.37 2.68,-2.91 4,-6.22 4,-9.93zm1.85 95.72l-24.89 -52.63 -11.91 0 0 52.63 -34.56 0 0 -141.4 55.9 0c7.78,0 14.7,1.29 20.72,3.87 5.99,2.59 11.02,6 15.06,10.23 4,4.24 7.08,9.07 9.2,14.5 2.12,5.42 3.17,11.05 3.17,16.88 0,4.76 -0.69,9.13 -2.08,13.1 -1.39,3.98 -3.18,7.48 -5.36,10.53 -2.19,3.04 -4.64,5.69 -7.35,7.94 -2.71,2.25 -5.46,4.04 -8.24,5.36l30.58 58.98 -40.25 0 0 0z"/>
  <path class="fil2" d="M1305.23 193.89c0,-6.48 -0.13,-11.75 -0.4,-15.79 -0.26,-4.04 -0.59,-7.29 -0.99,-9.73 -0.4,-2.45 -0.92,-4.34 -1.59,-5.66 -0.69,-1.32 -1.43,-2.52 -2.22,-3.57 -1.33,-1.72 -3.18,-3.18 -5.6,-4.37 -2.38,-1.19 -5.16,-1.79 -8.37,-1.79 -3.17,0 -5.99,0.6 -8.38,1.79 -2.41,1.19 -4.27,2.65 -5.59,4.37 -0.8,1.06 -1.52,2.25 -2.22,3.57 -0.66,1.32 -1.19,3.21 -1.59,5.66 -0.4,2.45 -0.73,5.69 -0.99,9.73 -0.26,4.04 -0.4,9.3 -0.4,15.79 0,6.49 0.13,11.72 0.4,15.69 0.27,3.97 0.6,7.17 0.99,9.63 0.4,2.44 0.93,4.33 1.59,5.66 0.69,1.33 1.42,2.52 2.22,3.58 1.33,1.72 3.18,3.21 5.59,4.47 2.38,1.25 5.19,1.88 8.38,1.88 3.21,0 5.99,-0.63 8.37,-1.88 2.42,-1.26 4.27,-2.75 5.6,-4.47 0.79,-1.06 1.52,-2.25 2.22,-3.58 0.66,-1.33 1.19,-3.21 1.59,-5.66 0.4,-2.46 0.73,-5.66 0.99,-9.63 0.26,-3.98 0.4,-9.2 0.4,-15.69zm-19.88 71.89l1.42 0c8.43,-0.07 15.64,-1.43 21.7,-4.07 6.19,-2.72 11.88,-6.65 17.05,-11.82 3.7,-3.71 6.52,-7.71 8.5,-12.02 1.98,-4.31 3.41,-8.84 4.27,-13.61 0.86,-4.77 1.33,-9.69 1.39,-14.79 0.07,-5.1 0.1,-10.29 0.1,-15.59l0 0c0,-5.29 -0.04,-10.49 -0.1,-15.59 -0.06,-5.1 -0.52,-10.03 -1.39,-14.8 -0.86,-4.76 -2.29,-9.3 -4.27,-13.6 -1.99,-4.31 -4.8,-8.31 -8.5,-12.02 -5.17,-5.16 -10.86,-9.1 -17.05,-11.81 -6.22,-2.72 -13.67,-4.07 -22.41,-4.07 -8.71,0 -16.19,1.35 -22.41,4.07 -6.19,2.71 -11.88,6.65 -17.05,11.81 -3.71,3.71 -6.52,7.71 -8.5,12.02 -1.99,4.3 -3.41,8.84 -4.27,13.6 -0.86,4.77 -1.32,9.7 -1.39,14.8 -0.06,5.1 -0.1,10.29 -0.1,15.59 0,5.3 0.04,10.5 0.1,15.59 0.07,5.1 0.53,10.03 1.39,14.79 0.86,4.77 2.28,9.3 4.27,13.61 1.98,4.3 4.8,8.31 8.5,12.02 5.16,5.16 10.86,9.1 17.05,11.82 6.05,2.64 13.29,3.99 21.69,4.07z"/>
  <polygon class="fil2" points="1442.86,264.59 1410.29,206.6 1398.37,220.3 1398.37,264.59 1364.02,264.59 1364.02,123.19 1398.37,123.19 1398.37,173.23 1439.29,123.19 1481.79,123.19 1433.53,180.38 1483.37,264.59 "/>
  <path class="fil2" d="M1549.11 177.01l-12.71 37.73 24.63 0 -11.91 -37.73zm27.61 87.58l-6.56 -21.05 -43.5 0 -6.95 21.05 -36.34 0 51.44 -141.4 26.81 0 51.44 141.4 -36.34 0 0 0z"/>
  <polygon class="fil2" points="1676.41,154.17 1676.41,264.59 1641.85,264.59 1641.85,154.17 1607.1,154.17 1607.1,123.19 1711.16,123.19 1711.16,154.17 "/>
  <path class="fil3" d="M579.87 357.31l0 -13.58 -30.16 0 0 7.82 21.02 0 0 6.61c0,6.49 -1.32,11.17 -4.81,15.5 -3.96,4.81 -9.98,7.33 -16.22,7.33 -5.9,0 -10.94,-2.04 -14.79,-6.01 -5.4,-5.53 -6.01,-11.78 -6.01,-29.33 0,-17.54 0.61,-23.79 6.01,-29.32 3.85,-3.96 8.89,-6.01 14.79,-6.01 10.69,0 18.38,6.49 20.79,17.42l9.13 0c-2.4,-14.78 -13.82,-25.6 -29.92,-25.6 -8.9,0 -16.11,3.13 -21.4,8.42 -8.05,8.05 -8.53,15.5 -8.53,35.09 0,19.59 0.48,27.04 8.53,35.1 5.29,5.29 12.5,8.41 21.4,8.41 8.77,0 16.83,-3.25 22.83,-9.86 5.53,-6.13 7.33,-12.14 7.33,-21.99zm81.13 31.13l-20.32 -38.82c11.06,-2.28 18.63,-10.45 18.63,-22.95 0,-14.78 -10.46,-23.79 -25.36,-23.79l-32.81 0 0 85.57 9.13 0 0 -37.98 20.55 0 19.47 37.98 10.7 0zm-10.82 -61.65c0,10.45 -7.09,15.62 -17.07,15.62l-22.84 0 0 -31.36 22.84 0c9.98,0 17.07,5.29 17.07,15.75zm85.81 18.86c0,-19.58 -0.6,-27.04 -8.65,-35.09 -5.29,-5.29 -12.38,-8.42 -21.27,-8.42 -8.89,0 -16.11,3.13 -21.4,8.42 -8.05,8.05 -8.53,15.5 -8.53,35.09 0,19.59 0.48,27.04 8.53,35.1 5.29,5.29 12.5,8.41 21.4,8.41 8.89,0 15.98,-3.12 21.27,-8.41 8.05,-8.06 8.65,-15.5 8.65,-35.1zm-9.13 0c0,17.55 -0.61,23.8 -6.01,29.33 -3.96,3.97 -9.02,6.01 -14.78,6.01 -5.77,0 -10.82,-2.04 -14.79,-6.01 -5.4,-5.53 -6.01,-11.78 -6.01,-29.33 0,-17.54 0.61,-23.79 6.01,-29.32 3.96,-3.96 9.02,-6.01 14.79,-6.01 5.76,0 10.82,2.04 14.78,6.01 5.4,5.53 6.01,11.78 6.01,29.32zm89.18 14.55l0 -57.32 -9.14 0 0 56.6c0,12.98 -8.29,21.52 -20.79,21.52 -12.5,0 -20.67,-8.54 -20.67,-21.52l0 -56.6 -9.13 0 0 57.32c0,17.06 12.5,28.96 29.81,28.96 17.31,0 29.93,-11.9 29.93,-28.96zm81.84 -32.21c0,-15.27 -10.94,-25.11 -26.44,-25.11l-31.85 0 0 85.57 9.13 0 0 -35.21 22.71 0c15.5,0 26.44,-9.98 26.44,-25.24zm-9.13 0c0,11.3 -7.33,17.07 -18.03,17.07l-21.99 0 0 -34.01 21.99 0c10.7,0 18.03,5.65 18.03,16.94z"/>
 </g>
</svg>
