<?xml version="1.0" encoding="UTF-8"?>
<!DOCTYPE svg PUBLIC "-//W3C//DTD SVG 1.1//EN" "http://www.w3.org/Graphics/SVG/1.1/DTD/svg11.dtd">
<!-- Creator: CorelDRAW 2021 (64-Bit) -->
<svg xmlns="http://www.w3.org/2000/svg" xml:space="preserve" width="7.4691mm" height="8.0493mm" version="1.1" style="shape-rendering:geometricPrecision; text-rendering:geometricPrecision; image-rendering:optimizeQuality; fill-rule:evenodd; clip-rule:evenodd"
viewBox="0 0 14.49 15.61"
 xmlns:xlink="http://www.w3.org/1999/xlink"
 xmlns:xodm="http://www.corel.com/coreldraw/odm/2003">
 <defs>
  <style type="text/css">
   <![CDATA[
    .fil1 {fill:#2B2A29}
    .fil0 {fill:#A12B33}
   ]]>
  </style>
 </defs>
 <g id="Слой_x0020_1">
  <metadata id="CorelCorpID_0Corel-Layer"/>
  <path class="fil0" d="M9.1 7.38c-0.03,0 -0.06,0.04 -0.06,0.08 -0,0.01 -0,0.03 -0,0.04 -0,0.05 0.03,0.09 0.06,0.09 0.07,-0 0.13,0 0.2,-0 0.04,-0 0.07,-0.04 0.07,-0.09 -0,-0.02 0,-0.03 0,-0.04 0,-0.05 -0.03,-0.08 -0.06,-0.08 -0.07,0 -0.13,0 -0.19,0zm-0.01 0.43c-0.03,0 -0.07,0.04 -0.07,0.09 -0,0.02 -0,0.03 -0,0.04 -0,0.05 0.03,0.09 0.06,0.09 0.07,-0 0.14,-0 0.21,-0 0.04,-0 0.07,-0.04 0.07,-0.09 0,-0.01 0,-0.03 0,-0.05 0,-0.05 -0.03,-0.09 -0.07,-0.09 -0.07,0 -0.13,0 -0.2,0l0 0zm-0.02 0.45c-0.04,0 -0.07,0.04 -0.08,0.1 -0,0.02 -0,0.03 -0,0.05 -0,0.05 0.02,0.1 0.06,0.1 0.07,0 0.15,-0 0.22,-0 0.04,0 0.08,-0.05 0.08,-0.09 0,-0.02 0,-0.03 0,-0.05 0,-0.05 -0.03,-0.1 -0.07,-0.1 -0.07,0 -0.14,0 -0.21,0l0 0zm-0.04 0.47c-0.04,-0 -0.08,0.04 -0.08,0.09 -0,0.02 -0,0.03 -0.01,0.05 -0.01,0.05 0.02,0.1 0.06,0.1 0.08,0 0.15,0 0.23,0 0.04,0 0.08,-0.04 0.08,-0.1 0,-0.02 0,-0.03 0,-0.05 0,-0.05 -0.03,-0.1 -0.07,-0.1 -0.07,-0 -0.15,-0 -0.22,-0l0 0zm-0.06 0.5c-0.04,-0 -0.08,0.04 -0.09,0.1 -0,0.02 -0.01,0.03 -0.01,0.05 -0.01,0.06 0.02,0.1 0.06,0.11 0.08,0 0.16,0.01 0.24,0.01 0.04,0 0.08,-0.04 0.09,-0.1 0,-0.02 0,-0.03 0,-0.05 0.01,-0.06 -0.03,-0.1 -0.07,-0.1 -0.08,-0 -0.16,-0 -0.23,-0.01l0 0zm-0.06 0.52c-0.04,-0 -0.09,0.05 -0.1,0.1 -0,0.02 -0.01,0.04 -0.01,0.05 -0.01,0.06 0.02,0.11 0.06,0.11 0.08,0 0.16,0.01 0.25,0.02 0.05,0 0.09,-0.04 0.1,-0.1 0,-0.02 0.01,-0.04 0.01,-0.05 0.01,-0.06 -0.02,-0.11 -0.07,-0.11 -0.08,-0 -0.16,-0.01 -0.24,-0.01l0 0zm-0.08 0.54c-0.04,-0 -0.09,0.04 -0.1,0.1 -0,0.02 -0.01,0.04 -0.01,0.05 -0.01,0.06 0.02,0.11 0.07,0.12 0.08,0.01 0.17,0.02 0.26,0.02 0.05,0 0.09,-0.04 0.1,-0.1 0,-0.02 0,-0.04 0.01,-0.06 0.01,-0.06 -0.02,-0.11 -0.07,-0.12 -0.09,-0.01 -0.17,-0.01 -0.25,-0.02l0 0zm-0.1 0.55c-0.05,-0.01 -0.09,0.04 -0.11,0.1 -0,0.02 -0.01,0.04 -0.01,0.06 -0.01,0.06 0.02,0.12 0.07,0.12 0.09,0.01 0.18,0.02 0.27,0.03 0.05,0.01 0.1,-0.04 0.11,-0.11 0,-0.02 0.01,-0.04 0.01,-0.06 0.01,-0.06 -0.02,-0.12 -0.07,-0.13 -0.09,-0.01 -0.17,-0.02 -0.26,-0.03l0 0zm-0.1 0.57c-0.05,-0.01 -0.1,0.04 -0.12,0.1 -0,0.02 -0.01,0.04 -0.01,0.06 -0.02,0.06 0.02,0.12 0.07,0.13 0.09,0.01 0.19,0.03 0.28,0.05 0.05,0.01 0.1,-0.04 0.11,-0.11 0,-0.02 0.01,-0.04 0.01,-0.06 0.01,-0.06 -0.02,-0.12 -0.07,-0.13 -0.09,-0.01 -0.18,-0.02 -0.27,-0.04l0 0zm-0.12 0.58c-0.05,-0.01 -0.11,0.03 -0.12,0.1 -0,0.02 -0.01,0.04 -0.01,0.06 -0.01,0.06 0.02,0.13 0.07,0.14 0.1,0.02 0.19,0.04 0.29,0.06 0.05,0.01 0.11,-0.04 0.12,-0.1 0,-0.02 0.01,-0.04 0.01,-0.06 0.01,-0.07 -0.02,-0.13 -0.07,-0.14 -0.09,-0.02 -0.19,-0.03 -0.28,-0.05l0 0zm-0.13 0.58c-0.06,-0.01 -0.11,0.03 -0.13,0.09 -0,0.02 -0.01,0.04 -0.01,0.06 -0.02,0.06 0.02,0.13 0.07,0.14 0.1,0.02 0.2,0.05 0.3,0.07 0.06,0.01 0.11,-0.03 0.12,-0.1 0,-0.02 0.01,-0.04 0.01,-0.06 0.02,-0.07 -0.02,-0.13 -0.07,-0.14 -0.1,-0.02 -0.2,-0.04 -0.3,-0.06l0 0zm-0.14 0.59c-0.06,-0.02 -0.12,0.02 -0.14,0.09 -0.01,0.02 -0.01,0.04 -0.02,0.06 -0.02,0.06 0.01,0.13 0.08,0.15 0.1,0.03 0.2,0.06 0.31,0.09 0.06,0.02 0.12,-0.03 0.13,-0.09 0,-0.02 0.01,-0.04 0.01,-0.06 0.01,-0.07 -0.02,-0.13 -0.08,-0.15 -0.1,-0.03 -0.21,-0.06 -0.31,-0.08l0 0zm0.86 -6.17c-0.03,0 -0.06,0.03 -0.06,0.08 0,0.01 0,0.02 0,0.04 -0,0.04 0.03,0.08 0.06,0.08 0.06,-0 0.13,-0 0.19,-0 0.04,0 0.06,-0.04 0.06,-0.08 -0,-0.01 -0,-0.03 -0,-0.04 -0,-0.04 -0.03,-0.08 -0.06,-0.08 -0.06,0 -0.12,0 -0.18,0l0 0zm-2.04 0.42c-0.03,0 -0.07,0.04 -0.08,0.09 -0.01,0.01 -0.01,0.03 -0.02,0.04 -0.02,0.05 -0.01,0.09 0.02,0.09 0.05,-0 0.11,-0 0.17,-0 0.03,0 0.07,-0.04 0.09,-0.09 0.01,-0.01 0.01,-0.03 0.01,-0.04 0.02,-0.05 0,-0.08 -0.03,-0.08 -0.06,-0 -0.11,0 -0.16,0l0 0zm-0.16 0.42c-0.03,0 -0.07,0.04 -0.09,0.09 -0.01,0.02 -0.01,0.03 -0.02,0.04 -0.02,0.05 -0.01,0.08 0.02,0.08 0.06,0 0.12,0 0.17,0 0.03,-0 0.08,-0.04 0.09,-0.09 0.01,-0.01 0.01,-0.03 0.02,-0.04 0.02,-0.05 0,-0.09 -0.03,-0.09 -0.06,0 -0.11,0 -0.17,0l0 0zm-0.17 0.43c-0.03,-0 -0.08,0.04 -0.1,0.09 -0.01,0.01 -0.01,0.03 -0.02,0.04 -0.02,0.05 -0.01,0.08 0.02,0.08 0.06,0 0.12,0 0.19,0 0.03,0 0.08,-0.04 0.1,-0.09 0.01,-0.01 0.01,-0.03 0.02,-0.04 0.02,-0.05 0.01,-0.09 -0.02,-0.09 -0.06,-0 -0.12,0 -0.18,0l0 0zm-0.19 0.43c-0.03,-0 -0.08,0.04 -0.1,0.08 -0.01,0.01 -0.01,0.03 -0.02,0.04 -0.02,0.05 -0.01,0.08 0.02,0.09 0.06,0 0.13,0 0.19,0.01 0.04,0 0.08,-0.04 0.11,-0.08 0.01,-0.01 0.01,-0.03 0.02,-0.04 0.02,-0.05 0.01,-0.09 -0.03,-0.09 -0.06,-0 -0.13,-0 -0.19,-0l0 0zm-0.21 0.43c-0.03,-0 -0.08,0.04 -0.11,0.08 -0.01,0.01 -0.01,0.03 -0.02,0.04 -0.02,0.05 -0.02,0.08 0.02,0.09 0.07,0 0.13,0.01 0.2,0.01 0.04,0 0.09,-0.04 0.11,-0.08 0.01,-0.01 0.01,-0.03 0.02,-0.04 0.02,-0.05 0.01,-0.09 -0.03,-0.09 -0.07,-0 -0.13,-0.01 -0.2,-0.01l0 0zm-0.22 0.43c-0.04,-0 -0.09,0.03 -0.12,0.08 -0.01,0.01 -0.02,0.03 -0.02,0.04 -0.03,0.05 -0.02,0.09 0.02,0.09 0.07,0.01 0.14,0.01 0.21,0.02 0.04,0 0.09,-0.04 0.12,-0.08 0.01,-0.01 0.02,-0.03 0.02,-0.04 0.02,-0.05 0.01,-0.09 -0.03,-0.09 -0.07,-0 -0.14,-0.01 -0.21,-0.01l0 0zm-0.24 0.42c-0.04,-0 -0.1,0.03 -0.12,0.08 -0.01,0.01 -0.01,0.03 -0.02,0.04 -0.03,0.05 -0.02,0.09 0.02,0.09 0.07,0.01 0.15,0.02 0.22,0.02 0.04,0 0.1,-0.03 0.12,-0.08 0.01,-0.01 0.01,-0.03 0.02,-0.04 0.03,-0.05 0.01,-0.09 -0.03,-0.09 -0.07,-0.01 -0.14,-0.01 -0.21,-0.02l0 0zm-0.25 0.42c-0.04,-0 -0.1,0.03 -0.13,0.08 -0.01,0.01 -0.01,0.03 -0.02,0.04 -0.03,0.05 -0.02,0.09 0.02,0.09 0.08,0.01 0.15,0.02 0.23,0.03 0.04,0.01 0.1,-0.03 0.13,-0.07 0.01,-0.02 0.02,-0.03 0.03,-0.04 0.03,-0.05 0.02,-0.09 -0.03,-0.1 -0.08,-0.01 -0.15,-0.02 -0.23,-0.03l0 0zm-0.26 0.42c-0.04,-0.01 -0.1,0.02 -0.14,0.07 -0.01,0.01 -0.02,0.03 -0.03,0.04 -0.03,0.04 -0.02,0.09 0.02,0.09 0.08,0.01 0.16,0.03 0.24,0.04 0.05,0.01 0.11,-0.02 0.14,-0.07 0.01,-0.01 0.02,-0.03 0.03,-0.04 0.03,-0.05 0.02,-0.09 -0.02,-0.09 -0.08,-0.01 -0.16,-0.03 -0.24,-0.04l0 0zm-0.29 0.41c-0.04,-0.01 -0.11,0.02 -0.14,0.07 -0.01,0.01 -0.02,0.03 -0.03,0.04 -0.03,0.04 -0.02,0.09 0.02,0.1 0.08,0.02 0.16,0.03 0.25,0.05 0.05,0.01 0.11,-0.02 0.14,-0.06 0.01,-0.01 0.02,-0.03 0.03,-0.04 0.03,-0.05 0.02,-0.09 -0.03,-0.1 -0.08,-0.01 -0.16,-0.03 -0.24,-0.05l0 0zm-0.29 0.4c-0.05,-0.01 -0.11,0.02 -0.15,0.06 -0.01,0.01 -0.02,0.03 -0.03,0.04 -0.03,0.04 -0.02,0.09 0.02,0.1 0.09,0.02 0.17,0.04 0.26,0.06 0.05,0.01 0.11,-0.02 0.14,-0.06 0.01,-0.01 0.02,-0.03 0.03,-0.04 0.03,-0.04 0.02,-0.09 -0.03,-0.1 -0.09,-0.02 -0.17,-0.04 -0.25,-0.06l0 0zm-0.31 0.39c-0.05,-0.01 -0.11,0.01 -0.15,0.05 -0.01,0.01 -0.02,0.03 -0.03,0.04 -0.04,0.04 -0.03,0.08 0.02,0.1 0.09,0.02 0.17,0.05 0.26,0.07 0.05,0.01 0.12,-0.01 0.15,-0.05 0.01,-0.01 0.02,-0.03 0.03,-0.04 0.03,-0.04 0.02,-0.09 -0.03,-0.1 -0.09,-0.02 -0.18,-0.05 -0.26,-0.07l0 0zm-0.32 0.38c-0.05,-0.01 -0.12,0.01 -0.15,0.05 -0.01,0.01 -0.02,0.03 -0.03,0.04 -0.04,0.04 -0.02,0.08 0.03,0.1 0.09,0.03 0.18,0.05 0.28,0.08 0.05,0.02 0.12,-0.01 0.15,-0.05 0.01,-0.01 0.02,-0.03 0.03,-0.04 0.03,-0.04 0.02,-0.09 -0.03,-0.1 -0.09,-0.03 -0.18,-0.05 -0.27,-0.08l0 0zm-0.33 0.37c-0.05,-0.02 -0.12,0 -0.16,0.04 -0.01,0.01 -0.02,0.02 -0.04,0.03 -0.04,0.04 -0.03,0.08 0.03,0.1 0.09,0.03 0.19,0.07 0.28,0.1 0.05,0.02 0.12,-0 0.16,-0.04 0.01,-0.01 0.02,-0.02 0.03,-0.04 0.04,-0.04 0.02,-0.09 -0.03,-0.1 -0.09,-0.03 -0.19,-0.06 -0.28,-0.09l0 0zm-0.35 0.35c-0.05,-0.02 -0.13,-0 -0.16,0.04 -0.01,0.01 -0.02,0.02 -0.03,0.03 -0.04,0.04 -0.03,0.08 0.02,0.1 0.1,0.03 0.19,0.07 0.29,0.11 0.06,0.02 0.13,0.01 0.17,-0.03 0.01,-0.01 0.02,-0.02 0.04,-0.04 0.04,-0.04 0.02,-0.09 -0.03,-0.11 -0.09,-0.03 -0.19,-0.07 -0.29,-0.1l0 0zm-0.36 0.34c-0.05,-0.02 -0.13,-0.01 -0.17,0.03 -0.01,0.01 -0.02,0.02 -0.04,0.03 -0.04,0.04 -0.03,0.08 0.03,0.1 0.1,0.04 0.2,0.08 0.3,0.12 0.06,0.02 0.13,0.01 0.17,-0.03 0.01,-0.01 0.02,-0.02 0.04,-0.03 0.04,-0.04 0.03,-0.09 -0.03,-0.11 -0.1,-0.04 -0.2,-0.08 -0.3,-0.11l0 0zm-0.36 0.32c-0.06,-0.02 -0.14,-0.01 -0.18,0.02 -0.01,0.01 -0.03,0.02 -0.04,0.03 -0.04,0.03 -0.03,0.08 0.03,0.1 0.1,0.04 0.21,0.09 0.31,0.13 0.06,0.02 0.14,0.02 0.18,-0.02 0.01,-0.01 0.02,-0.02 0.04,-0.03 0.04,-0.04 0.03,-0.08 -0.03,-0.11 -0.1,-0.04 -0.21,-0.09 -0.31,-0.13l0 0zm-0.38 0.3c-0.06,-0.03 -0.14,-0.02 -0.18,0.02 -0.01,0.01 -0.03,0.02 -0.04,0.03 -0.04,0.03 -0.03,0.08 0.03,0.11 0.11,0.05 0.21,0.1 0.32,0.15 0.06,0.03 0.14,0.02 0.18,-0.01 0.01,-0.01 0.02,-0.02 0.04,-0.03 0.04,-0.04 0.03,-0.09 -0.03,-0.11 -0.11,-0.05 -0.21,-0.09 -0.31,-0.14l0 0zm-0.38 0.28c-0.06,-0.03 -0.14,-0.02 -0.19,0.01 -0.01,0.01 -0.03,0.02 -0.04,0.03 -0.04,0.03 -0.03,0.08 0.03,0.11 0.11,0.05 0.22,0.1 0.33,0.16 0.06,0.03 0.15,0.03 0.19,-0 0.01,-0.01 0.03,-0.02 0.04,-0.03 0.04,-0.03 0.03,-0.08 -0.04,-0.11 -0.11,-0.05 -0.22,-0.1 -0.32,-0.16l0 0zm5.24 -7.35c-0.03,0 -0.06,0.04 -0.08,0.08 -0,0.01 -0.01,0.03 -0.02,0.04 -0.02,0.05 -0.01,0.08 0.02,0.08 0.05,-0 0.1,0 0.15,0 0.03,-0 0.07,-0.04 0.08,-0.09 0,-0.01 0.01,-0.03 0.01,-0.04 0.01,-0.05 0,-0.08 -0.02,-0.08 -0.05,0 -0.1,-0 -0.15,0l0 0zm2.27 -0.05c0.04,2.27 -0.19,4.54 -0.65,6.76 -0.13,0.06 -0.26,0.12 -0.39,0.18 -0.01,-0.01 -0.03,-0.02 -0.05,-0.03 -0.11,-0.03 -0.21,-0.06 -0.32,-0.1 -0.06,-0.02 -0.12,0.02 -0.14,0.09 -0.01,0.02 -0.01,0.04 -0.02,0.06 -0.02,0.06 0.01,0.13 0.08,0.15l0.02 0.01c-1.44,0.57 -2.98,0.88 -4.54,0.91 -0.52,0.01 -1.04,-0.01 -1.55,-0.06 0.01,-0.01 0.02,-0.01 0.03,-0.02 0.05,-0.03 0.03,-0.08 -0.03,-0.11 -0.11,-0.06 -0.22,-0.11 -0.33,-0.17 -0.06,-0.03 -0.15,-0.03 -0.19,-0.01 -0.01,0.01 -0.03,0.02 -0.04,0.02 -0.04,0.03 -0.03,0.07 0.03,0.1 0.09,0.05 0.19,0.09 0.28,0.14 -0.3,-0.04 -0.6,-0.08 -0.9,-0.14 3.09,-1.85 4.82,-4.1 6.28,-7.77l-1.95 0.85c1.07,-2.6 2.14,-5.2 3.21,-7.8 1.07,2.6 2.14,5.2 3.21,7.8l-2.02 -0.86 0 0z"/>
  <path class="fil1" d="M-0 14.86c4.97,1.7 10.98,0.51 14.49,-3.48l-0.92 -0.83c-3.09,4.05 -8.68,5.57 -13.57,4.31z"/>
 </g>
</svg>
