<?xml version="1.0" encoding="UTF-8"?>
<!DOCTYPE svg PUBLIC "-//W3C//DTD SVG 1.1//EN" "http://www.w3.org/Graphics/SVG/1.1/DTD/svg11.dtd">
<!-- Creator: CorelDRAW 2021 (64-Bit) -->
<svg xmlns="http://www.w3.org/2000/svg" xml:space="preserve" width="45.4809mm" height="11.9353mm" version="1.1" style="shape-rendering:geometricPrecision; text-rendering:geometricPrecision; image-rendering:optimizeQuality; fill-rule:evenodd; clip-rule:evenodd"
viewBox="0 0 525.57 137.92"
 xmlns:xlink="http://www.w3.org/1999/xlink"
 xmlns:xodm="http://www.corel.com/coreldraw/odm/2003">
 <defs>
  <style type="text/css">
   <![CDATA[
    .fil2 {fill:#2B2A29}
    .fil1 {fill:#A12B33}
    .fil3 {fill:#2B2A29;fill-rule:nonzero}
    .fil0 {fill:url(#id0)}
   ]]>
  </style>
  <linearGradient id="id0" gradientUnits="userSpaceOnUse" x1="225.59" y1="0" x2="225.6" y2="137.92">
   <stop offset="0" style="stop-opacity:1; stop-color:#EBECEC"/>
   <stop offset="1" style="stop-opacity:1; stop-color:#898989"/>
  </linearGradient>
 </defs>
 <g id="Слой_x0020_1">
  <metadata id="CorelCorpID_0Corel-Layer"/>
  <path class="fil0" d="M28.83 0l467.92 0c15.88,0 28.82,12.97 28.82,28.83l0 80.27c0,15.86 -12.97,28.82 -28.82,28.82l-467.92 0c-15.86,0 -28.83,-12.95 -28.83,-28.82l0 -80.27c0,-15.88 12.95,-28.83 28.83,-28.83z"/>
  <path class="fil1" d="M91.62 64.13c-0.22,0 -0.4,0.23 -0.41,0.53 -0,0.09 -0.01,0.18 -0.01,0.28 -0.01,0.31 0.16,0.55 0.38,0.55 0.43,-0 0.84,0 1.27,-0 0.23,-0 0.42,-0.26 0.42,-0.57 -0,-0.1 -0,-0.19 0,-0.28 0.01,-0.3 -0.18,-0.53 -0.41,-0.52 -0.42,0.01 -0.83,0.03 -1.24,0.03zm-0.09 2.75c-0.22,0 -0.43,0.26 -0.44,0.55 -0,0.11 -0.01,0.2 -0.02,0.29 -0.02,0.31 0.16,0.57 0.4,0.57 0.46,-0.01 0.9,-0.01 1.34,-0.02 0.24,-0 0.43,-0.27 0.43,-0.57 0,-0.09 0,-0.19 0,-0.29 0,-0.3 -0.19,-0.55 -0.42,-0.55 -0.43,0 -0.86,0.02 -1.3,0.03l0 0zm-0.15 2.87c-0.25,0.01 -0.47,0.26 -0.5,0.61 -0.01,0.1 -0.01,0.2 -0.02,0.29 -0.03,0.34 0.14,0.61 0.4,0.61 0.47,0 0.93,-0.01 1.39,-0 0.25,0 0.48,-0.29 0.49,-0.61 0,-0.1 0.02,-0.21 0.02,-0.32 0.01,-0.32 -0.16,-0.62 -0.42,-0.61 -0.46,0 -0.9,0.02 -1.37,0.03l0 0zm-0.23 3.04c-0.27,-0 -0.49,0.27 -0.52,0.6 -0.01,0.11 -0.02,0.22 -0.04,0.33 -0.04,0.33 0.12,0.64 0.39,0.64 0.49,0.01 0.96,0.01 1.45,0.01 0.27,0 0.52,-0.29 0.54,-0.64 0.01,-0.11 0.02,-0.21 0.03,-0.32 0.02,-0.35 -0.18,-0.61 -0.44,-0.62 -0.48,-0.01 -0.95,-0.01 -1.42,-0.01l0 0zm-0.36 3.19c-0.27,-0.01 -0.51,0.27 -0.56,0.64 -0.01,0.11 -0.03,0.21 -0.05,0.33 -0.04,0.37 0.14,0.66 0.41,0.67 0.5,0.02 1.02,0.04 1.53,0.05 0.26,0.01 0.53,-0.28 0.57,-0.65 0.01,-0.11 0.02,-0.22 0.03,-0.34 0.03,-0.35 -0.16,-0.66 -0.43,-0.66 -0.51,-0.01 -1,-0.03 -1.5,-0.04l0 0zm-0.41 3.3c-0.28,-0.01 -0.56,0.29 -0.61,0.67 -0.02,0.11 -0.03,0.23 -0.05,0.34 -0.06,0.38 0.12,0.68 0.4,0.7 0.52,0.03 1.04,0.06 1.58,0.1 0.29,0.02 0.56,-0.28 0.61,-0.66 0.02,-0.12 0.03,-0.23 0.05,-0.35 0.05,-0.39 -0.15,-0.72 -0.43,-0.73 -0.53,-0.02 -1.05,-0.05 -1.56,-0.07l0 0zm-0.52 3.44c-0.28,-0.02 -0.57,0.28 -0.63,0.66 -0.02,0.12 -0.04,0.23 -0.06,0.35 -0.06,0.38 0.12,0.72 0.42,0.75 0.54,0.05 1.08,0.1 1.64,0.15 0.31,0.03 0.6,-0.28 0.65,-0.66 0.02,-0.13 0.03,-0.23 0.05,-0.36 0.05,-0.39 -0.16,-0.73 -0.47,-0.76 -0.55,-0.04 -1.07,-0.08 -1.61,-0.12l0 0zm-0.61 3.53c-0.3,-0.04 -0.6,0.28 -0.69,0.67 -0.03,0.12 -0.04,0.24 -0.07,0.37 -0.08,0.38 0.12,0.74 0.43,0.78 0.57,0.07 1.14,0.15 1.71,0.21 0.32,0.04 0.62,-0.26 0.68,-0.67 0.02,-0.12 0.04,-0.24 0.06,-0.37 0.07,-0.41 -0.13,-0.77 -0.44,-0.8 -0.58,-0.06 -1.12,-0.12 -1.68,-0.19l0 0zm-0.67 3.64c-0.32,-0.05 -0.65,0.23 -0.74,0.64 -0.03,0.11 -0.06,0.24 -0.09,0.36 -0.1,0.4 0.12,0.79 0.44,0.84 0.6,0.09 1.2,0.21 1.79,0.3 0.31,0.05 0.65,-0.26 0.73,-0.68 0.03,-0.12 0.05,-0.25 0.07,-0.38 0.08,-0.42 -0.13,-0.8 -0.45,-0.84 -0.59,-0.08 -1.16,-0.16 -1.75,-0.24l0 0zm-0.78 3.69c-0.34,-0.06 -0.69,0.21 -0.77,0.63 -0.02,0.12 -0.05,0.23 -0.08,0.36 -0.09,0.41 0.12,0.81 0.46,0.88 0.62,0.13 1.24,0.25 1.86,0.38 0.34,0.07 0.68,-0.23 0.75,-0.65 0.03,-0.13 0.05,-0.25 0.07,-0.38 0.07,-0.43 -0.14,-0.82 -0.47,-0.88 -0.61,-0.11 -1.21,-0.21 -1.82,-0.33l0 0zm-0.83 3.74c-0.36,-0.08 -0.72,0.18 -0.82,0.6 -0.03,0.13 -0.06,0.25 -0.09,0.37 -0.1,0.41 0.11,0.82 0.46,0.9 0.63,0.15 1.29,0.31 1.94,0.47 0.35,0.09 0.72,-0.21 0.8,-0.63 0.02,-0.13 0.05,-0.26 0.08,-0.39 0.1,-0.43 -0.12,-0.83 -0.48,-0.91 -0.63,-0.14 -1.26,-0.28 -1.89,-0.41l0 0zm-0.9 3.76c-0.37,-0.1 -0.75,0.15 -0.86,0.58 -0.03,0.13 -0.07,0.25 -0.1,0.37 -0.11,0.4 0.1,0.83 0.48,0.94 0.64,0.17 1.31,0.36 1.99,0.55 0.38,0.11 0.77,-0.17 0.86,-0.58 0.03,-0.13 0.06,-0.26 0.09,-0.39 0.09,-0.43 -0.12,-0.84 -0.49,-0.94 -0.67,-0.18 -1.33,-0.35 -1.97,-0.52l0 0zm5.53 -39.47c-0.21,0 -0.38,0.22 -0.39,0.5 0,0.08 0.01,0.16 0.01,0.25 -0,0.28 0.18,0.51 0.39,0.51 0.41,-0 0.81,-0.01 1.2,-0.01 0.23,0 0.4,-0.23 0.38,-0.5 -0,-0.08 -0.01,-0.17 -0.02,-0.26 -0.02,-0.26 -0.21,-0.49 -0.41,-0.49 -0.39,0.01 -0.79,0 -1.17,0l0 0zm-13.05 2.67c-0.18,0 -0.42,0.24 -0.54,0.55 -0.03,0.09 -0.07,0.18 -0.11,0.27 -0.12,0.3 -0.06,0.55 0.13,0.55 0.35,-0 0.7,-0 1.06,-0 0.19,0 0.45,-0.26 0.56,-0.56 0.03,-0.09 0.07,-0.17 0.09,-0.26 0.11,-0.31 0.03,-0.54 -0.16,-0.54 -0.35,0 -0.69,0 -1.04,0.01l0 0zm-1.05 2.72c-0.2,0 -0.46,0.25 -0.58,0.55 -0.04,0.1 -0.07,0.19 -0.11,0.27 -0.11,0.3 -0.05,0.54 0.16,0.54 0.37,0 0.74,0.01 1.1,0 0.22,-0 0.48,-0.26 0.59,-0.55 0.03,-0.09 0.06,-0.19 0.1,-0.28 0.11,-0.3 0.03,-0.55 -0.17,-0.55 -0.36,0 -0.73,0 -1.08,0.01l0 0zm-1.12 2.75c-0.21,-0 -0.49,0.24 -0.63,0.54 -0.04,0.09 -0.09,0.19 -0.13,0.28 -0.14,0.29 -0.07,0.54 0.14,0.54 0.4,0 0.78,0.02 1.19,0.02 0.21,0 0.48,-0.25 0.61,-0.56 0.03,-0.08 0.07,-0.17 0.12,-0.27 0.13,-0.31 0.06,-0.56 -0.15,-0.56 -0.39,-0 -0.77,0.01 -1.14,0.01l0 0zm-1.23 2.74c-0.22,-0 -0.51,0.23 -0.65,0.54 -0.04,0.09 -0.09,0.18 -0.14,0.27 -0.16,0.3 -0.1,0.54 0.14,0.55 0.4,0.02 0.81,0.03 1.23,0.04 0.23,0.01 0.54,-0.24 0.68,-0.54 0.04,-0.09 0.08,-0.17 0.12,-0.28 0.12,-0.31 0.04,-0.56 -0.19,-0.56 -0.4,-0.01 -0.81,-0.02 -1.2,-0.02l0 0zm-1.34 2.74c-0.22,-0 -0.54,0.23 -0.69,0.53 -0.05,0.09 -0.09,0.19 -0.14,0.28 -0.16,0.3 -0.1,0.54 0.15,0.55 0.43,0.02 0.86,0.05 1.29,0.08 0.25,0.02 0.56,-0.23 0.69,-0.54 0.04,-0.09 0.09,-0.19 0.14,-0.29 0.15,-0.3 0.06,-0.56 -0.17,-0.56 -0.42,-0.01 -0.84,-0.04 -1.26,-0.05l0 0zm-1.4 2.74c-0.23,-0.01 -0.57,0.22 -0.74,0.5 -0.06,0.1 -0.11,0.19 -0.15,0.27 -0.17,0.31 -0.11,0.56 0.13,0.57 0.46,0.03 0.89,0.07 1.36,0.11 0.26,0.02 0.57,-0.22 0.74,-0.52 0.05,-0.08 0.1,-0.17 0.15,-0.27 0.15,-0.3 0.09,-0.57 -0.17,-0.58 -0.44,-0.03 -0.89,-0.05 -1.32,-0.08l0 0zm-1.52 2.72c-0.25,-0.03 -0.61,0.2 -0.78,0.5 -0.05,0.09 -0.09,0.18 -0.14,0.26 -0.17,0.31 -0.12,0.55 0.13,0.58 0.47,0.05 0.94,0.11 1.42,0.15 0.26,0.03 0.62,-0.19 0.77,-0.51 0.04,-0.09 0.09,-0.18 0.14,-0.27 0.17,-0.31 0.08,-0.57 -0.18,-0.6 -0.45,-0.05 -0.92,-0.07 -1.37,-0.11l0 0zm-1.62 2.67c-0.26,-0.03 -0.63,0.19 -0.82,0.49 -0.05,0.08 -0.09,0.17 -0.15,0.26 -0.19,0.29 -0.13,0.56 0.14,0.6 0.49,0.07 0.98,0.12 1.47,0.19 0.28,0.04 0.65,-0.17 0.83,-0.48 0.06,-0.1 0.11,-0.18 0.16,-0.27 0.17,-0.31 0.1,-0.59 -0.16,-0.62 -0.49,-0.05 -0.97,-0.12 -1.45,-0.18l0 0zm-1.69 2.67c-0.27,-0.04 -0.66,0.16 -0.86,0.44 -0.07,0.09 -0.12,0.17 -0.18,0.26 -0.2,0.29 -0.14,0.55 0.13,0.6 0.51,0.08 1.02,0.17 1.53,0.26 0.29,0.05 0.68,-0.15 0.88,-0.45 0.05,-0.08 0.11,-0.17 0.17,-0.26 0.19,-0.31 0.11,-0.57 -0.16,-0.61 -0.51,-0.07 -1.01,-0.16 -1.51,-0.24l0 0zm-1.83 2.59c-0.28,-0.05 -0.68,0.13 -0.88,0.42 -0.06,0.09 -0.12,0.17 -0.18,0.25 -0.2,0.27 -0.14,0.55 0.15,0.61 0.53,0.1 1.05,0.21 1.58,0.32 0.3,0.06 0.69,-0.13 0.89,-0.41 0.06,-0.08 0.12,-0.17 0.18,-0.26 0.19,-0.3 0.11,-0.57 -0.19,-0.63 -0.52,-0.09 -1.04,-0.2 -1.55,-0.3l0 0zm-1.88 2.55c-0.3,-0.06 -0.72,0.1 -0.94,0.38 -0.07,0.09 -0.14,0.17 -0.21,0.25 -0.21,0.26 -0.15,0.55 0.15,0.62 0.56,0.13 1.1,0.26 1.65,0.39 0.3,0.07 0.72,-0.1 0.93,-0.38 0.06,-0.09 0.13,-0.18 0.19,-0.27 0.2,-0.28 0.14,-0.57 -0.17,-0.64 -0.55,-0.12 -1.08,-0.24 -1.61,-0.35l0 0zm-1.96 2.5c-0.3,-0.07 -0.72,0.09 -0.95,0.35 -0.08,0.09 -0.14,0.16 -0.22,0.25 -0.23,0.25 -0.17,0.54 0.15,0.62 0.55,0.15 1.11,0.31 1.68,0.46 0.32,0.09 0.77,-0.06 0.99,-0.33 0.06,-0.08 0.13,-0.17 0.2,-0.26 0.22,-0.28 0.13,-0.58 -0.18,-0.66 -0.56,-0.14 -1.13,-0.3 -1.68,-0.43l0 0zm-2.08 2.4c-0.31,-0.09 -0.76,0.05 -0.99,0.31 -0.08,0.08 -0.14,0.16 -0.21,0.24 -0.23,0.26 -0.16,0.54 0.16,0.64 0.57,0.18 1.16,0.35 1.76,0.53 0.32,0.1 0.77,-0.05 0.99,-0.32 0.06,-0.07 0.13,-0.16 0.19,-0.24 0.22,-0.27 0.14,-0.57 -0.18,-0.67 -0.58,-0.17 -1.16,-0.33 -1.73,-0.5l0 0zm-2.12 2.34c-0.33,-0.11 -0.8,0.02 -1.04,0.26 -0.08,0.08 -0.16,0.15 -0.23,0.22 -0.25,0.25 -0.17,0.53 0.17,0.65 0.59,0.2 1.19,0.42 1.81,0.63 0.34,0.11 0.8,-0 1.04,-0.28 0.06,-0.07 0.14,-0.14 0.21,-0.22 0.24,-0.27 0.16,-0.56 -0.17,-0.67 -0.6,-0.2 -1.2,-0.38 -1.78,-0.58l0 0zm-2.23 2.25c-0.33,-0.12 -0.8,-0.01 -1.04,0.22 -0.08,0.08 -0.15,0.16 -0.22,0.22 -0.27,0.25 -0.2,0.52 0.15,0.65 0.61,0.22 1.23,0.46 1.87,0.7 0.35,0.14 0.84,0.05 1.08,-0.2 0.08,-0.08 0.15,-0.16 0.23,-0.24 0.24,-0.25 0.14,-0.57 -0.21,-0.69 -0.61,-0.22 -1.23,-0.44 -1.85,-0.66l0 0zm-2.28 2.15c-0.35,-0.13 -0.84,-0.06 -1.1,0.17 -0.07,0.06 -0.15,0.13 -0.23,0.2 -0.26,0.23 -0.19,0.53 0.16,0.67 0.64,0.25 1.29,0.51 1.94,0.78 0.36,0.15 0.85,0.06 1.1,-0.18 0.07,-0.07 0.15,-0.14 0.23,-0.21 0.25,-0.25 0.17,-0.57 -0.2,-0.71 -0.64,-0.25 -1.27,-0.48 -1.89,-0.72l0 0zm-2.33 2.05c-0.35,-0.15 -0.87,-0.09 -1.15,0.12 -0.08,0.06 -0.16,0.13 -0.23,0.19 -0.28,0.22 -0.2,0.51 0.16,0.67 0.65,0.27 1.32,0.58 1.99,0.86 0.37,0.15 0.89,0.11 1.15,-0.12 0.08,-0.07 0.15,-0.14 0.23,-0.21 0.26,-0.23 0.18,-0.54 -0.18,-0.69 -0.67,-0.28 -1.31,-0.56 -1.96,-0.82l0 0zm-2.43 1.93c-0.36,-0.16 -0.88,-0.12 -1.15,0.1 -0.08,0.06 -0.16,0.11 -0.24,0.18 -0.26,0.21 -0.18,0.51 0.18,0.68 0.68,0.31 1.36,0.61 2.05,0.93 0.39,0.18 0.92,0.16 1.16,-0.07 0.08,-0.07 0.16,-0.13 0.23,-0.19 0.27,-0.22 0.16,-0.55 -0.22,-0.72 -0.68,-0.3 -1.35,-0.61 -2.02,-0.91l0 0zm-2.46 1.82c-0.38,-0.18 -0.9,-0.15 -1.19,0.04 -0.09,0.06 -0.17,0.11 -0.25,0.17 -0.28,0.18 -0.19,0.49 0.19,0.67 0.69,0.34 1.39,0.67 2.1,1 0.4,0.19 0.94,0.18 1.2,-0.01 0.08,-0.06 0.17,-0.11 0.25,-0.18 0.27,-0.21 0.17,-0.51 -0.23,-0.7 -0.7,-0.33 -1.38,-0.67 -2.07,-0.99l0 0zm33.51 -47.03c-0.18,0 -0.4,0.23 -0.51,0.53 -0.03,0.09 -0.06,0.18 -0.1,0.27 -0.1,0.29 -0.04,0.54 0.15,0.54 0.32,-0 0.66,0.01 0.99,0.01 0.18,-0 0.42,-0.26 0.51,-0.55 0.03,-0.09 0.05,-0.18 0.08,-0.27 0.1,-0.29 0.02,-0.53 -0.16,-0.53 -0.33,0 -0.65,-0 -0.97,0l0 0zm14.56 -0.31c0.26,14.52 -1.23,29.05 -4.17,43.24 -0.82,0.4 -1.64,0.77 -2.47,1.14 -0.08,-0.08 -0.18,-0.15 -0.29,-0.18 -0.68,-0.21 -1.36,-0.41 -2.04,-0.62 -0.37,-0.11 -0.78,0.14 -0.89,0.56 -0.03,0.13 -0.07,0.24 -0.11,0.38 -0.11,0.4 0.09,0.85 0.48,0.97l0.11 0.04c-9.19,3.65 -19.1,5.62 -29.06,5.81 -3.32,0.06 -6.64,-0.07 -9.94,-0.39 0.06,-0.04 0.11,-0.07 0.17,-0.11 0.29,-0.18 0.18,-0.5 -0.22,-0.7 -0.72,-0.36 -1.42,-0.72 -2.13,-1.06 -0.39,-0.19 -0.93,-0.21 -1.22,-0.04 -0.09,0.05 -0.17,0.1 -0.27,0.16 -0.28,0.17 -0.2,0.46 0.2,0.66 0.6,0.3 1.2,0.6 1.81,0.91 -1.94,-0.23 -3.87,-0.53 -5.79,-0.9 19.76,-11.85 30.86,-26.26 40.19,-49.76l-12.49 5.43c6.84,-16.63 13.68,-33.27 20.52,-49.9 6.84,16.63 13.68,33.27 20.52,49.9l-12.91 -5.53 0 0z"/>
  <path class="fil2" d="M33.41 112.02c31.81,10.87 70.29,3.24 92.73,-22.28l-5.9 -5.29c-19.77,25.94 -55.57,35.63 -86.83,27.57z"/>
  <polygon class="fil2" points="172.18,76.1 162.81,59.42 159.38,63.36 159.38,76.1 149.5,76.1 149.5,35.43 159.38,35.43 159.38,49.83 171.15,35.43 183.37,35.43 169.49,51.88 183.83,76.1 "/>
  <polygon class="fil2" points="187.94,76.1 197.88,76.1 197.88,35.43 187.94,35.43 "/>
  <polygon class="fil2" points="229.13,76.1 216.1,55.65 216.1,76.1 206.16,76.1 206.16,35.43 214.9,35.43 227.93,55.88 227.93,35.43 237.87,35.43 237.87,76.1 "/>
  <path class="fil2" d="M265.8 55.77c0,-1.87 -0.04,-3.38 -0.11,-4.54 -0.08,-1.16 -0.17,-2.1 -0.29,-2.8 -0.11,-0.7 -0.27,-1.25 -0.46,-1.63 -0.2,-0.38 -0.41,-0.72 -0.64,-1.03 -0.38,-0.5 -0.91,-0.92 -1.61,-1.26 -0.69,-0.34 -1.49,-0.51 -2.41,-0.51 -0.91,0 -1.72,0.17 -2.41,0.51 -0.7,0.34 -1.23,0.76 -1.61,1.26 -0.23,0.3 -0.44,0.65 -0.64,1.03 -0.19,0.38 -0.34,0.92 -0.46,1.63 -0.11,0.7 -0.21,1.64 -0.29,2.8 -0.08,1.16 -0.11,2.68 -0.11,4.54 0,1.87 0.04,3.37 0.11,4.51 0.08,1.14 0.17,2.06 0.29,2.77 0.11,0.7 0.27,1.25 0.46,1.63 0.2,0.38 0.41,0.72 0.64,1.03 0.38,0.49 0.91,0.92 1.61,1.29 0.68,0.36 1.49,0.54 2.41,0.54 0.92,0 1.72,-0.18 2.41,-0.54 0.69,-0.36 1.23,-0.79 1.61,-1.29 0.23,-0.3 0.44,-0.65 0.64,-1.03 0.19,-0.38 0.34,-0.92 0.46,-1.63 0.11,-0.71 0.21,-1.63 0.29,-2.77 0.08,-1.14 0.11,-2.65 0.11,-4.51zm-5.72 20.68l0.41 0c2.43,-0.02 4.5,-0.41 6.24,-1.17 1.78,-0.78 3.42,-1.91 4.9,-3.4 1.07,-1.07 1.88,-2.22 2.45,-3.46 0.57,-1.24 0.98,-2.54 1.23,-3.91 0.25,-1.37 0.38,-2.79 0.4,-4.26 0.02,-1.46 0.03,-2.96 0.03,-4.48l0 0c0,-1.52 -0.01,-3.02 -0.03,-4.48 -0.02,-1.47 -0.15,-2.88 -0.4,-4.25 -0.25,-1.37 -0.66,-2.68 -1.23,-3.91 -0.57,-1.24 -1.38,-2.39 -2.45,-3.46 -1.48,-1.48 -3.12,-2.62 -4.9,-3.4 -1.79,-0.78 -3.93,-1.17 -6.44,-1.17 -2.5,0 -4.65,0.39 -6.45,1.17 -1.78,0.78 -3.42,1.91 -4.9,3.4 -1.07,1.07 -1.88,2.22 -2.45,3.46 -0.57,1.24 -0.98,2.54 -1.23,3.91 -0.25,1.37 -0.38,2.79 -0.4,4.25 -0.02,1.47 -0.03,2.96 -0.03,4.48 0,1.52 0.01,3.02 0.03,4.48 0.02,1.47 0.15,2.88 0.4,4.26 0.25,1.37 0.66,2.67 1.23,3.91 0.57,1.24 1.38,2.39 2.45,3.46 1.48,1.48 3.12,2.62 4.9,3.4 1.74,0.76 3.82,1.15 6.24,1.17z"/>
  <path class="fil2" d="M302.7 48.51c0,-1.05 -0.38,-1.99 -1.15,-2.82 -0.76,-0.83 -1.84,-1.24 -3.22,-1.24l-5.68 0 0 8.11 5.68 0c1.38,0 2.46,-0.41 3.22,-1.24 0.77,-0.83 1.15,-1.77 1.15,-2.82zm9.94 0c0,1.68 -0.31,3.3 -0.91,4.86 -0.61,1.56 -1.49,2.95 -2.66,4.17 -1.16,1.22 -2.61,2.2 -4.34,2.94 -1.73,0.74 -3.72,1.11 -5.97,1.11l-6.11 0 0 14.51 -9.94 0 0 -40.67 16.08 0c2.24,0 4.23,0.37 5.96,1.11 1.72,0.74 3.17,1.72 4.33,2.94 1.15,1.22 2.04,2.61 2.65,4.17 0.61,1.56 0.91,3.18 0.91,4.85l0 0z"/>
  <path class="fil2" d="M338.51 48.57c0,-1.07 -0.38,-2.02 -1.15,-2.86 -0.76,-0.84 -1.84,-1.26 -3.22,-1.26l-5.68 0 0 8.23 5.68 0c1.38,0 2.46,-0.42 3.22,-1.26 0.77,-0.84 1.15,-1.79 1.15,-2.86zm0.53 27.53l-7.16 -15.14 -3.43 0 0 15.14 -9.94 0 0 -40.67 16.08 0c2.24,0 4.23,0.37 5.96,1.11 1.72,0.74 3.17,1.72 4.33,2.94 1.15,1.22 2.04,2.61 2.65,4.17 0.61,1.56 0.91,3.18 0.91,4.85 0,1.37 -0.2,2.63 -0.6,3.77 -0.4,1.14 -0.91,2.15 -1.54,3.03 -0.63,0.88 -1.33,1.64 -2.11,2.28 -0.78,0.65 -1.57,1.16 -2.37,1.54l8.8 16.97 -11.58 0 0 0z"/>
  <path class="fil2" d="M375.41 55.77c0,-1.87 -0.04,-3.38 -0.11,-4.54 -0.08,-1.16 -0.17,-2.1 -0.29,-2.8 -0.11,-0.7 -0.27,-1.25 -0.46,-1.63 -0.2,-0.38 -0.41,-0.72 -0.64,-1.03 -0.38,-0.5 -0.91,-0.92 -1.61,-1.26 -0.69,-0.34 -1.48,-0.51 -2.41,-0.51 -0.91,0 -1.72,0.17 -2.41,0.51 -0.69,0.34 -1.23,0.76 -1.61,1.26 -0.23,0.3 -0.44,0.65 -0.64,1.03 -0.19,0.38 -0.34,0.92 -0.46,1.63 -0.11,0.7 -0.21,1.64 -0.29,2.8 -0.08,1.16 -0.11,2.68 -0.11,4.54 0,1.87 0.04,3.37 0.11,4.51 0.08,1.14 0.17,2.06 0.29,2.77 0.12,0.7 0.27,1.25 0.46,1.63 0.2,0.38 0.41,0.72 0.64,1.03 0.38,0.49 0.92,0.92 1.61,1.29 0.69,0.36 1.49,0.54 2.41,0.54 0.92,0 1.72,-0.18 2.41,-0.54 0.7,-0.36 1.23,-0.79 1.61,-1.29 0.23,-0.3 0.44,-0.65 0.64,-1.03 0.19,-0.38 0.34,-0.92 0.46,-1.63 0.12,-0.71 0.21,-1.63 0.29,-2.77 0.08,-1.14 0.11,-2.65 0.11,-4.51zm-5.72 20.68l0.41 0c2.42,-0.02 4.5,-0.41 6.24,-1.17 1.78,-0.78 3.42,-1.91 4.9,-3.4 1.07,-1.07 1.87,-2.22 2.45,-3.46 0.57,-1.24 0.98,-2.54 1.23,-3.91 0.25,-1.37 0.38,-2.79 0.4,-4.26 0.02,-1.46 0.03,-2.96 0.03,-4.48l0 0c0,-1.52 -0.01,-3.02 -0.03,-4.48 -0.02,-1.47 -0.15,-2.88 -0.4,-4.25 -0.25,-1.37 -0.66,-2.68 -1.23,-3.91 -0.57,-1.24 -1.38,-2.39 -2.45,-3.46 -1.49,-1.48 -3.12,-2.62 -4.9,-3.4 -1.79,-0.78 -3.93,-1.17 -6.44,-1.17 -2.5,0 -4.65,0.39 -6.44,1.17 -1.78,0.78 -3.42,1.91 -4.9,3.4 -1.07,1.07 -1.88,2.22 -2.45,3.46 -0.57,1.24 -0.98,2.54 -1.23,3.91 -0.25,1.37 -0.38,2.79 -0.4,4.25 -0.02,1.47 -0.03,2.96 -0.03,4.48 0,1.52 0.01,3.02 0.03,4.48 0.02,1.47 0.15,2.88 0.4,4.26 0.25,1.37 0.66,2.67 1.23,3.91 0.57,1.24 1.38,2.39 2.45,3.46 1.48,1.48 3.12,2.62 4.9,3.4 1.74,0.76 3.82,1.15 6.24,1.17z"/>
  <polygon class="fil2" points="414.99,76.1 405.63,59.42 402.2,63.36 402.2,76.1 392.32,76.1 392.32,35.43 402.2,35.43 402.2,49.83 413.97,35.43 426.19,35.43 412.31,51.88 426.65,76.1 "/>
  <path class="fil2" d="M445.55 50.91l-3.66 10.85 7.08 0 -3.43 -10.85zm7.94 25.19l-1.89 -6.06 -12.51 0 -2 6.06 -10.45 0 14.79 -40.67 7.71 0 14.79 40.67 -10.45 0 0 0z"/>
  <polygon class="fil2" points="482.17,44.34 482.17,76.1 472.23,76.1 472.23,44.34 462.23,44.34 462.23,35.43 492.16,35.43 492.16,44.34 "/>
  <path class="fil3" d="M166.78 102.77l0 -3.91 -8.67 0 0 2.25 6.05 0 0 1.9c0,1.87 -0.38,3.21 -1.38,4.46 -1.14,1.38 -2.87,2.11 -4.67,2.11 -1.7,0 -3.15,-0.59 -4.25,-1.73 -1.55,-1.59 -1.73,-3.39 -1.73,-8.44 0,-5.05 0.17,-6.84 1.73,-8.43 1.11,-1.14 2.56,-1.73 4.25,-1.73 3.08,0 5.29,1.87 5.98,5.01l2.63 0c-0.69,-4.25 -3.97,-7.36 -8.61,-7.36 -2.56,0 -4.63,0.9 -6.15,2.42 -2.31,2.31 -2.45,4.46 -2.45,10.09 0,5.64 0.14,7.78 2.45,10.1 1.52,1.52 3.6,2.42 6.15,2.42 2.52,0 4.84,-0.93 6.57,-2.84 1.59,-1.76 2.11,-3.49 2.11,-6.32zm23.33 8.95l-5.84 -11.17c3.18,-0.66 5.36,-3.01 5.36,-6.6 0,-4.25 -3.01,-6.84 -7.29,-6.84l-9.44 0 0 24.61 2.63 0 0 -10.92 5.91 0 5.6 10.92 3.08 0zm-3.11 -17.73c0,3.01 -2.04,4.49 -4.91,4.49l-6.57 0 0 -9.02 6.57 0c2.87,0 4.91,1.52 4.91,4.53zm24.68 5.43c0,-5.63 -0.17,-7.78 -2.49,-10.09 -1.52,-1.52 -3.56,-2.42 -6.12,-2.42 -2.56,0 -4.63,0.9 -6.15,2.42 -2.31,2.31 -2.45,4.46 -2.45,10.09 0,5.64 0.14,7.78 2.45,10.1 1.52,1.52 3.6,2.42 6.15,2.42 2.56,0 4.6,-0.9 6.12,-2.42 2.32,-2.32 2.49,-4.46 2.49,-10.1zm-2.63 0c0,5.05 -0.17,6.85 -1.73,8.44 -1.14,1.14 -2.59,1.73 -4.25,1.73 -1.66,0 -3.11,-0.59 -4.25,-1.73 -1.55,-1.59 -1.73,-3.39 -1.73,-8.44 0,-5.05 0.17,-6.84 1.73,-8.43 1.14,-1.14 2.59,-1.73 4.25,-1.73 1.66,0 3.11,0.59 4.25,1.73 1.55,1.59 1.73,3.39 1.73,8.43zm25.65 4.18l0 -16.49 -2.63 0 0 16.28c0,3.73 -2.39,6.19 -5.98,6.19 -3.6,0 -5.95,-2.46 -5.95,-6.19l0 -16.28 -2.63 0 0 16.49c0,4.91 3.59,8.33 8.57,8.33 4.98,0 8.61,-3.42 8.61,-8.33zm23.54 -9.26c0,-4.39 -3.15,-7.22 -7.61,-7.22l-9.16 0 0 24.61 2.63 0 0 -10.13 6.53 0c4.46,0 7.61,-2.87 7.61,-7.26zm-2.63 0c0,3.25 -2.11,4.91 -5.19,4.91l-6.32 0 0 -9.78 6.32 0c3.08,0 5.19,1.62 5.19,4.87z"/>
 </g>
</svg>
