<?xml version="1.0" encoding="UTF-8"?>
<!DOCTYPE svg PUBLIC "-//W3C//DTD SVG 1.1//EN" "http://www.w3.org/Graphics/SVG/1.1/DTD/svg11.dtd">
<!-- Creator: CorelDRAW 2021 (64-Bit) -->
<svg xmlns="http://www.w3.org/2000/svg" xml:space="preserve" width="35.7836mm" height="28.5079mm" version="1.1" style="shape-rendering:geometricPrecision; text-rendering:geometricPrecision; image-rendering:optimizeQuality; fill-rule:evenodd; clip-rule:evenodd"
viewBox="0 0 333.56 265.74"
 xmlns:xlink="http://www.w3.org/1999/xlink"
 xmlns:xodm="http://www.corel.com/coreldraw/odm/2003">
 <defs>
  <style type="text/css">
   <![CDATA[
    .fil20 {fill:none}
    .fil30 {fill:none}
    .fil4 {fill:#FEFEFE}
    .fil19 {fill:white;fill-rule:nonzero;fill-opacity:0.211765}
    .fil18 {fill:#7C9CAF;fill-rule:nonzero;fill-opacity:0.309804}
    .fil0 {fill:#2B2A29;fill-opacity:0.549020}
    .fil29 {fill:#FEFEFE}
    .fil17 {fill:url(#id1)}
    .fil3 {fill:url(#id2)}
    .fil8 {fill:url(#id3)}
    .fil15 {fill:url(#id4)}
    .fil16 {fill:url(#id5)}
    .fil6 {fill:url(#id6);fill-opacity:0.450980}
    .fil11 {fill:url(#id7);fill-opacity:0.450980}
    .fil7 {fill:url(#id8);fill-opacity:0.450980}
    .fil24 {fill:url(#id9);fill-opacity:0.501961}
    .fil25 {fill:url(#id10);fill-opacity:0.501961}
    .fil22 {fill:url(#id11);fill-opacity:0.501961}
    .fil26 {fill:url(#id12);fill-opacity:0.501961}
    .fil21 {fill:url(#id13);fill-opacity:0.501961}
    .fil27 {fill:url(#id14);fill-opacity:0.501961}
    .fil23 {fill:url(#id15);fill-opacity:0.501961}
    .fil5 {fill:url(#id16);fill-opacity:0.549020}
    .fil1 {fill:url(#id17);fill-opacity:0.549020}
    .fil9 {fill:url(#id18);fill-opacity:0.549020}
    .fil2 {fill:url(#id19);fill-opacity:0.549020}
    .fil12 {fill:url(#id20);fill-opacity:0.701961}
    .fil13 {fill:url(#id21);fill-opacity:0.701961}
    .fil14 {fill:url(#id22);fill-opacity:0.701961}
    .fil10 {fill:url(#id23);fill-opacity:0.721569}
    .fil28 {fill:url(#id24)}
   ]]>
  </style>
    <clipPath id="id0">
     <path d="M-0 0l333.56 0 0 265.74 -333.56 0 0 -265.74z"/>
    </clipPath>
  <linearGradient id="id1" gradientUnits="userSpaceOnUse" x1="160.33" y1="214.54" x2="165.86" y2="19.02">
   <stop offset="0" style="stop-opacity:1; stop-color:#727271"/>
   <stop offset="1" style="stop-opacity:1; stop-color:#FEFEFE"/>
  </linearGradient>
  <radialGradient id="id2" gradientUnits="userSpaceOnUse" gradientTransform="matrix(0.0741237 1.32598 -1.99379 0.309605 114 -76)" cx="70.34" cy="24.49" r="60.67" fx="70.34" fy="24.49">
   <stop offset="0" style="stop-opacity:1; stop-color:#898989"/>
   <stop offset="1" style="stop-opacity:1; stop-color:#2B2A29"/>
  </radialGradient>
  <radialGradient id="id3" gradientUnits="userSpaceOnUse" gradientTransform="matrix(-0.099513 0.837565 -1.97502 0.455607 489 -96)" xlink:href="#id2" cx="202.08" cy="134.95" r="134.57" fx="202.08" fy="134.95">
  </radialGradient>
  <radialGradient id="id4" gradientUnits="userSpaceOnUse" gradientTransform="matrix(0.00714305 0.795872 -1.79451 0.663527 299 -172)" xlink:href="#id2" cx="232.45" cy="37.91" r="104.05" fx="232.45" fy="37.91">
  </radialGradient>
  <radialGradient id="id5" gradientUnits="userSpaceOnUse" gradientTransform="matrix(0.628042 1.75582 -2.2632 0.809484 82 -210)" xlink:href="#id2" cx="121.41" cy="16.14" r="124.18" fx="121.41" fy="16.14">
  </radialGradient>
  <radialGradient id="id6" gradientUnits="userSpaceOnUse" gradientTransform="matrix(1.20777 0.011013 -0.296027 0.933575 15 11)" cx="218.92" cy="204.27" r="34.35" fx="218.92" fy="204.27">
   <stop offset="0" style="stop-opacity:1; stop-color:#A12B33"/>
   <stop offset="1" style="stop-opacity:1; stop-color:#3D1E1D"/>
  </radialGradient>
  <radialGradient id="id7" gradientUnits="userSpaceOnUse" gradientTransform="matrix(0.755645 0.197423 -0.0408723 0.906273 17 12)" xlink:href="#id6" cx="34.69" cy="198" r="21.95" fx="34.69" fy="198">
  </radialGradient>
  <radialGradient id="id8" gradientUnits="userSpaceOnUse" gradientTransform="matrix(1.31106 -0.0165556 -0.342941 0.965206 -14 12)" xlink:href="#id6" cx="269.07" cy="203.59" r="28.37" fx="269.07" fy="203.59">
  </radialGradient>
  <radialGradient id="id9" gradientUnits="userSpaceOnUse" gradientTransform="matrix(1.19367 0.217553 -0.133515 1.27433 -8 -41)" xlink:href="#id6" cx="92.86" cy="75.08" r="40.95" fx="92.86" fy="75.08">
  </radialGradient>
  <radialGradient id="id10" gradientUnits="userSpaceOnUse" gradientTransform="matrix(1.04096 0.185619 -0.119552 1.10438 5 -14)" xlink:href="#id6" cx="42.34" cy="57.36" r="38.78" fx="42.34" fy="57.36">
  </radialGradient>
  <radialGradient id="id11" gradientUnits="userSpaceOnUse" gradientTransform="matrix(1.18707 0.260112 -0.0995297 1.34119 -29 -104)" xlink:href="#id6" cx="224.7" cy="133.86" r="37.22" fx="224.7" fy="133.86">
  </radialGradient>
  <radialGradient id="id12" gradientUnits="userSpaceOnUse" gradientTransform="matrix(0.844541 0.16903 -0.0829854 0.927118 7 0)" xlink:href="#id6" cx="19.9" cy="52.33" r="30.01" fx="19.9" fy="52.33">
  </radialGradient>
  <radialGradient id="id13" gradientUnits="userSpaceOnUse" gradientTransform="matrix(1.2565 0.241358 -0.131158 1.36228 -27 -75)" xlink:href="#id6" cx="158.61" cy="101.84" r="39.58" fx="158.61" fy="101.84">
  </radialGradient>
  <radialGradient id="id14" gradientUnits="userSpaceOnUse" gradientTransform="matrix(0.736676 0.207998 -0.026382 0.911009 84 -46)" xlink:href="#id6" cx="299.66" cy="186.01" r="29.5" fx="299.66" fy="186.01">
  </radialGradient>
  <radialGradient id="id15" gradientUnits="userSpaceOnUse" gradientTransform="matrix(0.958941 0.25747 -0.0444321 1.16341 19 -98)" xlink:href="#id6" cx="275.96" cy="163.71" r="34.95" fx="275.96" fy="163.71">
  </radialGradient>
  <radialGradient id="id16" gradientUnits="userSpaceOnUse" gradientTransform="matrix(1.1774 0.0393553 -0.266898 0.958473 25 2)" xlink:href="#id6" cx="157.38" cy="199.51" r="34.88" fx="157.38" fy="199.51">
  </radialGradient>
  <radialGradient id="id17" gradientUnits="userSpaceOnUse" gradientTransform="matrix(1.10248 0.078219 -0.218585 0.967464 6 -4)" xlink:href="#id6" cx="73.5" cy="61.98" r="39.33" fx="73.5" fy="61.98">
  </radialGradient>
  <radialGradient id="id18" gradientUnits="userSpaceOnUse" gradientTransform="matrix(1.21652 0.0626289 -0.259134 1.02749 29 -12)" xlink:href="#id6" cx="99.2" cy="194.92" r="30.32" fx="99.2" fy="194.92">
  </radialGradient>
  <radialGradient id="id19" gradientUnits="userSpaceOnUse" gradientTransform="matrix(1.0423 0.145203 -0.152672 1.03513 7 -5)" xlink:href="#id6" cx="23.72" cy="51.87" r="27.06" fx="23.72" fy="51.87">
  </radialGradient>
  <radialGradient id="id20" gradientUnits="userSpaceOnUse" gradientTransform="matrix(1.33623 -0.152474 -0.188796 1.08282 -69 31)" xlink:href="#id6" cx="253.53" cy="87.76" r="22.21" fx="253.53" fy="87.76">
  </radialGradient>
  <radialGradient id="id21" gradientUnits="userSpaceOnUse" gradientTransform="matrix(1.05879 -0.124931 -0.15362 0.851951 -4 48)" xlink:href="#id6" cx="287.56" cy="82.75" r="23.63" fx="287.56" fy="82.75">
  </radialGradient>
  <radialGradient id="id22" gradientUnits="userSpaceOnUse" gradientTransform="matrix(1.21903 -0.101603 -0.13557 1.04294 -34 17)" xlink:href="#id6" cx="207.64" cy="86.71" r="25.69" fx="207.64" fy="86.71">
  </radialGradient>
  <radialGradient id="id23" gradientUnits="userSpaceOnUse" gradientTransform="matrix(1.28948 0.121113 -0.233213 1.18164 30 -42)" xlink:href="#id6" cx="54.82" cy="194.84" r="21.79" fx="54.82" fy="194.84">
  </radialGradient>
  <radialGradient id="id24" gradientUnits="userSpaceOnUse" gradientTransform="matrix(0.169427 1.51871 -1.87858 0.209556 155 -248)" cx="167.72" cy="8.56" r="135.96" fx="167.72" fy="8.56">
   <stop offset="0" style="stop-opacity:1; stop-color:#5B5B5B"/>
   <stop offset="1" style="stop-opacity:1; stop-color:#2B2A29"/>
  </radialGradient>
 </defs>
 <g id="Слой_x0020_1">
  <metadata id="CorelCorpID_0Corel-Layer"/>
  <g id="_1050090192">
   <g style="clip-path:url(#id0)">
    <image x="-0" y="0" width="333.56" height="265.74" xlink:href="news_Images\news_ImgID1.png"/>
   </g>
  </g>
  <path class="fil0" d="M292.76 243.09l2.14 -0.66c46.27,-121.53 -21.7,56.99 29.91,-78.56 1.08,-5.5 -12.43,-16.89 -34.1,-30.94 0,-4.81 -0.28,-9.65 -0.85,-14.51 4.39,-0.91 7.79,-2.01 10.18,-3.31l21.04 -76.38c-3.45,17.91 -18.71,28.82 -46.49,32.97 -28.86,-51.11 -90.91,-76 -148.41,-56.23 -12.74,4.38 -24.29,10.63 -34.49,18.33 -24.45,-9.01 -43.05,-13.76 -50.14,-11.4l-5.35 12.6 -26.5 62.35c-1.12,2.64 -1.51,3.32 -0.05,6.16 3.48,6.8 16.07,15.28 32.83,24.15 -0.64,15.05 1.47,30.46 6.67,45.57 0.55,1.6 1.14,3.18 1.75,4.75l-1.11 3.72 -1.12 3.72 -13.14 43.76 -1.47 4.89 -2.11 7.03c7.98,-4.55 18.2,-4.73 31.15,-3.16 15.77,1.91 31.23,3.6 46.37,5.17 27.3,14.13 59.77,18.16 91.28,9.1 47.73,4.77 78.4,1.72 92.02,-9.12z"/>
  <path class="fil1" d="M60.33 50.07c14.49,5.51 33.28,11.75 56.35,18.7 0.97,0.29 1.69,0.91 2.11,1.83 0.42,0.92 0.43,1.87 0.03,2.79l-12.87 29.54c-0.66,1.51 -2.26,2.32 -3.87,1.96 -22.46,-5.04 -42.14,-9.13 -58.8,-12.04 -1.06,-0.18 -1.89,-0.78 -2.4,-1.72 -0.51,-0.94 -0.56,-1.96 -0.15,-2.95l15.25 -36.24c0.71,-1.69 2.63,-2.51 4.35,-1.86z"/>
  <path class="fil2" d="M30.44 36.18c4.49,2.97 10.84,6.01 16.35,8.41 1.71,0.75 2.5,2.74 1.77,4.46l-16.25 38.14c-0.92,2.15 -3.09,3.38 -5.41,3.05 -5.95,-0.85 -11.99,-1.57 -17.93,-2.02l21.46 -52.04z"/>
  <path class="fil3" d="M113.43 115.96c17.49,-34.14 18.88,-50.58 18.88,-50.58 -46.53,-13.34 -82.28,-28.86 -97.42,-39.98l-4.45 10.78c4.49,2.97 10.84,6.01 16.35,8.41 1.71,0.75 2.5,2.74 1.77,4.46l-16.25 38.14c-0.92,2.15 -3.09,3.38 -5.41,3.05 -5.95,-0.85 -11.99,-1.57 -17.93,-2.02l-5.76 13.96c12.79,-3.79 57.71,2.56 110.22,13.78zm-53.09 -65.88c14.49,5.51 33.28,11.75 56.35,18.7 0.97,0.29 1.69,0.91 2.11,1.83 0.42,0.92 0.43,1.87 0.03,2.79l-12.87 29.54c-0.66,1.51 -2.26,2.32 -3.87,1.96 -22.46,-5.04 -42.14,-9.13 -58.8,-12.04 -1.06,-0.18 -1.89,-0.78 -2.4,-1.72 -0.51,-0.94 -0.56,-1.96 -0.15,-2.95l15.25 -36.24c0.71,-1.69 2.63,-2.51 4.35,-1.86z"/>
  <path class="fil4" d="M10.43 97.81l2.5 -5.89c-2,-0.05 -3.83,-0.04 -5.5,0.04l-2.53 6.12c1.61,-0.16 3.45,-0.25 5.52,-0.27z"/>
  <path class="fil4" d="M19.2 98.09l2.5 -5.67c2.47,0.21 5.12,0.48 7.93,0.81l-2.58 5.51c-2.81,-0.28 -5.43,-0.5 -7.85,-0.65z"/>
  <path class="fil4" d="M35.99 99.84l2.31 -5.48c2.28,0.33 4.95,0.76 7.42,1.15l-1.99 5.3c-2.55,-0.37 -5.4,-0.68 -7.74,-0.98z"/>
  <path class="fil4" d="M53.23 102.26l1.77 -5.23c2.64,0.46 5.37,0.95 8.18,1.48l-1.69 5.12c-3,-0.51 -5.47,-0.92 -8.26,-1.36z"/>
  <path class="fil4" d="M70.37 105.18l2.06 -4.91c2.56,0.5 5.35,1.12 8.04,1.67l-1.84 4.76c-2.82,-0.53 -5.58,-1.03 -8.25,-1.52z"/>
  <path class="fil4" d="M87.69 108.43l1.73 -4.7c2.58,0.54 5.21,1.11 7.9,1.69l-1.22 4.67c-2.94,-0.59 -5.61,-1.11 -8.41,-1.66z"/>
  <path class="fil4" d="M105.35 111.97l1.77 -4.39c2.42,0.54 4.88,1.09 7.38,1.66l-1.59 4.3 -7.56 -1.57z"/>
  <path class="fil4" d="M43.36 40.22l1.77 -5.5c2.14,1.27 4.48,2.56 7.02,3.85l-1.61 5.09c-2.55,-1.15 -4.95,-2.3 -7.19,-3.45z"/>
  <path class="fil4" d="M58.16 46.95l1.93 -4.56c2.16,0.98 4.44,1.97 6.82,2.97l-1.97 4.27c-2.34,-0.89 -4.61,-1.78 -6.79,-2.68z"/>
  <path class="fil4" d="M73.64 52.79l1.9 -3.99c2.26,0.87 4.61,1.75 7.04,2.63l-1.33 3.94 -2.62 -0.87c-1.69,-0.56 -3.35,-1.13 -4.98,-1.7z"/>
  <path class="fil4" d="M90.31 58.33l1.3 -3.72 2.75 0.93c1.61,0.56 3.18,1.1 4.71,1.62l-1.2 3.55c-2.59,-0.8 -5.12,-1.61 -7.55,-2.38z"/>
  <path class="fil4" d="M107.87 60.07l-1.03 3.35c2.64,0.77 5.29,1.53 7.92,2.25l0.65 -3.28c-2.33,-0.68 -4.85,-1.46 -7.54,-2.32z"/>
  <path class="fil5" d="M127.56 229.34l12.31 -36.57c0.66,-1.96 2.6,-3.2 4.69,-2.99 15.02,1.51 31.92,3.01 49.33,3.92 1.15,0.06 2.1,0.6 2.71,1.54 0.61,0.94 0.7,2.02 0.26,3.07l-15.77 37.98c-0.6,1.46 -2.07,2.32 -3.66,2.17 -13.08,-1.27 -28.75,-2.87 -47,-4.74 -1.07,-0.11 -1.94,-0.63 -2.51,-1.51 -0.58,-0.88 -0.7,-1.87 -0.36,-2.87z"/>
  <path class="fil6" d="M203.41 197.77l-14.55 38.62c-0.29,0.77 -0.21,1.53 0.23,2.21 0.43,0.68 1.11,1.08 1.93,1.16 14.61,1.34 29.12,2.46 43.85,2.38 1.44,-0.01 2.69,-0.81 3.26,-2.11l19.02 -42.92c0.37,-0.84 0.28,-1.73 -0.25,-2.47 -0.53,-0.74 -1.36,-1.11 -2.3,-1.04 -14.78,1.09 -30.43,1.2 -45.99,0.73 -2.34,-0.07 -4.41,1.29 -5.22,3.45z"/>
  <path class="fil7" d="M264.68 193.97l-20.34 44.27c-0.38,0.84 -0.31,1.72 0.21,2.47 0.52,0.74 1.34,1.13 2.27,1.08 12.14,-0.67 22.41,-2.28 30.78,-4.82 1.31,-0.4 2.29,-1.26 2.81,-2.5l20.35 -47.69c0.13,-0.32 0.07,-0.65 -0.16,-0.9 -0.23,-0.25 -0.57,-0.33 -0.91,-0.22 -9.79,3.19 -20.94,5.37 -32.89,6.77 -0.96,0.11 -1.74,0.67 -2.13,1.53z"/>
  <path class="fil8" d="M287.36 243.09c8.45,-30.31 19.03,-56.7 31.74,-79.19 -12.77,18.62 -68.34,23.09 -166.73,13.4 0,0 -28.2,-2.7 -84.67,-7.4 -11.15,-0.93 -18.25,0.92 -21.24,4.86l-3.2 10.65c0.17,-0.04 0.34,-0.07 0.51,-0.11 0.61,-0.12 1.19,0.05 1.62,0.48 0.42,0.43 0.57,1.01 0.42,1.6l-10.48 39.3c-0.17,0.63 -0.65,1.1 -1.3,1.26 -1.38,0.35 -2.68,0.76 -3.9,1.22l-3.58 11.93c7.98,-4.55 18.2,-4.73 31.15,-3.16 47.95,5.81 93.1,9.61 135.07,14 49.21,5.14 80.75,2.18 94.6,-8.85zm-22.68 -49.12l-20.34 44.27c-0.38,0.84 -0.31,1.72 0.21,2.47 0.52,0.74 1.34,1.13 2.27,1.08 12.14,-0.67 22.41,-2.28 30.78,-4.82 1.31,-0.4 2.29,-1.26 2.81,-2.5l20.35 -47.69c0.13,-0.32 0.07,-0.65 -0.16,-0.9 -0.23,-0.25 -0.57,-0.33 -0.91,-0.22 -9.79,3.19 -20.94,5.37 -32.89,6.77 -0.96,0.11 -1.74,0.67 -2.13,1.53zm-61.27 3.8l-14.55 38.62c-0.29,0.77 -0.21,1.53 0.23,2.21 0.43,0.68 1.11,1.08 1.93,1.16 14.61,1.34 29.12,2.46 43.85,2.38 1.44,-0.01 2.69,-0.81 3.26,-2.11l19.02 -42.92c0.37,-0.84 0.28,-1.73 -0.25,-2.47 -0.53,-0.74 -1.36,-1.11 -2.3,-1.04 -14.78,1.09 -30.43,1.2 -45.99,0.73 -2.34,-0.07 -4.41,1.29 -5.22,3.45zm-75.85 31.58l12.31 -36.57c0.66,-1.96 2.6,-3.2 4.69,-2.99 15.02,1.51 31.92,3.01 49.33,3.92 1.15,0.06 2.1,0.6 2.71,1.54 0.61,0.94 0.7,2.02 0.26,3.07l-15.77 37.98c-0.6,1.46 -2.07,2.32 -3.66,2.17 -13.08,-1.27 -28.75,-2.87 -47,-4.74 -1.07,-0.11 -1.94,-0.63 -2.51,-1.51 -0.58,-0.88 -0.7,-1.87 -0.36,-2.87zm6.05 -37.62l-12.4 36.22c-0.94,2.74 -3.65,4.45 -6.58,4.15l-39.22 -4.05c-0.79,-0.08 -1.42,-0.45 -1.86,-1.09 -0.44,-0.63 -0.55,-1.35 -0.33,-2.1l10.61 -36c0.82,-2.79 3.5,-4.62 6.45,-4.41 13.77,0.97 27.46,2.53 41.18,3.99 0.8,0.08 1.45,0.48 1.88,1.14 0.43,0.66 0.52,1.4 0.26,2.16zm-54.6 -3.77l-10.97 37.86c-0.24,0.83 -1.04,1.36 -1.92,1.28 -8.67,-0.86 -17.55,-1.45 -26.24,-0.25 -0.6,0.08 -1.15,-0.11 -1.54,-0.55 -0.4,-0.43 -0.53,-0.99 -0.37,-1.56l10.3 -37.95c0.39,-1.43 1.6,-2.44 3.11,-2.6 6.7,-0.68 14.85,-0.84 24.46,-0.52 1.1,0.03 2.03,0.51 2.67,1.37 0.64,0.86 0.82,1.87 0.52,2.9z"/>
  <path class="fil9" d="M133.62 191.72l-12.4 36.22c-0.94,2.74 -3.65,4.45 -6.58,4.15l-39.22 -4.05c-0.79,-0.08 -1.42,-0.45 -1.86,-1.09 -0.44,-0.63 -0.55,-1.35 -0.33,-2.1l10.61 -36c0.82,-2.79 3.5,-4.62 6.45,-4.41 13.77,0.97 27.46,2.53 41.18,3.99 0.8,0.08 1.45,0.48 1.88,1.14 0.43,0.66 0.52,1.4 0.26,2.16z"/>
  <path class="fil10" d="M79.02 187.95l-10.97 37.86c-0.24,0.83 -1.04,1.36 -1.92,1.28 -8.67,-0.86 -17.55,-1.45 -26.24,-0.25 -0.6,0.08 -1.15,-0.11 -1.54,-0.55 -0.4,-0.43 -0.53,-0.99 -0.37,-1.56l10.3 -37.95c0.39,-1.43 1.6,-2.44 3.11,-2.6 6.7,-0.68 14.85,-0.84 24.46,-0.52 1.1,0.03 2.03,0.51 2.67,1.37 0.64,0.86 0.82,1.87 0.52,2.9z"/>
  <path class="fil11" d="M35.33 226.69l10.48 -39.3c0.16,-0.59 0.01,-1.16 -0.42,-1.6 -0.43,-0.43 -1,-0.61 -1.62,-0.48 -0.17,0.03 -0.34,0.07 -0.51,0.11l-13.14 43.76c1.22,-0.46 2.52,-0.86 3.9,-1.22 0.65,-0.17 1.13,-0.63 1.3,-1.26z"/>
  <path class="fil4" d="M30.82 237.25l2.47 -7.15c-1.2,0.26 -1.26,0.23 -2.29,0.56l-2.5 7.25c0.84,-0.28 1.42,-0.43 2.32,-0.66z"/>
  <polygon class="fil4" points="35.75,236.2 37.73,229.29 35.21,229.7 32.97,236.76 "/>
  <path class="fil4" d="M41.72 235.49l2.38 -6.84c-1.63,0.09 -3.18,0.22 -4.64,0.39l-2.03 6.89c1.38,-0.18 2.81,-0.33 4.29,-0.44z"/>
  <path class="fil4" d="M45.62 235.3l2.14 -6.79c1.34,-0.03 2.73,-0.04 4.17,-0.04l-2.27 6.78c-1.38,-0.01 -2.73,0.01 -4.04,0.05z"/>
  <path class="fil4" d="M54.1 235.35l2.15 -6.8c1.37,0.04 2.78,0.1 4.23,0.18l-1.98 6.85c-1.5,-0.1 -2.97,-0.17 -4.4,-0.23z"/>
  <path class="fil4" d="M63.75 235.98l1.83 -6.93c1.48,0.11 3,0.23 4.56,0.37l-1.83 7.01 -0.3 -0.03c-1.45,-0.15 -2.87,-0.29 -4.26,-0.42z"/>
  <path class="fil4" d="M73.88 237.02l1.95 -7.03c1.81,0.19 3.66,0.41 5.56,0.64l-2.04 6.97 -5.47 -0.58z"/>
  <polygon class="fil4" points="91.24,238.85 93.24,232.05 88.85,231.53 86.49,238.35 "/>
  <polygon class="fil4" points="97.58,239.5 99.38,232.76 105.16,233.41 103.69,240.13 "/>
  <polygon class="fil4" points="116.86,241.47 118.86,234.9 112.7,234.24 110.54,240.83 "/>
  <path class="fil4" d="M280.27 245.08l1.96 -7.05c1.3,-0.42 2.59,-0.86 3.84,-1.31l-1.92 6.97c-1.19,0.48 -2.49,0.95 -3.89,1.4z"/>
  <path class="fil4" d="M276.21 246.28l2.85 -7.29c-1.5,0.43 -3.02,0.83 -4.58,1.21l-2.8 7.2c1.59,-0.36 3.1,-0.73 4.52,-1.12z"/>
  <path class="fil4" d="M267.54 248.26l2.84 -7.15c-1.52,0.32 -3.06,0.61 -4.63,0.88l-2.72 7.09c1.56,-0.26 3.07,-0.54 4.51,-0.82z"/>
  <path class="fil4" d="M258.27 249.83l2.78 -7.1c-1.56,0.22 -3.15,0.42 -4.75,0.6l-2.8 7.15c1.64,-0.21 3.23,-0.42 4.77,-0.64z"/>
  <path class="fil4" d="M247.79 251.13l2.98 -7.27c-1.67,0.14 -3.37,0.25 -5.09,0.35l-3.28 7.36c1.84,-0.11 3.64,-0.26 5.39,-0.44z"/>
  <path class="fil4" d="M236.19 251.82l3.49 -7.36c-1.82,0.05 -3.66,0.09 -5.53,0.11l-3.13 7.29c1.75,0.01 3.47,-0 5.16,-0.04z"/>
  <path class="fil4" d="M224.75 251.73l2.86 -7.18c-1.91,-0.03 -3.85,-0.07 -5.8,-0.14l-3 7.04c2.02,0.12 4,0.21 5.94,0.28z"/>
  <path class="fil4" d="M212.39 251.01l2.18 -6.91c-1.74,-0.09 -3.5,-0.2 -5.28,-0.32l-2.76 6.71c1.99,0.19 3.94,0.37 5.87,0.52z"/>
  <path class="fil4" d="M199.84 249.79l2.18 -6.56c-2.22,-0.19 -4.46,-0.39 -6.73,-0.62l-1.84 6.4c2.16,0.27 4.29,0.53 6.39,0.77z"/>
  <path class="fil4" d="M185.91 248.01l2.27 -6.14 -0.19 -0.02c-1.96,-0.22 -3.99,-0.44 -6.09,-0.66l-2.64 6.24c4.28,0.37 6.42,0.55 6.42,0.55l0.24 0.03z"/>
  <polygon class="fil4" points="171.81,246.76 174.39,240.42 167.93,239.78 165.72,246.2 "/>
  <polygon class="fil4" points="157.89,245.48 160.31,239.03 154.28,238.45 152.01,244.92 "/>
  <polygon class="fil4" points="144.66,244.22 146.71,237.72 139.31,236.99 136.51,243.42 "/>
  <polygon class="fil4" points="129.98,242.78 132.16,236.27 125.1,235.55 122.91,242.08 "/>
  <path class="fil4" d="M46.77 181.74l1.61 -6.25c-0.78,0.11 -1.53,0.24 -2.25,0.37l-1.84 6.14c0.82,-0.1 1.65,-0.19 2.48,-0.27z"/>
  <path class="fil4" d="M51.16 181.34l1.61 -6.38c-1.39,0.13 -1.14,0.08 -2.38,0.25l-1.83 6.35c1.28,-0.13 1.3,-0.13 2.6,-0.23z"/>
  <path class="fil4" d="M54.02 181.18l2.22 -6.48c1.04,-0.07 2.13,-0.12 3.25,-0.16l-2.37 6.5c-1.04,0.04 -2.07,0.09 -3.09,0.14z"/>
  <path class="fil4" d="M60.9 180.92l1.83 -6.48c1.3,-0.03 2.64,-0.04 4.04,-0.05l-2.08 6.48c-1.27,0.01 -2.54,0.02 -3.79,0.05z"/>
  <path class="fil4" d="M69.23 180.89l2.08 -6.46c1.47,0.02 2.99,0.06 4.56,0.1l-2.21 6.45c-1.49,-0.04 -2.97,-0.07 -4.43,-0.09z"/>
  <path class="fil4" d="M79.34 181.19l2.04 -6.46c1.61,0.07 3.26,0.15 4.95,0.25l-1.79 6.48c-1.75,-0.1 -3.48,-0.19 -5.19,-0.27z"/>
  <path class="fil4" d="M90.5 181.86l2.24 -6.49c1.82,0.12 3.68,0.25 5.58,0.39l-1.97 6.55c-1.98,-0.16 -3.93,-0.32 -5.86,-0.46z"/>
  <path class="fil4" d="M102.48 182.85l2.28 -6.58c1.87,0.15 3.78,0.32 5.73,0.49l0.25 0.02 -2.12 6.66 -0.26 -0.03c-1.99,-0.2 -3.95,-0.39 -5.89,-0.57z"/>
  <polygon class="fil4" points="115.57,184.13 117.87,177.42 123.72,177.93 121.83,184.75 "/>
  <polygon class="fil4" points="129.1,185.45 131.82,178.65 137.83,179.17 135.58,186.06 "/>
  <polygon class="fil4" points="143.26,186.77 145.57,179.85 152.55,180.45 150.16,187.4 "/>
  <polygon class="fil4" points="157.47,188.05 159.55,181.05 166.83,181.68 164.74,188.68 "/>
  <polygon class="fil4" points="171.69,189.26 173.7,182.26 180.31,182.81 178.56,189.82 "/>
  <path class="fil12" d="M267.36 113.91c-8.78,1.02 -19,1.53 -30.69,1.55 -0.55,0 -1.03,-0.23 -1.36,-0.67 -0.34,-0.44 -0.44,-0.96 -0.29,-1.49l8.3 -30.08c0.4,-1.46 1.65,-2.44 3.16,-2.5 12.19,-0.43 22.77,-1.66 31.71,-3.69 0.6,-0.14 1.19,0.04 1.62,0.49 0.43,0.45 0.58,1.04 0.41,1.64l-8.53 31.05c-0.56,2.05 -2.22,3.47 -4.33,3.71z"/>
  <path class="fil13" d="M292.38 108.21c-4.3,1.75 -9.45,3.17 -15.45,4.28 -0.6,0.11 -1.17,-0.08 -1.58,-0.54 -0.41,-0.46 -0.54,-1.04 -0.37,-1.63l9.33 -31.77c0.63,-2.16 2.13,-3.74 4.25,-4.49 6.46,-2.3 11.74,-5.16 15.82,-8.6 0.29,-0.24 0.68,-0.27 1,-0.07 0.32,0.2 0.46,0.57 0.36,0.93l-10.34 38.47c-0.43,1.59 -1.48,2.78 -3.01,3.4z"/>
  <path class="fil14" d="M225.31 115.33c-10.76,-0.25 -22.61,-0.86 -35.57,-1.82 -1.06,-0.08 -1.94,-0.58 -2.54,-1.45 -0.61,-0.87 -0.77,-1.87 -0.48,-2.89l7.55 -26.38c0.68,-2.37 2.89,-3.89 5.35,-3.68 13.35,1.17 25.57,1.76 36.61,1.77 0.55,0 1.02,0.23 1.36,0.67 0.33,0.44 0.44,0.95 0.3,1.48l-7.53 28.5c-0.61,2.31 -2.66,3.85 -5.05,3.8z"/>
  <path class="fil15" d="M154.26 65.18l-46.66 49.53c108.5,9.07 170.85,9.2 187.05,0.4l21.04 -76.38c-6.75,35.05 -58.71,43.33 -161.43,26.45zm113.1 48.73c-8.78,1.02 -19,1.53 -30.69,1.55 -0.55,0 -1.03,-0.23 -1.36,-0.67 -0.34,-0.44 -0.44,-0.96 -0.29,-1.49l8.3 -30.08c0.4,-1.46 1.65,-2.44 3.16,-2.5 12.19,-0.43 22.77,-1.66 31.71,-3.69 0.6,-0.14 1.19,0.04 1.62,0.49 0.43,0.45 0.58,1.04 0.41,1.64l-8.53 31.05c-0.56,2.05 -2.22,3.47 -4.33,3.71zm25.03 -5.71c-4.3,1.75 -9.45,3.17 -15.45,4.28 -0.6,0.11 -1.17,-0.08 -1.58,-0.54 -0.41,-0.46 -0.54,-1.04 -0.37,-1.63l9.33 -31.77c0.63,-2.16 2.13,-3.74 4.25,-4.49 6.46,-2.3 11.74,-5.16 15.82,-8.6 0.29,-0.24 0.68,-0.27 1,-0.07 0.32,0.2 0.46,0.57 0.36,0.93l-10.34 38.47c-0.43,1.59 -1.48,2.78 -3.01,3.4zm-67.07 7.12c-10.76,-0.25 -22.61,-0.86 -35.57,-1.82 -1.06,-0.08 -1.94,-0.58 -2.54,-1.45 -0.61,-0.87 -0.77,-1.87 -0.48,-2.89l7.55 -26.38c0.68,-2.37 2.89,-3.89 5.35,-3.68 13.35,1.17 25.57,1.76 36.61,1.77 0.55,0 1.02,0.23 1.36,0.67 0.33,0.44 0.44,0.95 0.3,1.48l-7.53 28.5c-0.61,2.31 -2.66,3.85 -5.05,3.8z"/>
  <path class="fil4" d="M254.68 78.64l1.02 -4.05c1.64,-0.12 3.24,-0.26 4.81,-0.41l-1.25 4.09c-1.5,0.14 -3.02,0.26 -4.58,0.36z"/>
  <path class="fil4" d="M264.6 77.72l1.18 -4.12c1.39,-0.18 2.75,-0.37 4.08,-0.57l-0.96 4.11c-1.4,0.21 -2.84,0.41 -4.3,0.59z"/>
  <path class="fil4" d="M274.19 76.23l0.93 -4.12c1.44,-0.28 2.85,-0.59 4.22,-0.91l-1.09 4.17c-1.32,0.3 -2.67,0.58 -4.05,0.85z"/>
  <path class="fil4" d="M282.53 74.31l0.92 -4.16c1.31,-0.37 2.58,-0.75 3.81,-1.15l-1.15 4.25c-1.16,0.37 -2.35,0.72 -3.57,1.06z"/>
  <path class="fil4" d="M291.1 67.62l-0.95 4.23c1.18,-0.45 2.32,-0.92 3.43,-1.41l0.94 -4.27c-1.1,0.51 -2.24,0.99 -3.42,1.45z"/>
  <path class="fil4" d="M300.18 63.15l-0.58 4.21c-1.01,0.6 -2.07,1.18 -3.16,1.73l0.87 -4.3c0.99,-0.53 1.95,-1.07 2.87,-1.64z"/>
  <path class="fil4" d="M302.79 61.41l-0.82 4.45c0.78,-0.52 1.53,-1.06 2.25,-1.62l0.74 -4.51c-0.7,0.58 -1.42,1.13 -2.17,1.67z"/>
  <path class="fil4" d="M306.17 62.66l0.85 -4.76c0.66,-0.63 1.29,-1.29 1.88,-1.96l-0.8 4.91c-0.62,0.62 -1.26,1.22 -1.94,1.81z"/>
  <path class="fil4" d="M244.45 79.1l0.92 -3.98c1.58,-0.05 3.13,-0.11 4.66,-0.18l-1.02 4.02c-1.49,0.06 -3.01,0.11 -4.55,0.15z"/>
  <path class="fil4" d="M233.55 79.14l1.13 -3.89c1.54,0.01 3.06,0 4.56,-0.01l-0.92 3.93c-1.57,0 -3.16,-0.01 -4.77,-0.03z"/>
  <path class="fil4" d="M223.12 78.82l1.12 -3.77c1.56,0.05 3.12,0.1 4.64,0.12l-0.89 3.83c-1.6,-0.05 -3.22,-0.11 -4.87,-0.19z"/>
  <path class="fil4" d="M212.07 78.17l0.88 -3.62c1.83,0.1 3.63,0.19 5.4,0.27l-1.18 3.68c-1.68,-0.1 -3.38,-0.21 -5.11,-0.34z"/>
  <path class="fil4" d="M205.84 77.69l0.79 -3.53c-2.3,-0.16 -4.63,-0.33 -7,-0.52l-0.13 3.47c2.14,0.21 4.25,0.4 6.33,0.58z"/>
  <polygon class="fil4" points="288.51,115.84 288.2,111.43 294.2,109.41 293.25,114.57 "/>
  <path class="fil16" d="M278.55 92.51c-22.29,-64.84 -92.93,-99.33 -157.76,-77.03 -64.84,22.29 -99.33,92.93 -77.03,157.76 22.29,64.84 92.93,99.33 157.76,77.03 64.84,-22.29 99.33,-92.93 77.03,-157.76z"/>
  <path class="fil17" d="M266.27 74.49c0,0 -1.03,-1.82 -1.37,-3.02 -0.34,-1.2 -0.29,-4.01 -3.48,-7.65 -3.19,-3.64 -4.63,-4.5 -5.41,-6.09 -0.78,-1.59 -1.07,-0.56 -3.98,-3.11 -2.91,-2.55 -2.18,-2.8 -2.38,-4.05 -0.2,-1.25 -0.58,-0.34 -1.4,-0.68 -0.82,-0.34 -0.86,-0.25 -0.77,0.03 0.1,0.28 -0.2,0.77 -0.46,0.7 -0.26,-0.07 -1.38,-1.31 -1.38,-1.31 0,0 0,0 -1.05,-0.57 -1.05,-0.57 -1.32,-0.24 -1.15,-1.08 0.18,-0.84 -0.07,-0.44 -0.38,-1.11 -0.31,-0.67 -0.89,-1.25 -1.11,-1.87 -0.22,-0.62 1.1,0.71 1.7,1.12 0.61,0.41 0.91,0.85 1.99,1.72 0.29,0.24 -0.9,-1.94 -0.9,-1.94 0,0 0,0 0.63,0.02 0.63,0.02 0.94,1.15 1.78,1.79 0.84,0.64 1.05,1.03 1.75,1.26 0.7,0.23 0.37,-0.05 0.23,-0.47 -0.14,-0.42 -0.33,-0.97 -1.22,-1.75 -0.89,-0.78 -1.08,-0.87 -2.86,-2.9 -1.78,-2.03 -0.9,-2.17 -5.04,-5.64 -4.14,-3.47 -10.29,-7.79 -13.97,-9.48 -3.68,-1.68 -3.33,-1.34 -5.29,-2.29 -1.96,-0.96 -5.57,-2.43 -8.02,-3.68 -2.45,-1.25 -2.21,-1.02 -1.22,-1.06 1,-0.03 3.2,-0.4 -2.04,-1.86 -5.24,-1.46 -15.59,-5.07 -15.95,-5.38 -0.37,-0.31 -0.76,0.23 -1.59,-0.06 -0.83,-0.3 -2.35,-0.33 -3.52,-0.16 -1.17,0.17 -3.3,-0.2 -3.38,-0.26 -0.08,-0.06 -1.62,0.29 -4.68,1.55 -3.06,1.26 0.82,0.18 1.86,0.15 1.04,-0.04 0.46,0.57 -0.42,0.9 -0.88,0.33 -1.84,0.08 -2.66,0.13 -0.83,0.05 -3.14,0.44 -3.14,0.44 0,0 -2.49,0.04 -3.55,0.09 -1.06,0.04 -0.99,0.25 -1.35,0.49 -0.35,0.24 0.33,0.29 0.15,0.44 -0.18,0.15 -0.77,0.21 -1.41,0.4 -0.63,0.19 0.03,-0.42 -0.14,-0.42 -0.17,0 -2.27,0.75 -3.83,1.2 -1.56,0.45 -1.41,0.13 -2.38,-0.14 -0.97,-0.28 -0.57,0.55 -0.11,0.85 0.46,0.31 0.4,0.48 -1.05,1 -1.45,0.53 -0.62,0.07 -0.46,-0.16 0.15,-0.23 0.26,-0.44 0.19,-1.23 -0.07,-0.79 -0.74,-0.71 -0.95,-0.72 -0.21,-0.02 -0.55,-0.07 -1.5,0.14 -0.95,0.21 -2.04,0.5 -3.08,0.86 -1.04,0.36 -2.73,0.1 -3.9,0.44 -1.16,0.34 -0.23,0.34 -0.21,0.42 0.03,0.08 0.02,0.23 -1.54,1.52 -1.56,1.29 -0.73,0.16 -1.56,0.54 -0.83,0.37 -2.14,1.32 -2.14,1.32 0,0 0.73,0.59 1.62,0.81 0.89,0.22 -0.33,0.32 -1.32,0.66 -0.99,0.34 -0.82,0.31 -1.92,1.11 -1.09,0.8 1.57,-0.18 3.3,0.28 1.73,0.45 -0.88,0.57 -2.51,0.31 -1.63,-0.25 -1.62,0.38 -1.62,0.38l-0.84 0.7 2.03 0.23 0.29 0.51 -1.62 0.03c0,0 -0.76,-0.09 -2.06,-0.25 -1.31,-0.16 1.15,0.71 1.15,0.71l1.43 0.85 1.3 0.22 1.34 -0.34 2.44 -0.08 2.03 0.99c0,0 -2,0.02 -2.78,-0.12 -0.78,-0.14 -1.06,-0.22 -1.39,-0.07 -0.33,0.14 -0.42,0.32 -0.27,0.65 0.14,0.33 0.61,0.52 0.83,0.97 0.21,0.45 -0.5,0.9 -0.5,0.9l-1.37 0.5c0,0 -0.75,-0.32 -0.65,-0.71 0.1,-0.38 0.87,-0.85 0.87,-0.85 0,0 -0.01,-0.29 -0.52,-1.07 -0.5,-0.79 -0.31,-0.13 -2.03,-0.58 -1.73,-0.45 -1.83,-0.65 -1.83,-0.65 0,0 0,0 -1.12,-0.75 -1.12,-0.75 -0.81,0.04 -2.61,-0.12 -1.8,-0.17 -0.7,0.33 -0.57,1.13 0.13,0.8 -0.41,1.01 0.4,1.49 0.81,0.48 0.24,0.35 0.6,0.49 0.37,0.14 1.4,0.01 2.65,-0.01 1.24,-0.02 0.24,0.53 0.03,0.69 -0.21,0.16 -2.94,0.17 -2.94,0.17 0,0 -1.78,-0.03 -3.3,0.23 -1.51,0.26 -0.39,0.05 -1.81,0.42 -1.42,0.37 -0.67,0.08 -1.73,0.3 -1.06,0.22 0.34,0.41 1.08,0.36 0.74,-0.05 1.81,-0.24 1.81,-0.24l0.33 0.53c0,0 0,0 -0.72,0.86 -0.72,0.86 -0.6,0.21 -1.21,-0.46 -0.61,-0.66 -1.18,1.13 -1.18,1.13 0,0 -0.16,0.05 -1.64,0.74 -1.48,0.68 -0.49,0.11 -0.95,-0.49 -0.47,-0.6 -0.21,-0.02 -0.46,0.27 -0.25,0.29 -0.69,0.44 -1.56,0.8 -0.87,0.36 -0.2,0.1 -1.57,1.35 -1.37,1.26 -0.29,0.86 -0.29,0.86 0,0 0,0.26 -0.16,0.72 -0.16,0.46 -0.61,0.35 -2.45,0.49 -1.84,0.14 0.19,-0.53 0.19,-0.53 0,0 0.44,-0.59 0.46,-1.12 0.02,-0.53 -1.82,0.39 -1.82,0.39l-0.91 0.98c0,0 0.69,0.9 0.96,1.36 0.27,0.46 0.37,0.75 -1.26,0.49 -1.63,-0.25 -0.95,0.62 -1.08,0.92 -0.13,0.31 -0.75,0.78 -0.84,1.19 -0.09,0.41 1.09,0.96 1.09,0.96 0,0 -0.8,0.39 -1.5,0.55 -0.7,0.15 -0.9,-0.33 -2.04,-0.35 -1.14,-0.02 -0.61,0.41 -0.29,0.68 0.32,0.27 1.14,0.28 1.56,0.39 0.42,0.12 -0.06,0.34 -0.94,0.64 -0.89,0.3 -0.77,0.06 -1.32,0.05 -0.56,-0.01 -0.82,-0.1 -1.02,-0.35 -0.2,-0.25 -0.5,-0.18 -0.69,-0.73 -0.19,-0.55 0.28,-0.3 -0.43,-0.75 -0.71,-0.45 -0.72,-0.13 -1.6,-0.09 -0.89,0.04 -0.39,-0.21 -0.25,-0.64 0.14,-0.43 1.79,0.29 2.73,0.23 0.94,-0.06 1.29,-0.21 1.95,-0.44 0.65,-0.22 0.91,-0.31 1.74,-0.69 0.83,-0.37 0.71,-0.39 1.09,-1.07 0.38,-0.68 0.13,-0.54 0.14,-0.69 0.01,-0.15 -0.92,-0.56 -0.92,-0.56 0,0 -1.53,-0.12 -2.43,-0.04 -0.9,0.08 -1.9,-0.19 -3.15,0.15 -1.25,0.34 -1,0.14 -1.81,0.33 -0.81,0.19 -0.53,0.07 -1.14,-0.01 -0.61,-0.08 -0.11,-0.4 -0.54,-0.46 -0.43,-0.06 -1.42,0.87 -1.39,0.19 0.03,-0.68 -0.41,0.32 -0.67,0.41 -0.26,0.09 -0.72,-0.16 -1.64,0.07 -0.91,0.23 -0.38,0.25 -0.98,0.54 -0.6,0.29 -1.03,0.56 -1.41,0.89 -0.38,0.33 -0.58,0.52 -1.09,0.64 -0.51,0.12 -0.23,0.95 -0.85,1.08 -0.63,0.13 -0.2,-0.25 -0.68,-0.29 -0.48,-0.04 -0.48,0.14 -0.57,0.2 -0.1,0.06 -0.19,0.79 -0.66,1.04 -0.47,0.25 -0.15,-0.01 -0.62,0.21 -0.48,0.22 -0.05,0.28 -0.23,0.6 -0.18,0.32 -0.49,0.17 -0.66,0.11 -0.17,-0.06 -0.63,0.13 -0.78,0.27 -0.16,0.14 -0.61,0.35 -0.93,0.58 -0.33,0.23 -0.4,0.37 -1.77,1.54 -1.37,1.17 0.23,0.16 0.69,-0.18 0.47,-0.34 0.91,-0.49 0.91,-0.49 0,0 1.31,-0.92 1.6,-1.02 0.29,-0.1 -0.1,0.38 -0.53,0.74 -0.43,0.35 -0.14,0.11 -0.58,0.61 -0.44,0.5 0,0 -0.67,0.67 -0.67,0.67 -1.04,1.2 -1.83,2.55 -0.79,1.35 -0.78,0.79 -0.94,1.17 -0.16,0.38 -1.19,1.02 -2.23,2.4 -1.04,1.38 0.35,-0.18 0.97,-0.39 0.63,-0.21 -1.21,0.97 -0.93,1.11 0.28,0.14 -0.39,0.48 -0.7,-0.02 -0.32,-0.5 -0.33,0.32 -0.69,0.12 -0.36,-0.2 -0.53,0.5 -0.44,0.76 0.09,0.26 -0.52,0.09 -0.87,0.59 -0.35,0.5 -0.53,0.33 -0.54,0.8 -0.01,0.47 -0.84,0.09 -0.67,0.58 0.17,0.49 -0.88,0.65 -0.88,0.65 0,0 -0.6,0.7 -0.89,1.06 -0.28,0.36 0.02,1.07 0.02,1.07 0,0 -0.14,0.45 -0.58,0.78 -0.44,0.33 -0.02,0.21 0.28,0.31 0.3,0.1 0.25,0.15 0.29,0.34 0.04,0.19 -0.3,0.31 -0.78,0.53 -0.48,0.22 -0.06,0.43 0.47,0.36 0.53,-0.07 0.32,0.01 0.21,0.43 -0.12,0.42 -0.31,0.19 -0.52,0.76 -0.21,0.57 0.82,0.4 0.82,0.4 0,0 0.63,0.25 1.75,-0.1 1.12,-0.35 0.78,-1.01 1.04,-1.6 0.26,-0.59 0.63,-0.41 1.07,-0.72 0.44,-0.31 0.25,-0.51 0.43,-1 0.18,-0.49 0.32,0.24 0.68,0.5 0.36,0.26 0.19,0.21 0.12,0.7 -0.07,0.49 -0.03,0.59 0.1,0.97 0.13,0.38 0.34,0.54 0.67,1.17 0.33,0.62 0.38,0.53 0.46,0.89 0.08,0.36 -0.22,0.27 -0.59,0.44 -0.37,0.17 0.17,0.49 0.47,1.35 0.3,0.87 0.45,-0.16 1.24,-0.46 0.79,-0.31 0.42,-0.14 0.62,-0.56 0.21,-0.42 -0.06,-0.19 -0.12,-0.79 -0.05,-0.6 1.03,-0.29 1.03,-0.29 0,0 0.76,-0.26 1.6,-0.55 0.83,-0.29 0.36,-1.26 0.2,-1.67 -0.16,-0.41 0.18,-0.77 0.15,-1.38 -0.03,-0.61 0.1,-0.28 0.29,-0.89 0.2,-0.61 0.14,-0.17 0.37,-0.33 0.24,-0.16 0.54,-0.84 0.7,-1.04 0.16,-0.2 0.16,-0.2 0.58,-0.43 0.42,-0.23 -0.16,-0.47 -0.16,-0.47 0,0 0.13,-0.22 0.27,-0.41 0.14,-0.19 0.18,-0.32 0.19,-0.62 0.01,-0.3 -0.44,-0.43 -0.44,-0.43l-0.91 -0.27 -0.13 -1.06c0,0 0.43,-1.28 0.59,-1.42 0.16,-0.14 0.28,-0.3 0.92,-1.22 0.64,-0.92 0.69,-0.7 1.21,-1.06 0.52,-0.35 1.09,-0.98 1.09,-0.98 0,0 0.82,-0.57 0.98,-0.8 0.15,-0.23 -0.27,-0.46 -0.41,-0.67 -0.13,-0.22 0.27,-0.41 0.4,-0.6 0.14,-0.19 0.34,-0.03 0.57,-0.55 0.23,-0.52 0.72,0.39 0.72,0.39l1.48 -0.51 0.67 -0.17c0,0 0.24,0.37 0.11,0.56 -0.14,0.19 -1.58,1.16 -1.58,1.16 0,0 -0.95,1.55 -1.69,2.01 -0.74,0.46 -0.63,0.63 -0.88,1.09 -0.25,0.46 0.35,1.03 0.35,1.03 0,0 -0.14,0.62 -0.23,1.27 -0.1,0.65 0.71,0.68 0.99,0.72 0.28,0.04 1.85,-0.38 1.85,-0.38 0,0 0.6,-0.24 1.47,-0.57 0.88,-0.32 0.37,-0.21 1.15,-0.78 0.77,-0.58 2.12,-1.27 2.12,-1.27 0,0 1.15,-0.09 1.92,0.06 0.77,0.14 -0.81,0.74 -1.04,0.82 -0.23,0.08 -0.93,0.8 -0.93,0.8 0,0 -0.48,0.18 -1.01,0.35 -0.53,0.16 -0.85,0.12 -1.68,0.4 -0.83,0.29 -0.89,0.46 -1.39,0.81 -0.5,0.35 -0.54,0.53 -0.7,1.02 -0.16,0.48 0.58,0.83 1.09,0.94 0.51,0.12 0.07,0.21 0.02,0.49 -0.05,0.28 0.01,0.37 -0.4,1.21 -0.41,0.84 -0.3,0.05 -0.82,-0.1 -0.51,-0.14 -0.92,-0.38 -1.54,-0.17 -0.62,0.22 -0.77,1.66 -0.89,1.82 -0.12,0.16 -0.01,0.64 -0.01,0.64 0,0 -0.27,0.82 -0.09,1.34 0.18,0.52 0.3,0.67 0.3,0.67 0,0 -0.04,0.33 -0.42,0.48 -0.37,0.16 -0.71,0.41 -0.71,0.41 0,0 -0.1,0.62 -0.09,0.77 0.01,0.15 -0.16,0.1 -0.57,0.27 -0.4,0.18 -1,0.26 -1.12,0.23 -0.13,-0.03 -0.04,-0.68 -0.94,-0.49 -0.9,0.19 -1.14,1.21 -2.11,1.77 -0.97,0.57 -2.33,1.6 -2.51,1.66 -0.18,0.06 -0.32,-0.15 -0.73,-0.51 -0.41,-0.35 -0.56,-0.19 -0.63,-0.13 -0.07,0.05 -0.31,0.11 -0.86,0.47 -0.55,0.36 -0.18,0.15 -0.92,0.87 -0.74,0.72 -0.31,0.19 -0.55,0.27 -0.23,0.08 -0.18,0.06 -0.94,-0.03 -0.76,-0.09 -0.23,-0.07 -0.46,-0.25 -0.24,-0.18 -0.56,-0.36 -0.56,-0.36 0,0 -0.61,0.18 -0.83,0.29 -0.23,0.11 -0.04,0.22 0.01,0.61 0.05,0.39 -0.16,0.46 -0.53,1 -0.37,0.54 -0.42,0.38 -1.26,0.99 -0.84,0.61 -0.57,0.72 -0.57,0.72 0,0 -0.2,-0.08 -0.74,-0.04 -0.54,0.04 -0.51,0.21 -0.94,0.47 -0.43,0.26 -0.68,0.55 -1.22,1.2 -0.53,0.65 -0.02,0.27 -0.15,1.01 -0.12,0.74 -0.48,0.63 -1.11,1.34 -0.63,0.71 -1.26,1.74 -1.83,2.03 -0.57,0.28 -0.53,0.33 -1.13,0.59 -0.61,0.27 -0.39,1.33 -0.39,1.33 0,0 -0.13,0.63 -0.36,1.06 -0.23,0.43 -0.69,0.18 -0.94,0.32 -0.24,0.14 -0.48,0.37 -0.51,0.64 -0.02,0.27 0.08,0.23 0.01,0.87 -0.07,0.64 -0.16,0.03 -0.49,0.08 -0.33,0.05 -0.71,0.22 -0.86,0.03 -0.15,-0.18 0.01,-0.23 -0.06,-0.51 -0.06,-0.27 -0.28,0.04 -0.68,0.38 -0.41,0.34 0.04,0.71 0.09,1.29 0.05,0.57 -0.06,0.62 -0.98,0.98 -0.92,0.36 -0.49,0.05 -0.58,-0.23 -0.1,-0.28 -0.3,-0.09 -0.58,0.01 -0.28,0.1 -0.93,0.67 -1.22,0.85 -0.29,0.18 -0.51,1.11 -0.51,1.11 0,0 0.82,0.14 1.31,-0.02 0.49,-0.17 0.64,0.4 0.76,0.51 0.12,0.12 0.32,0.7 0.32,0.7 0,0 0.03,0.65 0.29,0.95 0.26,0.3 0.94,0.37 0.67,0.82 -0.27,0.44 0.05,0.37 0.25,0.96 0.2,0.59 -0.46,-0.43 -0.66,-0 -0.21,0.42 0.08,0.36 0.21,1.17 0.12,0.81 0.07,0.64 0.23,1.47 0.17,0.83 -0.93,2.49 -0.93,2.49 0,0 -0.68,0.23 -0.88,0.3 -0.21,0.07 -0.89,-0.05 -1.81,0.15 -0.92,0.2 -0.05,-0.15 -1.96,0.22 -1.91,0.37 -2.45,0.83 -2.45,0.83l-0.96 1.28c0,0 -0.48,1.49 -0.8,2.06 -0.33,0.58 0.01,1.21 0.07,2.24 0.06,1.03 -0.15,1.09 -0.19,1.98 -0.04,0.89 -0.03,0.77 -0.95,2.83 -0.92,2.06 0.52,1.33 -0.03,2.45 -0.55,1.12 0.95,1.24 2.06,0.92 1.11,-0.32 0.91,0.44 1.39,1.33 0.48,0.88 0.85,0.11 1.33,-0.52 0.48,-0.63 0.38,-0.42 0.69,-0.53 0.31,-0.11 0.71,0.05 1.39,-0.01 0.68,-0.06 0.89,-0.3 0.86,-0.88 -0.02,-0.57 0.64,-0.34 0.64,-0.34 0,0 0.85,-0.41 0.72,-1.12 -0.13,-0.71 0.14,-0.45 0.19,-0.65 0.05,-0.19 1.33,-0.87 1.33,-0.87 0,0 0.38,-0.59 0.16,-1.22 -0.22,-0.62 0.19,-0.47 0.72,-1.12 0.53,-0.65 -0.5,-1.28 -0.63,-1.82 -0.13,-0.54 0.22,-0.19 0.59,-0.49 0.36,-0.3 0.12,-0.16 0.12,-0.16l0.07 0.03c0,0 0.1,-0.04 1.2,-0.41 1.09,-0.38 -0.1,-1.65 -0.1,-1.65 0,0 -0.13,-0.39 -0.15,-0.79 -0.02,-0.4 0.58,-0.51 0.7,-0.66 0.12,-0.16 0.32,-0.26 0.94,-0.48 0.62,-0.22 0.67,-0.75 0.67,-0.75 0,0 0.16,-0.72 0.25,-0.98 0.08,-0.26 0.69,-0.71 0.69,-0.71 0,0 0.03,-0.6 0.09,-0.91 0.07,-0.31 -0.09,-0.44 -0.2,-1.1 -0.11,-0.66 -0.07,-0.38 0.17,-0.7 0.24,-0.32 0.26,-0.26 0.72,-0.95 0.46,-0.68 0,-0 0.55,-0.25 0.55,-0.25 1.08,0.09 1.08,0.09 0,0 0.57,-0.02 1.6,-0.08 1.03,-0.06 0.71,0.04 0.95,-0.44 0.24,-0.49 0.66,-0.87 0.82,-1.27 0.15,-0.4 0.18,-0.15 0.63,-0.71 0.45,-0.56 0.15,-0.14 0.32,-0.6 0.16,-0.46 0.08,-0.26 0.92,-0.64 0.83,-0.37 0.66,-0.72 1.07,-0.45 0.41,0.27 0.66,0.32 1.22,0.25 0.56,-0.07 0.24,0.44 0.38,0.86 0.14,0.42 0.27,0.61 0.81,1.26 0.55,0.66 0.84,0.67 1.59,0.73 0.75,0.06 0.48,0.21 1.36,0.99 0.88,0.78 0.82,0.1 1.78,-0.15 0.96,-0.24 0.82,0.77 1.47,0.72 0.65,-0.05 0.52,0.08 0.66,0.47 0.13,0.39 0.22,0.65 0.95,0.31 0.73,-0.34 1.24,1.07 1.29,1.21 0.05,0.14 0.52,0.78 0.15,1.21 -0.36,0.43 -0.39,0.48 -0.44,0.88 -0.05,0.4 -0.21,0.29 -0.19,0.55 0.01,0.26 0.3,0.28 0.53,0.14 0.23,-0.14 0.3,-0.51 0.7,-0.84 0.4,-0.33 0.34,-0.74 0.34,-0.74 0,0 0.08,-0.35 0.7,-0.91 0.62,-0.56 0.25,-0.51 0.25,-0.51l-0.66 -0.9c0,0 -0.47,-0.34 -0.86,-0.6 -0.4,-0.25 0.12,-0.89 0.12,-0.89l1.32 -0.34c0,0 0.44,0.27 0.9,0.47 0.45,0.19 0.63,0.25 0.84,0.18 0.21,-0.07 0.39,-0.56 0.39,-0.56 0,0 -0.08,-0.24 -1.74,-1.11 -1.66,-0.87 -0.69,-0.19 -1.35,-0.31 -0.66,-0.12 -1.49,-0.26 -1.49,-0.26 0,0 -0.18,-0.29 -0.27,-0.8 -0.1,-0.51 -0.75,0.3 -0.75,0.3 0,0 -0.5,0.13 -0.82,0.09 -0.33,-0.04 -0.85,-0.33 -0.85,-0.33 0,0 -0.43,-0.24 -1.05,-0.45 -0.62,-0.22 -0.1,-0.28 -0.18,-0.52 -0.08,-0.24 -0.07,-0.32 -0.24,-0.81 -0.17,-0.49 -0.39,-0.33 -1.05,-0.45 -0.66,-0.12 -1.19,-0.52 -1.17,-1.19 0.02,-0.67 0.39,-0.72 -0.41,-1.18 -0.8,-0.46 0.43,-0.5 1.67,-0.84 1.24,-0.35 0.3,0.63 0.86,1.02 0.56,0.39 0.22,-0.5 0.79,-1.09 0.57,-0.59 0.27,-0.33 0.57,0.19 0.29,0.52 0.42,0.67 0.81,1.47 0.39,0.8 0.74,0.56 1.88,0.4 1.15,-0.16 0.77,0.2 1.53,0.6 0.76,0.4 1.04,0.11 1.6,0.38 0.56,0.27 0.44,0.16 1.46,0.39 1.01,0.23 0.51,0.37 0.92,0.54 0.41,0.17 0.11,0.43 -0.04,0.91 -0.15,0.48 0.24,0.35 -0.36,0.98 -0.6,0.63 0.04,1.15 0.14,0.85 0.09,-0.3 0.63,-0.41 0.48,0.03 -0.16,0.44 0.34,0.31 0.9,0.7 0.56,0.39 0.13,0.27 0.68,0.62 0.55,0.35 0.39,0.33 0.61,0.64 0.22,0.31 0.26,0.3 0.89,0.78 0.63,0.48 0.78,0.12 1,0.08 0.22,-0.04 0.45,-0.15 0.94,-0.44 0.48,-0.28 1.08,-0.14 1.08,-0.14 0,0 0.81,-0.24 1.08,-0.14 0.27,0.1 1.23,0.98 1.23,0.98 0,0 0.59,0.03 0.44,-0.42 -0.16,-0.45 -0.25,-0.38 -0.22,-0.74 0.03,-0.36 0.41,-0.37 0.26,-0.71 -0.15,-0.33 -0.66,-0.67 -0.66,-0.67 0,0 -0.71,-0.49 -1.27,-1 -0.56,-0.51 -1.3,-0.41 -1.75,-1.14 -0.45,-0.74 0.44,-0.85 0.46,-0.58 0.01,0.27 0.57,0.66 1.21,0.24 0.63,-0.41 0.3,-0.49 -0.11,-0.89 -0.41,-0.4 0.56,-0.07 0.76,-0.61 0.2,-0.54 0.33,-0.27 0.79,-0.31 0.45,-0.04 0.34,-0.35 0.56,-0.62 0.22,-0.27 1.08,-0.03 1.08,-0.03 0,0 0.58,-0.01 1.11,0.08 0.53,0.09 0.52,0.05 0.93,-0.12 0.4,-0.18 0.65,-0.38 1.27,-1.17 0.62,-0.79 0.2,-0.11 1.11,-0.38 0.91,-0.28 0.9,-0.31 1.94,-0.67 1.04,-0.36 0.72,0.18 0.61,0.3 -0.11,0.12 -0.25,0.05 -0.87,0.3 -0.61,0.25 0.21,0.95 0.29,1.31 0.08,0.36 -1.02,1.22 -1.02,1.22 0,0 -0.83,0.29 -2.05,0.7 -1.21,0.42 -0.94,-0.59 -1.24,-0.33 -0.3,0.26 -0.51,0.09 -0.89,0.92 -0.37,0.83 0.19,0.22 0.9,0.02 0.71,-0.2 0.45,-0.15 0.54,0.21 0.08,0.36 0.07,0.31 0.48,0.48 0.41,0.17 0.21,0.17 0.23,0.55 0.01,0.38 -0.89,0.57 -0.89,0.57 0,0 -0.59,0.54 -0.21,0.84 0.37,0.3 0.85,-0.22 1.86,-0.33 1.01,-0.11 0.63,1.11 0.71,1.58 0.07,0.47 0.37,0.48 1.28,0.17 0.91,-0.31 0.72,-0.1 1.19,0.23 0.46,0.33 0.35,-0.24 0.99,-0.17 0.64,0.07 0.27,0.78 0.87,0.57 0.6,-0.21 0.87,-0.27 1.76,-0.46 0.89,-0.19 0.2,-0.36 0.07,-1.07 -0.13,-0.71 0.5,-0.84 1.73,-0.63 1.24,0.21 1.69,0.61 2.01,0.59 0.31,-0.02 1.29,-0.47 1.63,-0.59 0.34,-0.12 1.09,-1.16 1.92,-2.03 0.84,-0.87 0.55,-0.19 1.53,-0.21 0.98,-0.02 0.26,-0.44 0.75,-0.87 0.49,-0.43 0.22,0.65 0.45,1.15 0.23,0.5 0.08,0.41 0.09,0.93 0,0.52 0.01,0.63 0.48,0.54 0.46,-0.1 -0.04,0.8 0.5,1.46 0.55,0.66 0.04,0.71 0.03,1.36 -0.01,0.65 -0.37,2.31 -0.03,3.39 0.34,1.08 0.14,2.69 -0.14,3.22 -0.28,0.53 -0.59,0.41 -2.04,1.08 -1.46,0.67 -1.48,0.42 -1.84,0.66 -0.36,0.24 -0.63,0.13 -0.8,-0.37 -0.17,-0.49 -0.54,0.36 -1.3,0.27 -0.76,-0.09 -0.38,0.25 -1.24,0.54 -0.86,0.3 0.06,0.42 -0.44,0.59 -0.49,0.17 -0.23,0.08 -0.96,1.03 -0.72,0.95 -0.45,0.21 -2.52,0.63 -2.07,0.42 -0.69,0.36 -2.68,0.34 -1.98,-0.02 -1.39,0.01 -3.16,0.62 -1.77,0.61 -0.28,0.04 -0.74,-0.79 -0.46,-0.83 0,0 -0.89,-0.04 -0.89,-0.04 -0.92,0.37 -2.59,0.77 -1.67,0.4 -0.33,-0.12 -0.54,-0.4 -0.21,-0.28 -0.3,-0.36 -0.98,-0.48 -0.68,-0.12 -0.73,0.25 -1.98,0.68 -1.25,0.43 -0.92,0.55 -1.88,1.46 -0.97,0.91 -0.61,1.61 -0.29,2.2 0.32,0.59 0.58,1.02 0.76,1.72 0.18,0.69 -1.17,1.86 -3.19,1.56 -2.02,-0.29 -2.34,-0.71 -3.22,-0.41 -0.88,0.3 -2.27,-0.33 -2.76,-0.91 -0.49,-0.59 -1.1,-0.67 -1.23,-0.86 -0.12,-0.19 -2.66,0.39 -2.66,0.39l-2.82 0.44c0,0 -0.52,0 -1.29,-0.02 -0.77,-0.03 -0.96,-0.25 -2.14,-1.3 -1.18,-1.05 0.44,-1.61 0.44,-1.61 0,0 0.08,-0.44 0.94,-2.01 0.85,-1.57 -0.55,-0.57 -1.27,-1.31 -0.72,-0.74 0.31,-0.8 0.8,-1.73 0.5,-0.93 -0.54,-0.4 -1.11,0.15 -0.57,0.55 -0.32,0.42 -0.81,-0.17 -0.49,-0.59 -1.18,1.13 -1.18,1.13l-1.77 0.61c0,0 -1.45,0.19 -2.62,1.35 -1.17,1.16 -1.2,0.4 -1.95,0.25 -0.75,-0.15 -1.79,1.05 -4.74,2.12 -2.95,1.07 -3.67,3.89 -4.64,4.57 -0.97,0.68 -1.32,0.66 -1.81,0.37 -0.49,-0.3 -1.59,0.69 -1.59,0.69 0,0 -1.33,0.53 -1.78,-0.67 -0.45,-1.2 -1.22,0.73 -0.94,2.57 0.28,1.84 -1.49,3.34 -2.94,4.78 -1.45,1.43 -1.34,6.01 -1.15,7.84 0.19,1.83 -1.19,4.66 -2.28,5.21 -1.09,0.55 -1.46,2.28 -1.42,3.4 0.04,1.12 -0.48,1.07 -0.74,2.32 -0.27,1.26 -0.45,3.53 -0.72,4.18 -0.27,0.65 -0.26,0.52 -0.2,1.12 0.06,0.59 0.13,1.9 -0.11,4.26 -0.24,2.35 0.33,3.41 0.64,4.06 0.31,0.65 1.13,1.59 0.59,1.89 -0.54,0.3 0.18,0.78 0.92,2.33 0.74,1.55 1.52,4.69 1.6,5.24 0.08,0.56 0.34,1.48 0.57,2.25 0.23,0.76 -0.9,1.88 -0,2.71 0.9,0.83 1.54,1.36 1.37,2.03 -0.18,0.67 0.61,1.77 0.61,1.77 0,0 0.34,0.49 0.7,1.1 0.35,0.61 0.85,0.78 1.09,0.47 0.24,-0.32 0.42,0.03 0.47,0.51 0.05,0.48 0.11,0.66 0.58,1.08 0.47,0.42 0.45,0.05 0.81,0.25 0.36,0.2 0.2,0.49 0.92,0.91 0.73,0.42 0.88,0.95 1.46,1.04 0.58,0.09 0.9,0.91 1.31,1.38 0.42,0.47 0.24,0.35 0.37,0.98 0.13,0.63 0.13,0.36 0.49,0.91 0.36,0.55 0.61,0.58 1.22,0.83 0.61,0.26 0.07,0.7 0.96,0.77 0.9,0.07 0.47,0.1 0.99,0.59 0.52,0.49 0.55,0.33 1.7,0.7 1.14,0.36 1.31,0.68 2.35,1.75 1.04,1.07 2.75,0.89 3.53,1.06 0.78,0.17 0.4,-0.46 0.43,-0.7 0.03,-0.24 0.47,-0.66 0.47,-0.66 0,0 0.06,-0.66 0.51,-0.88 0.45,-0.21 0.67,-0.43 1.3,-0.84 0.63,-0.41 1.2,-0.34 2.17,-0.47 0.96,-0.14 0.57,-0.16 1.03,-0.28 0.46,-0.12 0.29,-0.06 1.18,0.06 0.89,0.12 0.38,-0.01 0.82,-0.21 0.44,-0.19 0.22,-0.38 0.29,-0.84 0.08,-0.45 0.33,-0.27 0.7,-0.67 0.37,-0.4 0.3,-0.37 0.75,-0.99 0.45,-0.62 0.77,-0.58 1.23,-0.71 0.46,-0.14 0.7,-0.34 0.61,-0.81 -0.09,-0.48 0.28,-0.39 0.39,-0.66 0.11,-0.27 0.26,-0.26 0.71,-0.39 0.45,-0.13 0.65,-0.4 0.65,-0.4 0,0 0.35,-0.18 0.71,-0.3 0.36,-0.12 0.78,0.05 0.61,-0.44 -0.17,-0.49 0.43,-0.44 0.34,-0.12 -0.09,0.32 0.44,-0.15 0.73,-0.25 0.29,-0.1 0.31,-0.11 1.58,0.36 1.27,0.47 0.88,0.63 1.12,0.81 0.24,0.18 0.46,0.4 0.72,0.07 0.27,-0.32 0.07,0.56 0.33,0.96 0.26,0.41 0.07,0.21 0.41,0.53 0.34,0.32 0.53,0.28 1.08,0.53 0.55,0.25 0.59,0.18 0.88,-0.07 0.29,-0.25 0.55,-0.19 0.88,-0.42 0.33,-0.23 0.11,-0.44 0.6,-0.21 0.49,0.24 0.08,-0.39 0.19,-0.62 0.11,-0.23 0.27,0.1 1.02,-0.19 0.75,-0.3 0.27,-0.44 0.15,-0.79 -0.12,-0.35 0.61,0.41 1.11,0.4 0.5,-0.02 0.7,0.34 0.7,0.69 0,0.35 0.73,0.21 1.36,-0 0.62,-0.22 0.6,0.61 1.12,0.78 0.52,0.17 0.35,0.11 0.42,0.67 0.08,0.56 0.62,1.46 0.48,2.08 -0.13,0.63 0.21,0.39 0.32,1.17 0.11,0.78 0.4,0.95 0.87,2.18 0.46,1.24 0.54,3.3 0.36,3.94 -0.19,0.65 0.65,0.1 1.13,0.34 0.49,0.24 0.63,0.22 1.52,0.7 0.89,0.48 1.06,1.38 1.56,1.24 0.5,-0.14 0.95,-0.12 1.14,0.43 0.19,0.55 0.68,0.38 1.87,0.96 1.19,0.58 1.79,0.96 2.71,1.63 0.93,0.67 0.3,0.71 1.48,1.41 1.17,0.7 2.47,2.12 3.51,2.93 1.03,0.81 2.03,1.16 1.54,2.27 -0.49,1.1 0.32,0.59 1.97,1.3 1.65,0.71 3.19,3.21 2.98,4.27 -0.22,1.06 -0.82,1.68 -0.38,3.22 0.44,1.54 1.28,2.94 1.36,3.84 0.08,0.9 1.41,1.9 1.41,1.9 0,0 0.51,0.81 1.9,1.97 1.39,1.15 5.9,3.27 7.71,3.98 1.82,0.71 1.97,2.35 3.57,3.6 1.6,1.26 3.58,2.61 5.13,3.59 1.56,0.98 1.55,0.46 2.67,1 1.12,0.55 5.44,2.96 6,3.41 0.56,0.45 -0.45,0.74 0.41,1.2 0.86,0.46 1.17,0.88 1.69,0.52 0.52,-0.35 0.35,-0 1.2,0.12 0.86,0.12 0.55,-0.08 1.05,-0.66 0.5,-0.58 0.45,-0.21 1.42,-0.26 0.98,-0.04 0.07,-0.49 0.46,-1.03 0.4,-0.54 0.47,-0.16 0.92,-0.2 0.45,-0.04 0.56,-0.08 0.91,-0.07 0.35,0.01 0.26,-0.1 1.07,-0.44 0.81,-0.34 0,0 0.54,-0.13 0.54,-0.13 0.29,-0.16 0.31,-0.45 0.01,-0.3 0.64,-0.51 0.64,-0.51l1.36 -1.11c0,0 0.29,-0.68 0.52,-1.69 0.23,-1.01 -0.02,-1.18 0.79,-1.65 0.81,-0.47 0,-0.5 0.08,-1.06 0.08,-0.55 0.14,-0.88 0.23,-1.82 0.08,-0.94 0.1,-1.12 0.76,-1.41 0.66,-0.28 0.11,-0.44 -0.14,-0.85 -0.25,-0.41 -0.04,-0.77 0.2,-1.76 0.24,-0.99 -0.28,-0.5 -0.53,-1.46 -0.25,-0.96 0,0 -0.71,-0.38 -0.71,-0.38 -0.01,-0.93 -0.01,-0.93l0.66 -1 1.88 -1.07 0.46 -0.58c0,0 -0.02,-0.73 -0.23,-1.01 -0.21,-0.28 -0.45,-0.85 -0.45,-0.85 0,0 -0.03,-0.77 -0.14,-1.08 -0.11,-0.31 -0.22,-0.43 -0.63,-0.71 -0.41,-0.29 -0.1,-0.28 -0.22,-0.97 -0.12,-0.69 -1.24,-1.36 -1.7,-2.01 -0.46,-0.66 -0.12,-0.35 0.27,-1.02 0.39,-0.68 0.12,-0.55 0.37,-1.06 0.25,-0.51 0.47,-0.9 1.1,-1.66 0.63,-0.76 -0.67,0.42 0.07,-0.99 0.74,-1.42 0.12,-0.51 1.29,-1.84 1.17,-1.33 1.64,-1.32 1.64,-1.32l0.88 -1.35 0.84 -1.28 -0.08 -1.43 0.55 -0.95c0,0 -0.09,-0.43 -0.66,-1.23 -0.56,-0.8 -0.95,-1.24 -2.03,-4.72 -1.08,-3.47 -0.29,-0.83 -1.07,-2.08 -0.78,-1.25 -0,0 -1.19,-0.41 -1.19,-0.41 -0.37,-1.39 -0.79,-2.29 -0.43,-0.9 -1.53,-2.03 -1.53,-2.03 0,0 -0.57,-0.85 -0.37,-1.62 0.2,-0.77 -1.97,0.21 -1.97,0.21l-0.86 -2.5 -0.43 -1.25 1.36 -1.97c0,0 0.58,-1.7 0.43,-2.47 -0.15,-0.76 0.16,-0.62 0.77,-1.88 0.61,-1.26 0.05,0.01 0.05,-0.69 -0.01,-0.7 1.25,-1.07 1.25,-1.07 0,0 0.97,-0.68 0.99,-2.67 0,0 1.01,-3.37 2.31,-5.69 1.3,-2.31 2.72,-3.61 5.99,-11.72 3.27,-8.11 1.08,-13.91 0.41,-15.62 -0.67,-1.71 -1.5,0.59 -1.96,1.29 -0.46,0.7 -2.2,0.83 -3.9,1.73 -1.71,0.9 -3.44,1.96 -3.44,1.96 0,0 -2.1,1.11 -3.42,1.56 -1.32,0.45 -2.35,-0.28 -3.16,-2.64 -0.81,-2.36 -5.32,-3.29 -5.32,-3.29l-5.89 -1.55c0,0 -1.29,-1.73 -2.47,-3.57 -1.18,-1.85 -1.25,-1.82 -3.6,-2.57 -2.35,-0.74 -2.64,-1.81 -3.33,-4.05 -0.69,-2.24 -1.68,-2.35 -2.49,-2.66 -0.8,-0.31 -2.66,-1.12 -3.05,-1.75 -0.39,-0.62 -0.3,-0.54 -0.12,-1.36 0.18,-0.82 -1.72,-1.62 -1.72,-1.62 0,0 -1.3,-0.89 -2.49,-2.34 -1.2,-1.45 -0.95,-0.9 -2.97,-3.23 -2.02,-2.33 -2.93,-2.08 -3.96,-3.06 -1.04,-0.98 5.25,3.26 4.89,2.22 -0.36,-1.04 -0.04,-2.31 0.21,-3.62 0.25,-1.31 0.35,1.69 0.41,3.06 0.07,1.37 1.59,0.91 1.59,0.91l3.97 1.89c0,0 0.85,1.8 3.88,3.67 3.03,1.87 2.19,1.29 3.82,2.82 1.63,1.53 0.68,1.63 2.55,3.2 1.88,1.57 2.85,1 4.76,2.67 1.91,1.67 2.86,2.74 4.53,3.86 1.66,1.12 1.39,1.5 1.66,2.28 0.27,0.78 1.16,2.86 1.72,3.48 0.56,0.62 2.62,3.23 4.54,2.86 1.91,-0.37 0.9,-1.94 2.31,-2.6 1.4,-0.66 1.4,-0.48 2.46,-1.66 1.05,-1.18 0.91,-1.07 1.81,-1.32 0.9,-0.25 0.9,-0.6 1.94,-2.82 1.04,-2.22 0.76,-1.02 3.76,-2.28 3,-1.26 0.85,-2.33 0.85,-2.33 0,0 0.15,-1.37 1.99,-3.24 1.84,-1.87 1.18,-0.41 2.19,-1.76 1.01,-1.36 -0.31,-1.13 0.45,-1.63 0.76,-0.49 1.25,-0.43 1.4,-2.03 0.15,-1.6 0.76,-0.96 2.17,-1.6 1.41,-0.64 -0.26,-0.53 -1.09,-2.26 -0.83,-1.73 -0.48,-1.39 1.03,-1.29 1.51,0.1 -0.1,-0.97 -0.01,-3.18 0.1,-2.21 -0.07,-2.92 -0.68,-3.34 -0.61,-0.41 -2.74,-0.53 -2.74,-0.53 0,0 -1.7,-0.43 -3.81,-0.71 -2.11,-0.28 -0.75,-0.36 -1.52,-1.03 -0.77,-0.67 -0.7,-0.69 -1.51,-2.12 -0.8,-1.43 -0.37,0.51 -0.92,1.4 -0.55,0.89 -0.55,1.12 -0.82,2.14 -0.27,1.02 0.29,0.83 -0.45,1.86 -0.73,1.03 -0.83,0.75 -1.94,0.9 -1.11,0.15 -1.06,0.75 -2.01,1.16 -0.95,0.4 -0.98,-0.36 -1.82,-1.24 -0.84,-0.87 -3.54,-1.27 -3.54,-1.27l-0.74 -1.8c0,0 0,0 -1.97,-0.76 -1.97,-0.76 -1.71,-1.59 -1.71,-1.59l-2.17 -0.34c0,0 -1.18,-0.06 -3.49,-0.55 -2.3,-0.49 -0.29,-0.83 0.16,-1.57 0.45,-0.73 0.71,-0.32 2.21,-0.68 1.51,-0.36 0.82,-0.55 0.64,-1.54 -0.18,-0.98 0.88,0.51 2.38,-0.31 1.5,-0.83 0.28,0.14 1.42,0.98 1.15,0.85 2.97,2.55 5.1,2.52 2.12,-0.03 2.15,0.73 2.15,0.73 0,0 0.62,0.33 2.2,0.18 1.58,-0.15 1.34,-0.27 3.67,-1.61 2.33,-1.34 1.78,-0.34 3.76,1.11 1.98,1.46 0.85,0.1 5.51,-0.57 0.85,-0.12 1.41,-0.22 1.78,-0.29 -0.01,0.06 0.05,0.13 0.25,0.22 1.22,0.51 1.32,-0.8 1.32,-0.8 0,0 0.47,0.23 0.71,0.14 0.24,-0.08 1.51,-1.37 2.91,-1.93 1.4,-0.56 3.01,-1.85 4.3,-1.48 1.29,0.37 1.25,1.04 2.04,0.5 0.78,-0.54 1,0.66 2.13,1.91 1.13,1.24 1.81,-0.27 1.81,-0.27 0,0 0.38,0.76 0.86,1.02 0.48,0.26 1.78,0.44 2.91,-0.11 1.13,-0.54 0.78,-0.11 0.56,0.27 -0.22,0.38 -0.54,1.15 -1.57,1.2 -1.03,0.04 0.63,1.26 3.23,2.38 2.6,1.12 1.91,-0.19 3.22,-0.91 1.31,-0.72 -0.27,-1.92 -0.44,-3.19 -0.16,-1.26 1.25,1.16 1.51,2.7 0.26,1.54 1.18,1.61 2.12,2.77 0.94,1.15 0.83,2.31 4.15,6.53 3.31,4.22 10.4,13.77 12.26,15.34 1.86,1.57 1.71,0.81 2.1,-0.45 0.38,-1.26 1.18,-1.42 1.18,-1.42 0,0 -0.26,-0.76 -0.24,-1.27 0.02,-0.51 -0.04,-0.8 0.67,-1.9 0.71,-1.1 -0.05,-0.6 -0.05,-0.6 0,0 -0.15,-0.34 -0.71,-1.62 -0.56,-1.28 -0.16,-1.5 -0.16,-1.5l-0.26 -1.77c0,0 -0.62,-1.46 -1.02,-3.41 -0.4,-1.96 -1.13,-2.48 -1.39,-3.36 -0.26,-0.88 -0.03,-0.65 0.6,-0.86 0.63,-0.22 0.28,-0.87 0.32,-1.43 0.04,-0.56 0.44,0.04 0.66,-0.23 0.22,-0.27 0.62,-0.8 0.46,-1.48 -0.16,-0.68 0.31,-1.59 0.31,-1.59 0,0 -0,-1.7 0.12,-2.48 0.12,-0.78 0.28,-0.99 0.63,-1.65 0.35,-0.66 0.84,-1.06 0.56,-1.75 -0.27,-0.68 -0.1,-0.28 0.29,-0.41 0.38,-0.13 0.57,-0.16 0.74,-0.33 0.17,-0.18 0.56,-1.63 0.56,-1.63 0,0 -0.1,-0.63 -0.37,-1.42 -0.27,-0.8 -0.03,-0.42 0.05,-1.1 0.07,-0.69 0.07,-0.49 0.03,-1.37 -0.03,-0.88 0.9,0.35 0.9,0.35l0.91 -0.08 0.31 0.45 0.53 0.53 1.14 -0.39 0.11 -1.37c0,0 -0.5,-1 -0.77,-1.33 -0.27,-0.33 0.37,-1.51 0.37,-1.51l0.99 0.5c0,0 1.02,1.06 1.43,2.35 0.41,1.3 0.81,-0.12 0.81,-0.12 0,0 0.25,0.4 0.29,0.85 0.04,0.45 1.47,0.65 1.47,0.65l0.91 0.62 0.89 0.55c0,0 0.17,0.48 0.33,1.52 0.16,1.03 0.39,1.03 0.58,0.46 0.19,-0.57 0.27,-0.91 0.41,-0.49 0.14,0.42 1.81,2.56 1.81,2.56 0,0 0.66,2.02 1,3.15 0.35,1.12 0.45,0.62 0.74,0.68 0.29,0.05 1,0.32 1.13,0.23 0.13,-0.08 -0.02,-0.85 0.29,-1.96 0.31,-1.12 0.48,-0.86 0.28,-1.88 -0.2,-1.02 1.16,0.34 1.96,1.3 0.8,0.97 1.8,2.47 2.99,4.74 1.19,2.27 1.56,3.01 2.11,5.45 0.54,2.43 1.04,5.4 1.64,7.47 0.59,2.07 2.4,3.08 2.79,3.7 0.39,0.62 0.77,2.06 1.02,2.97 0.25,0.9 1.33,2.86 1.33,2.86 0,0 0.51,1.98 0.77,2.76 0.27,0.78 1.02,1.28 1.71,1.92 0.68,0.64 1.01,0.23 1.23,-0.31 0.22,-0.54 0.03,-0.77 -1.12,-2.58 -1.15,-1.82 -0.41,-0.85 -0.59,-3.41 -0.18,-2.56 -1.31,-3.68 -2.08,-4.47 -0.77,-0.78 -1.11,-0.86 -1.77,-0.87 -0.66,-0 -0.72,-0.96 -1,-2.33 -0.28,-1.38 -0.68,-1.08 -0.87,-2.53 -0.19,-1.45 -0.27,-0.22 -0.5,0.25 -0.23,0.47 -0.18,0.14 -0.77,-0.78 -0.59,-0.92 -0.36,-1.39 -0.57,-2.21 -0.21,-0.82 -0.11,-1.01 -0.22,-3.69 -0.11,-2.68 -0.21,-0.62 -0.43,-1.36 -0.22,-0.74 -0.17,-1.61 -0.05,-2.08 0.11,-0.47 0.41,0.29 0.6,0.84 0.19,0.56 0.22,0.74 0.6,0.96 0.38,0.22 1.31,-0.26 1.66,0.09 0.35,0.34 1.13,1.36 1.13,1.36 0,0 0.42,0.67 0.85,1.57 0.43,0.9 0.67,0.93 1.42,1.3 0.75,0.36 0.55,1.05 0.55,1.05l0.04 1.35c0,0 0.41,0.87 0.74,0.56 0.32,-0.3 0.16,-0.44 0.63,-2 0.47,-1.56 -0.37,-1.31 -0.44,-2.29 -0.07,-0.99 0.71,-0.09 0.99,-1.43 0.28,-1.34 -0.08,-2.61 -0.19,-3.58 -0.1,-0.97 -0.39,-1.58 -0.58,-2.13 -0.19,-0.56 -0.81,-1.9 -1.4,-2.93 -0.59,-1.04 -0.54,-0.67 -1.93,-2.67 -1.39,-2.01 -3.65,-4.29 -4.28,-4.89 -0.63,-0.6 -0.82,-1.7 -1.13,-2.95 -0.31,-1.25 -0.15,-2.06 -0.31,-2.88 -0.16,-0.82 -0.27,-1.48 0.66,-1.8 0.94,-0.32 0.37,0.74 1.83,2.11 1.46,1.36 0.3,-1.85 -0.24,-3.76 -0.54,-1.91 0.56,-1.98 1.17,-3.43 0.61,-1.45 -0.81,-2.36 -0.81,-2.36zm-154.11 26.26c0.03,-0.09 0.32,-0.06 0.84,-0.03 0.33,0.03 0.53,0.06 0.64,0.07 0.61,0.07 0.93,-0.24 1.67,-0.49 0.85,-0.28 1.81,-0.31 1.88,-0.12 0.05,0.16 -0.54,0.5 -0.7,0.59 -0.29,0.17 -0.63,0.3 -1.41,0.48 -0.88,0.2 -1.33,0.3 -1.69,0.23 -0.7,-0.14 -1.27,-0.61 -1.22,-0.75zm-5.08 -3.75c-0.05,0.06 -0.32,0.37 -0.23,0.62 0.08,0.23 0.37,0.19 0.53,0.46 0.17,0.3 -0.07,0.53 0.11,0.76 0.14,0.19 0.42,0.2 0.73,0.21 0.48,0.02 0.52,-0.11 0.77,-0.07 0.64,0.1 0.72,1.03 1.23,1.05 0.28,0.01 0.58,-0.26 0.6,-0.5 0.01,-0.15 -0.08,-0.27 -0.25,-0.46 -0.67,-0.73 -1.06,-0.82 -1.05,-1.09 0,-0.25 0.32,-0.5 0.59,-0.55 0.32,-0.06 0.58,0.16 0.63,0.09 0.05,-0.06 -0.11,-0.29 -0.31,-0.45 -0.27,-0.23 -0.62,-0.36 -1.25,-0.42 -0.83,-0.08 -1.64,-0.15 -2.09,0.35zm-1.24 1.24c-0.02,0.12 0.06,0.27 0.2,0.3 0.14,0.03 0.26,-0.08 0.3,-0.2 0.03,-0.11 0.01,-0.24 -0.08,-0.3 -0.14,-0.09 -0.39,0.02 -0.42,0.2zm-0.7 -1.29c-0.2,0.09 -0.29,0.38 -0.19,0.59 0.13,0.24 0.49,0.3 0.67,0.14 0.11,-0.09 0.13,-0.25 0.11,-0.37 -0.05,-0.25 -0.35,-0.46 -0.59,-0.36zm-39.73 -42.55c-3.41,5.24 -3.31,5.09 -3.47,5.32 -3.35,5.1 -4.02,5.37 -5.78,8.57 -1.14,2.06 -2.85,5.56 -2.42,5.84 0.53,0.34 3.48,-4.6 9.89,-10.68 1.15,-1.09 0.71,-0.6 5.47,-4.91 4.85,-4.38 5.96,-5.48 7.23,-6.91 2.93,-3.31 2.16,-3.28 3.98,-4.86 2.13,-1.85 4.18,-2.76 6.39,-5.63 1.3,-1.69 1.12,-2.07 1.06,-2.17 -0.68,-1.07 -6.4,1.46 -7.38,1.9 -1.57,0.69 -3.52,1.57 -5.75,3.26 -0.76,0.58 -1.44,1.16 -2.06,1.73 -1.73,1.76 -3.39,3.57 -5.01,5.42 -0.81,1.07 -1.46,2.05 -2.15,3.12zm106.18 -39.4c-0,0.39 2.15,1.31 3.85,0.58 1.1,-0.48 1.23,-1.31 2.94,-2.12 0.74,-0.35 1.32,-0.48 1.31,-0.55 -0.03,-0.11 -1.64,0.17 -2.98,0.48 -0.83,0.19 -0.74,0.21 -3.28,0.95 -1.59,0.46 -1.83,0.52 -1.83,0.65zm-104.61 48.81c0.04,0.58 -0.27,0.82 -0.16,0.99 0.19,0.3 1.53,-0.08 2.84,-0.78 1.03,-0.55 2.66,-1.46 3.19,-3.15 0.07,-0.23 0.35,-1.11 -0.03,-1.43 -0.31,-0.26 -0.92,-0.02 -1.55,0.22 -0.37,0.14 -0.91,0.35 -1.45,0.85 -0.71,0.65 -0.87,1.26 -1.14,1.21 -0.32,-0.07 -0.2,-0.95 -0.56,-1.05 -0.36,-0.1 -0.94,0.66 -1.18,1.3 -0.07,0.19 -0.21,0.56 -0.15,1.02 0.05,0.38 0.18,0.45 0.21,0.82zm-0.85 20.55c-0.22,-0.04 -0.31,-0.57 -0.31,-0.9 0,-0.63 0.35,-1.4 0.97,-1.81 0.27,-0.18 0.47,-0.2 0.49,-0.36 0.05,-0.33 -0.71,-0.5 -0.75,-0.95 -0.02,-0.27 0.32,-0.56 1.01,-1.12 0.58,-0.47 0.76,-0.53 1.15,-0.94 0.14,-0.15 0.29,-0.34 0.57,-0.7 0.82,-1.06 0.95,-1.35 1.24,-1.36 0.27,-0 0.59,0.26 0.66,0.55 0.12,0.56 -0.81,0.76 -1.03,1.75 -0.1,0.46 0.05,0.64 -0.13,1.32 -0.03,0.11 -0.11,0.41 -0.28,0.76 -0.09,0.19 -0.38,0.74 -1.23,1.51 -0.78,0.71 -0.87,0.55 -1.37,1.09 -0.61,0.66 -0.76,1.21 -1,1.16zm2.8 1.95c0.17,0.17 0.97,-0.53 4.06,-2.64 1.22,-0.83 1.72,-1.14 2.23,-1.85 0.53,-0.73 0.46,-1.01 1.14,-1.87 0.72,-0.91 1.22,-1.12 1.17,-1.57 -0.06,-0.5 -0.7,-0.43 -1.26,-1.2 -0.23,-0.31 -0.25,-0.49 -0.7,-2.48 -0.29,-1.27 -0.29,-1.24 -0.29,-1.3 -0.04,-1.6 1.29,-2.61 0.99,-2.98 -0.26,-0.32 -1.38,0.37 -1.72,-0.03 -0.24,-0.28 0.11,-0.87 -0.01,-0.93 -0.23,-0.12 -1.57,2.13 -1.79,2.01 -0.13,-0.07 0.26,-0.91 0.13,-0.98 -0.19,-0.1 -1.19,1.53 -1.67,2.36 -0.74,1.27 -0.73,1.48 -0.68,1.63 0.23,0.73 1.4,0.51 2.17,1.58 0.13,0.18 0.61,0.83 0.41,1.41 -0.15,0.45 -0.57,0.42 -1.29,1.22 -0.34,0.38 -0.55,0.62 -0.59,0.98 -0.06,0.55 0.34,0.73 0.22,1.09 -0.16,0.47 -0.92,0.3 -1.52,0.99 -0.09,0.1 -0.47,0.54 -0.34,0.81 0.22,0.48 1.77,0 1.91,0.35 0.1,0.27 -0.76,0.66 -1.66,1.73 -0.43,0.52 -1.08,1.46 -0.91,1.63zm47.89 -55.74c0.37,0.52 2.66,-0.52 3.46,-0.88 1.66,-0.75 1.48,-0.96 2.58,-1.31 1.36,-0.43 1.88,-0.18 3.31,-0.75 0.73,-0.29 1.73,-0.81 1.66,-1.04 -0.07,-0.23 -1.24,-0.13 -2.15,0.08 -1.03,0.23 -1.33,0.51 -3.22,1.34 -1.34,0.59 -2.01,0.88 -2.43,0.95 -1.36,0.24 -2.14,-0.11 -2.78,0.49 -0.35,0.32 -0.6,0.88 -0.43,1.12zm32.15 -10.09c0.32,0.33 1.38,-0.01 1.46,-0.5 0.03,-0.2 -0.11,-0.36 -0.13,-0.38 -0.3,-0.33 -1.07,-0.27 -1.33,0.19 -0.12,0.2 -0.16,0.53 0.01,0.7zm-7.38 0.21c-0.22,0.29 -0.37,0.75 -0.2,1 0.22,0.33 0.94,0.18 2.37,-0.12 1.34,-0.28 2.08,-0.56 3.05,-0.93 0.87,-0.33 0.97,-0.43 0.96,-0.48 -0.03,-0.14 -0.76,-0.07 -2.07,-0.03 -2.79,0.1 -3.63,-0.07 -4.11,0.56zm-17.49 16.84c0.01,-0.49 1.04,-1.05 1.58,-0.7 0.23,0.15 0.38,0.45 0.33,0.74 -0.07,0.44 -0.6,0.71 -1.05,0.67 -0.43,-0.04 -0.87,-0.38 -0.87,-0.71zm1.59 -2.6c-0.12,-0.21 -0.06,-0.36 0.27,-1.69 0.52,-2.08 0.45,-2.04 0.58,-2.26 0.65,-1.03 1.47,-0.47 3.11,-1.69 0.98,-0.73 1.21,-1.32 2.37,-1.79 0.51,-0.2 1.23,-0.39 1.32,-0.22 0.11,0.2 -0.69,0.83 -1.6,1.56 -0.94,0.75 -1.16,0.82 -1.9,1.47 -0.89,0.77 -1.19,1.19 -1.38,1.52 -0.28,0.49 -0.62,1.07 -0.39,1.57 0.22,0.49 0.87,0.66 1.14,0.73 0.67,0.18 1.17,0.01 1.21,0.13 0.03,0.11 -0.41,0.38 -0.96,0.6 -1.2,0.48 -3.31,0.87 -3.78,0.06zm-40.49 63.16c-0.17,0.4 0.45,0.7 0.4,1.38 -0.02,0.32 -0.17,0.31 -0.41,0.96 -0.21,0.56 -0.33,0.88 -0.23,1.24 0.13,0.5 0.65,0.99 1.09,0.91 0.28,-0.05 0.43,-0.31 0.63,-0.64 0.41,-0.69 0.45,-1.37 0.46,-1.59 0.02,-0.71 -0.19,-0.61 -0.24,-1.59 -0.02,-0.44 0.01,-0.75 -0.21,-0.94 -0.18,-0.16 -0.44,-0.15 -0.59,-0.14 -0.03,0 -0.74,0.04 -0.9,0.43zm1.05 -4.4c-0.28,-0.06 -0.71,0.62 -0.86,1.23 -0.14,0.59 -0.01,1.05 0.05,1.26 0.04,0.14 0.24,0.83 0.52,0.83 0.13,-0 0.25,-0.21 0.48,-0.63 0.24,-0.44 0.36,-0.66 0.39,-0.91 0.02,-0.2 -0.05,-0.42 -0.18,-0.87 -0.18,-0.59 -0.27,-0.89 -0.39,-0.91zm6.38 8.15c-0.17,0.12 -0.32,0.34 -0.33,0.58 -0,0.5 0.69,0.85 1.12,1.07 0.52,0.26 0.94,0.32 1.57,0.42 0.66,0.1 1,0.15 1.27,-0.03 0.43,-0.28 0.5,-0.87 0.51,-0.96 0.06,-0.51 -0.2,-0.56 -0.13,-1.06 0.05,-0.38 0.23,-0.49 0.29,-1.03 0.03,-0.25 0.04,-0.43 -0.06,-0.5 -0.18,-0.14 -0.63,0.14 -0.98,0.37 -0.68,0.44 -0.64,0.61 -1.09,0.81 -0.5,0.23 -1.04,0.24 -1.22,0.25 -0.48,0.01 -0.71,-0.08 -0.96,0.1zm187.69 -2.12c-0.24,0.09 -0.76,-0.69 -0.88,-0.86 -0.06,-0.1 -0.27,-0.42 -0.53,-1.1 -0.29,-0.75 -0.25,-0.92 -0.43,-1.37 -0.29,-0.7 -0.73,-1.08 -0.96,-1.34 -1.05,-1.13 -0.61,-2.49 -1.26,-4.57 -0.74,-2.38 -2.37,-3.99 -2.51,-3.91 -0.07,0.04 0.2,0.53 0.7,1.82 0.27,0.69 0.33,0.89 1.05,3.05 1.11,3.3 0.54,1.51 1.25,3.64 0.44,1.29 0.59,1.79 1.01,2.49 0.61,1.01 0.8,0.85 1.32,1.68 0.45,0.73 0.42,1.06 1.22,4.35 0.19,0.77 0.28,1.15 0.35,1.35 0.52,1.57 1.01,1.8 1.18,2.86 0.17,1.08 -0.31,0.99 -0.11,2.05 0.17,0.89 0.54,1.13 0.89,2.6 0.05,0.23 0.08,0.38 0.13,0.38 0.16,0 0.32,-1.59 0.42,-2.98 -0.75,-3.94 -1.69,-7.87 -2.84,-11.8 0.13,0.89 0.2,1.56 -0,1.64zm-13.57 -27.62c-0.25,0.11 0.05,1.64 0.67,2.95 0.81,1.74 2.2,3.16 2.47,2.99 0.3,-0.19 -0.79,-2.41 -1.32,-3.39 -0.14,-0.25 -1.47,-2.71 -1.81,-2.56zm13.52 95.75c-0.14,0.3 -0.3,0.61 -0.46,0.92 -1.31,2.51 -2.89,4.6 -3.66,5.6 -2.33,3.06 -3.17,3.34 -4.45,5.57 -1.1,1.91 -1.1,2.75 -2.22,6.19 -0.22,0.67 -1.73,5.27 -3.58,8.99 -2.95,5.92 -6.34,8.77 -6.04,9.06 0.24,0.23 2.56,-1.34 5.67,-4.13 6.41,-9.97 11.38,-20.83 14.74,-32.21zm-13.51 -82.99c-0.4,0.13 -0.4,1.11 -0.39,1.34 0,0.08 0.03,1.78 0.99,2.1 0.03,0.01 0.51,0.16 0.82,-0.09 0.49,-0.39 0.17,-1.41 0.1,-1.63 -0.29,-0.93 -1.08,-1.87 -1.53,-1.73zm14.3 28.26c-0.05,0.02 -0.1,0.09 -0.1,1.86 0,2.1 0.07,2.14 -0.07,2.51 -0.24,0.64 -0.63,1.01 -0.49,1.61 0.06,0.28 0.18,0.34 0.21,0.62 0.06,0.55 -0.33,0.97 -0.53,1.27 -0.42,0.62 -0.18,0.93 -0.31,3.95 -0.07,1.45 -0.15,1.98 -0.35,2.02 -0.3,0.05 -0.61,-1 -0.87,-0.94 -0.29,0.06 -0.29,1.43 -0.17,2.66 0.19,2.03 0.52,2 0.78,4.08 0.17,1.37 0.14,2.28 0.67,3.3 0.22,0.41 0.51,0.82 0.74,1.14 0.49,0.68 0.75,1.02 1.02,1.05 0.5,0.04 1.01,-0.73 1.25,-1.32 0.57,-1.39 -0.24,-2.03 -0.04,-4.06 0.16,-1.55 0.66,-1.44 0.58,-2.61 -0.09,-1.31 -0.77,-1.99 -0.4,-3.08 0.17,-0.51 0.36,-0.47 0.57,-0.93 0.67,-1.46 -0.88,-2.51 -1.34,-5.59 -0.1,-0.63 -0.27,-1.8 -0.08,-3.27 0.08,-0.63 0.16,-0.76 0.16,-1.22 0.01,-1.66 -0.94,-3.11 -1.24,-3.03zm-4.99 32.88c-0.4,0.19 -0.58,0.79 -0.42,1.15 0.1,0.21 0.24,0.18 0.42,0.44 0.3,0.41 0.08,0.68 0.3,0.98 0.3,0.41 1.14,0.49 1.66,0.21 0.28,-0.16 0.31,-0.34 0.51,-0.33 0.33,0.01 0.36,0.54 0.9,0.81 0.28,0.15 0.57,0.15 0.79,0.16 0.58,0.01 0.84,-0.2 1.08,-0.02 0.18,0.13 0.14,0.31 0.33,0.39 0.17,0.07 0.38,0 0.51,-0.1 0.28,-0.22 0.33,-0.77 0.11,-1.04 -0.28,-0.34 -0.78,-0.02 -1.5,-0.41 -0.27,-0.15 -0.53,-0.29 -0.57,-0.54 -0.1,-0.53 0.88,-0.86 0.89,-1.7 0,-0.12 0,-0.33 -0.13,-0.5 -0.4,-0.48 -1.73,-0.33 -2.32,0.37 -0.39,0.47 -0.33,1.02 -0.61,1.06 -0.21,0.03 -0.29,-0.28 -0.75,-0.6 -0.25,-0.17 -0.77,-0.53 -1.2,-0.33zm-4.96 -6.29c-0.2,0.11 0.34,1.7 0.57,1.67 0.12,-0.02 0.19,-0.48 0.1,-0.85 -0.12,-0.5 -0.55,-0.88 -0.67,-0.82zm-5.67 -11.75c-0.15,0.1 -0.12,0.46 0.01,0.7 0.28,0.5 1.1,0.62 1.23,0.43 0.11,-0.17 -0.27,-0.62 -0.56,-0.85 -0.12,-0.1 -0.49,-0.39 -0.68,-0.27zm3.41 5.85c-0.21,0.07 -0.34,0.47 -0.19,0.69 0.19,0.27 0.76,0.15 0.84,-0.05 0.09,-0.23 -0.36,-0.73 -0.64,-0.63zm0.67 2.17c0.14,-0.06 0.42,0.25 0.55,0.47 0.08,0.13 0.24,0.41 0.12,0.58 -0.09,0.13 -0.32,0.16 -0.47,0.09 -0.39,-0.18 -0.4,-1.04 -0.2,-1.14zm-2.34 -4.78c-0.34,0.36 0.15,1.49 0.59,1.5 0.3,0.01 0.65,-0.48 0.65,-0.92 0,-0.09 0,-0.25 -0.1,-0.39 -0.24,-0.37 -0.92,-0.43 -1.15,-0.19zm-0.64 -8.86c-0.45,-0.13 -0.6,0.05 -1.11,0.03 -0.83,-0.03 -1.17,-0.53 -1.44,-0.36 -0.3,0.19 -0.14,0.94 -0.08,1.23 0.03,0.13 0.49,2.21 1.86,2.58 0.33,0.09 0.66,0.07 0.9,0.35 0.16,0.18 0.14,0.34 0.27,0.8 0.12,0.42 0.21,0.74 0.39,1.03 0.25,0.41 0.46,0.4 1.06,0.95 0.26,0.24 0.54,0.49 0.74,0.79 0.52,0.78 0.2,1.34 0.47,2.28 0.25,0.85 0.59,0.68 1.26,1.86 0.64,1.13 0.86,2.24 1.05,3.17 0.24,1.2 0.13,1.42 0.45,2.1 0.41,0.85 0.77,0.88 0.94,1.62 0.21,0.86 -0.21,1.14 0.1,1.87 0.17,0.4 0.3,0.32 0.89,1.13 0.58,0.79 0.62,1.09 0.89,1.13 0.55,0.09 1.15,-1 1.21,-1.11 0.53,-0.99 0.3,-1.6 0.37,-3.89 0.05,-1.6 0.2,-2.6 -0.16,-2.74 -0.33,-0.12 -0.77,0.56 -1.06,0.4 -0.19,-0.1 -0.09,-0.45 -0.15,-1.23 -0.06,-0.77 -0.1,-1.39 -0.52,-1.72 -0.27,-0.22 -0.44,-0.1 -0.7,-0.34 -0.37,-0.35 -0.36,-0.92 -0.36,-1.16 0.01,-1.02 0.62,-1.32 0.42,-1.81 -0.17,-0.43 -0.64,-0.21 -1.2,-0.79 -0.33,-0.34 -0.52,-0.8 -0.9,-1.71 -0.13,-0.31 -0.19,-0.49 -0.39,-0.68 -0.33,-0.31 -0.54,-0.18 -0.93,-0.45 -0.3,-0.21 -0.48,-0.52 -0.82,-1.15 -0.27,-0.48 -0.23,-0.51 -0.38,-0.76 -0.61,-1.02 -1.36,-0.81 -1.81,-1.67 -0.29,-0.54 -0.11,-0.86 -0.52,-1.29 -0.09,-0.1 -0.35,-0.34 -0.74,-0.45zm-25.97 -1.16c-0.12,0.05 -0.15,0.28 0.04,2.27 0.12,1.27 0.19,1.92 0.29,2.19 0.38,1.03 0.77,0.97 1.23,2.22 0.09,0.25 0.15,0.46 0.34,0.54 0.43,0.18 1.17,-0.45 1.53,-1.07 0.57,-0.98 0.26,-2.06 0.24,-2.14 -0.24,-0.8 -0.68,-0.86 -1.98,-2.27 -1.1,-1.18 -1.45,-1.85 -1.69,-1.75zm-44.92 65.5c-0.24,0.64 0.05,0.84 -0.17,1.53 -0.16,0.5 -0.34,0.49 -0.55,1.12 -0.13,0.4 -0.12,0.6 -0.2,1 -0.1,0.56 -0.26,0.93 -0.59,1.68 -0.3,0.7 -0.61,1.23 -1.23,2.29 -0.27,0.46 -0.4,0.69 -0.5,0.79 -0.65,0.68 -1.25,0.5 -1.89,1.04 -0.61,0.51 -0.77,1.24 -0.84,1.61 -0.17,0.77 -0,1.37 0.33,2.53 0.36,1.28 0.57,1.31 0.81,2.36 0.14,0.62 0.31,1.34 0.23,2.25 -0.12,1.47 -0.74,1.85 -0.44,2.79 0.08,0.27 0.18,0.37 0.5,1.23 0.18,0.48 0.27,0.72 0.33,0.97 0.17,0.69 0.07,0.86 0.27,1.23 0.2,0.37 0.5,0.56 0.7,0.69 0.66,0.42 1.34,0.43 1.7,0.43 0.5,-0 1.81,-0.01 2.5,-0.86 0.37,-0.46 0.22,-0.75 0.44,-2.79 0.15,-1.43 0.23,-1.32 0.35,-2.6 0.16,-1.74 0.01,-1.79 0.16,-2.93 0.13,-0.97 0.25,-0.98 0.83,-3.23 0.49,-1.91 0.74,-2.88 0.64,-3.33 -0.31,-1.44 -1.47,-1.93 -1.24,-3.15 0.07,-0.36 0.27,-0.86 0.55,-0.89 0.29,-0.03 0.48,0.45 0.68,0.39 0.26,-0.08 0.18,-1.01 0.18,-1.07 -0.06,-0.71 -0.26,-1.22 -0.65,-2.11 -0.74,-1.69 -0.55,-1.06 -1.33,-2.73 -0.34,-0.73 -0.5,-1.12 -0.78,-1.13 -0.34,-0.01 -0.65,0.55 -0.78,0.89zm-24.97 8.22l0 0c-0.06,0.84 -1.17,0.29 -0.05,1.18 1.12,0.89 1.54,0.58 1.79,1.3 0.25,0.73 0.55,2.43 -0.68,1.22 -1.23,-1.21 -0.2,-0.4 -1.49,-2.05 -1.29,-1.65 -0.84,-0.18 -1.63,-2.47 -0.79,-2.29 -0.57,-1.84 -1.21,-2.5 -0.63,-0.66 -0.66,-0.65 -0.66,-0.65 1.13,-0.45 1.86,0.23 1.86,0.23l0.45 1.3 0.36 1.04c0,0 1.32,0.54 1.25,1.37zm-14.58 -21.66l0 0 0.98 -1.66c0,0 1.5,-0.48 2.18,-0.32 0,0 0.85,0.79 2.02,0.35 1.17,-0.44 -0.79,0.85 -0.53,2.39 0.26,1.54 -0.25,0.4 -0.56,1.09 -0.31,0.69 0.06,0.52 0.43,0.9 0.36,0.38 0.17,0.49 0.06,1.07 -0.11,0.58 -0.38,0.36 -1.72,0.75 -1.25,0.36 -0.94,0.75 -0.89,0.8l0.01 0.01c0,0 -0,-0 -0.01,-0.01l-1.62 -1.69 -0.93 -1.7 0.6 -1.99zm2.87 17.14l0 0c-0.58,-0.5 -1.34,-1.52 -1.34,-1.52l-1.83 -1.58 -1.13 -1.59 -1.08 -1.78c0,0 -0.08,-0.9 -0.72,-2.08 0,0 1.02,0.58 1.47,1.24 0.46,0.66 0.8,1.99 1.14,2.98 0.34,0.99 0.31,1.23 1.77,1.08 1.46,-0.15 0.66,0.24 1.53,1.4 0.86,1.16 0.88,0.51 1.78,2.47 0.91,1.96 -1.03,-0.11 -1.61,-0.61zm-20.73 -111.53l0 0c-0.34,0.58 -1.78,1.93 -2.39,1.75 -0.61,-0.18 -1.75,1.22 -1.97,1.14 -0.22,-0.08 -2.08,0.6 -2.35,0.15 -0.27,-0.45 -1.47,0.23 -1.66,-0.21 -0.19,-0.44 -1.91,0.77 -2.31,0.06 -0.4,-0.72 -3.39,1.09 -4.37,2.51 -0.98,1.43 -2.94,2.06 -3.83,2.06 -0.89,-0 -3.99,-1 -3.69,-1.37 0.3,-0.37 -0.44,-1.28 0.05,-1.65 0.5,-0.36 0.5,-1.03 0.27,-1.37 -0.23,-0.35 -0.18,-0.52 0.25,-0.98 0.43,-0.46 -0.24,-0.69 -0.19,-1.22 0.05,-0.52 0.72,-0.05 0.89,-0.46 0.17,-0.41 0.18,-0.26 0.51,-0.56 0.32,-0.3 -0.2,-0.59 -0.42,-1.21 -0.21,-0.62 -0.22,-1.18 0.55,-1 1.01,0.23 0.67,-0.66 1.34,-1.2 0.67,-0.54 0.55,-0.19 1.08,0.09 0.52,0.29 0.69,0.31 1.58,-0.04 0.89,-0.34 2.89,-1.07 3.51,-1.75 0.62,-0.68 0.47,-0.55 1.72,-1.44 1.25,-0.89 1.28,-0.67 2.3,-1.45 1.01,-0.78 2,-0.61 1.62,-0.25 -0.38,0.36 -1.86,1.69 -1.34,1.97 0.52,0.29 0.08,0.13 -0.27,0.68 -0.35,0.55 -0.5,1.26 -2.77,2 -2.27,0.74 -0.85,0.02 -2.77,0.06 -1.93,0.04 -1.62,0.71 -1.37,1.56 0.25,0.84 1.03,1.86 2.33,0.91 1.3,-0.95 1.02,-0.54 1.17,-1.45 0.15,-0.91 1.32,-0.22 2.57,-1 1.25,-0.78 0.37,0.41 2.75,0.45 2.38,0.04 1.49,0.38 3.48,1.09 1.99,0.71 1.57,-0.19 3.1,0.22 1.54,0.4 1,1.32 0.66,1.91zm26.72 0.89l0 0c-0.02,0.34 -0.53,0.64 -1.55,1.23 -1.6,0.92 -2.21,0.97 -2.49,0.97 -0.13,0 -0.54,0 -1.04,-0.14 -0.74,-0.21 -0.82,-0.47 -1.29,-0.63 -1.23,-0.41 -2.23,0.85 -3.06,0.32 -0.14,-0.09 -0.38,-0.29 -0.57,-0.56 -0.17,-0.23 -0.21,-0.37 -0.34,-0.67 -0.44,-0.94 -0.81,-1.12 -0.7,-1.45 0.08,-0.26 0.34,-0.25 0.4,-0.54 0.03,-0.19 -0.06,-0.29 -0.22,-0.65 -0.12,-0.26 -0.2,-0.48 -0.25,-0.65 -0.08,0.02 -0.14,0.01 -0.18,-0.02 -0.1,-0.08 -0.03,-0.35 0.02,-0.36 0.04,-0.01 0.07,0.13 0.16,0.38 0.48,-0.1 1.56,-0.98 1.45,-1.19 -0.07,-0.15 -0.64,0.16 -1.65,0.02 -0.41,-0.06 -0.67,-0.16 -0.77,-0.2 -0.44,-0.18 -0.65,-0.4 -0.9,-0.59 -0.47,-0.35 -0.56,-0.2 -1.81,-0.69 -0.73,-0.28 -0.53,-0.27 -1.65,-0.74 -0.33,-0.14 -0.67,-0.27 -1.09,-0.56 -0.29,-0.19 -0.44,-0.29 -0.55,-0.42 -0.54,-0.63 -0.25,-1.43 -0.6,-1.57 -0.19,-0.08 -0.29,0.16 -0.66,0.2 -0.51,0.04 -1.11,-0.33 -1.24,-0.8 -0.06,-0.23 0.05,-0.26 0.17,-0.96 0.11,-0.67 0.02,-0.76 0.16,-1.05 0.12,-0.23 0.29,-0.38 0.64,-0.68 0.41,-0.36 0.51,-0.34 0.75,-0.61 0.22,-0.24 0.13,-0.25 0.45,-0.71 0.4,-0.58 0.54,-0.57 0.67,-0.93 0.07,-0.19 0.08,-0.31 0.21,-0.48 0.15,-0.19 0.34,-0.28 0.44,-0.33 1.17,-0.53 2.22,-0.73 2.22,-0.73 0.37,-0.07 0.56,-0.11 0.75,-0.11 0.34,-0.01 1.13,-0.03 1.55,0.45 0.3,0.34 0.12,0.59 0.46,0.92 0.25,0.25 0.64,0.38 1,0.36 0.57,-0.04 0.72,-0.47 1.08,-0.4 0.44,0.08 0.81,0.82 0.62,1.13 -0.21,0.34 -1.13,0.15 -1.8,0.01 -1.15,-0.24 -1.65,-0.63 -2.04,-0.35 -0.14,0.1 -0.08,0.16 -0.35,0.67 -0.38,0.73 -0.59,0.79 -0.76,1.25 -0.06,0.17 -0.28,0.76 -0.08,1.22 0.26,0.57 0.98,0.46 2.53,0.93 1.61,0.49 2.57,0.78 3.02,1.58 0.1,0.18 0.28,0.57 0.7,0.84 0.35,0.22 0.82,0.34 0.92,0.21 0.05,-0.07 -0.04,-0.19 -0.13,-0.39 -0.17,-0.36 -0.41,-1.07 -0.19,-1.3 0.21,-0.23 0.83,0.01 1.05,0.1 0.64,0.25 0.63,0.53 1.15,0.65 0.44,0.1 0.6,-0.07 0.92,0.12 0.27,0.16 0.49,0.48 0.41,0.67 -0.05,0.12 -0.2,0.16 -0.31,0.19 -0.86,0.25 -1.36,0.39 -1.69,0.67 -0.04,0.03 -0.37,0.32 -0.45,0.8 -0.08,0.41 0.04,0.96 0.3,1.03 0.22,0.06 0.34,-0.26 0.84,-0.43 0.37,-0.13 0.9,-0.15 1.04,0.08 0.09,0.14 0.02,0.36 -0.08,0.7 -0.1,0.31 -0.17,0.38 -0.14,0.45 0.11,0.21 0.76,-0.2 1.37,-0.07 0.78,0.18 0.7,1.07 1.81,2.29 0.82,0.91 1.42,1.03 1.39,1.5zm-2.19 -14.91l0 0c-0.1,0.12 -0.29,0.2 -0.47,0.16 -0.32,-0.07 -0.34,-0.49 -0.78,-1.42 -0.3,-0.62 -0.43,-0.71 -0.4,-1 0.05,-0.54 0.59,-0.96 0.71,-0.89 0.13,0.08 -0.35,0.67 -0.1,1.23 0.17,0.39 0.5,0.31 0.83,0.82 0.19,0.29 0.42,0.82 0.2,1.1zm2.84 -0.98l0 0c0.04,0.3 -0.23,0.61 -0.51,0.73 -0.4,0.17 -0.91,-0.05 -1.06,-0.36 -0.14,-0.32 0.19,-0.52 0.08,-0.87 -0.16,-0.52 -1.01,-0.45 -1.14,-0.95 -0.07,-0.27 0.09,-0.59 0.23,-0.6 0.14,-0.01 0.23,0.29 0.4,0.56 0.63,1.03 1.92,0.88 2,1.5zm-1.29 -3.16l0 0c-0.09,0.04 -0.33,0.13 -0.99,0.17 -0.66,0.03 -0.99,0.05 -1.05,-0.1 -0.08,-0.17 0.21,-0.49 0.47,-0.66 0.37,-0.23 0.76,-0.21 1.25,-0.17 0.35,0.03 0.9,0.07 0.93,0.26 0.04,0.22 -0.58,0.49 -0.61,0.5zm25.04 -9.63l0 0c0.07,0.37 -0.54,0.75 -0.72,0.86 -0.56,0.34 -0.97,0.34 -2.41,0.54 -1.27,0.17 -1.6,0.26 -1.87,0.56 -0.07,0.07 -0.42,0.45 -0.4,0.95 0.04,0.99 1.48,1.47 1.32,1.9 -0.08,0.24 -0.59,0.26 -0.67,0.26 -0.93,0.02 -1.48,-1.05 -1.53,-1.13 -0.05,-0.1 -0.26,-0.54 -0.22,-1.15 0.01,-0.16 0.06,-0.87 0.51,-1.31 0.46,-0.45 0.9,-0.18 2.62,-0.41 1.23,-0.16 1.85,-0.25 2.22,-0.73 0.23,-0.3 0.31,-0.67 0.6,-0.7 0.22,-0.03 0.49,0.16 0.54,0.37zm18.12 -16.43l0 0c-0.39,0.35 -1.13,0.45 -1.51,0.13 -0.61,-0.51 0.3,-1.61 -0.23,-2.71 -0.66,-1.35 -2.76,-1.23 -2.8,-2.06 -0.02,-0.39 0.42,-0.75 0.78,-0.89 1.13,-0.43 2.74,0.9 3.48,2.22 0.52,0.92 1.06,2.62 0.29,3.32z"/>
  <path class="fil18" d="M202.68 15.88c22.88,14.56 41.18,36.69 50.68,64.33 22.29,64.84 -12.2,135.47 -77.03,157.76 -27.65,9.51 -56.34,8.69 -81.9,-0.41 30.79,19.59 69.89,25.49 107.08,12.7 64.84,-22.29 99.33,-92.93 77.03,-157.76 -12.79,-37.19 -41.48,-64.4 -75.87,-76.63z"/>
  <path class="fil19" d="M57.46 179.93c-22.29,-64.84 12.2,-135.47 77.03,-157.76 29.82,-10.25 60.87,-8.49 87.87,2.71 -29.87,-16.92 -66.57,-21.45 -101.59,-9.41 -64.84,22.29 -99.33,92.93 -77.03,157.76 12.04,35.02 38.18,61.17 69.89,74.32 -25.44,-14.41 -45.92,-37.8 -56.18,-67.62z"/>
  <path class="fil20" d="M320.67 96.68c0.01,0.02 0.04,0.05 0.07,0.07l9.61 58.39z"/>
  <path class="fil20" d="M320.67 96.68c0.01,0.02 0.04,0.05 0.07,0.07l9.61 58.39z"/>
  <path class="fil21" d="M190.47 168.5l17.02 -57.32c0.69,-2.32 -0.37,-4.74 -2.53,-5.82 -17.26,-8.6 -35.2,-17.18 -52.75,-25.23 -1.1,-0.51 -2.25,-0.51 -3.36,-0.02 -1.11,0.49 -1.87,1.35 -2.24,2.51l-19.18 61.42c-0.74,2.37 0.45,4.89 2.75,5.83 20.92,8.52 40.34,16.16 54.2,21.6 1.24,0.49 2.49,0.44 3.69,-0.15 1.2,-0.58 2.01,-1.54 2.39,-2.82z"/>
  <path class="fil22" d="M198.09 172.56l16.84 -58.12c0.26,-0.91 0.86,-1.58 1.73,-1.96 0.87,-0.38 1.77,-0.35 2.61,0.08 17.02,8.69 33.01,17.27 46.89,25.22 1.8,1.03 2.63,3.09 2.05,5.08l-15.7 53.57c-0.27,0.93 -0.88,1.63 -1.77,2.03 -0.89,0.4 -1.81,0.4 -2.69,-0.01 -15.52,-7.2 -31.47,-14.18 -47.36,-20.57 -2.12,-0.85 -3.23,-3.14 -2.6,-5.33z"/>
  <path class="fil23" d="M307.07 168.69l-16.12 49.82c-0.21,0.64 -0.66,1.1 -1.3,1.31 -0.64,0.21 -1.28,0.12 -1.82,-0.27 -6.1,-4.31 -15.68,-9.5 -27.13,-15.09 -1.87,-0.91 -2.8,-2.99 -2.22,-5l15.49 -53.9c0.2,-0.68 0.65,-1.19 1.32,-1.45 0.66,-0.26 1.34,-0.2 1.95,0.16 11.87,7.12 21.57,13.55 28.18,18.87 1.68,1.35 2.32,3.49 1.65,5.54z"/>
  <path class="fil24" d="M119.73 139.99l19.35 -61.04c0.76,-2.4 -0.39,-4.96 -2.69,-5.99 -17.01,-7.6 -33.3,-14.54 -47.86,-20.36 -0.94,-0.38 -1.89,-0.35 -2.81,0.07 -0.92,0.42 -1.56,1.12 -1.89,2.08l-21.77 62.74c-0.55,1.58 0.19,3.3 1.71,4 15.44,7.06 32.64,14.43 49.59,21.47 1.28,0.53 2.58,0.5 3.83,-0.08 1.25,-0.58 2.11,-1.56 2.53,-2.88z"/>
  <path class="fil25" d="M55.8 113.66l21.81 -60.78c0.81,-2.25 -0.32,-4.73 -2.54,-5.61 -10.02,-3.95 -21.1,-7.82 -31.44,-10.4 -1.59,-0.4 -3.21,0.44 -3.8,1.97l-22.07 57.08c-0.29,0.75 -0.03,1.59 0.65,2.03 7.61,5.04 19.09,11.1 32.72,17.61 0.9,0.43 1.84,0.46 2.76,0.08 0.92,-0.38 1.57,-1.06 1.91,-2z"/>
  <path class="fil26" d="M30.8 35c2.18,-0.26 4.75,0.17 6.91,0.56l-23.54 59.38c-4.08,-3.17 -6.15,-5.8 -5.58,-7.7l22.21 -52.25z"/>
  <path class="fil27" d="M315.12 175.01l-20.07 52.88c0.19,-1.1 -0.52,-2.44 -1.96,-3.98 -0.66,-0.71 -0.87,-1.65 -0.55,-2.57l17.55 -51.64c0.14,-0.41 0.47,-0.7 0.89,-0.78 0.43,-0.09 0.84,0.05 1.13,0.38 2.03,2.29 3.09,4.22 3.01,5.71z"/>
  <path class="fil28" d="M4.25 103.52c11.83,23.09 128.53,65.48 157.4,76.96 26.06,10.37 53.65,21.9 83.18,33.59 31.28,12.38 46.75,21.55 44.68,28.36l5.53 -14.53c0.19,-1.1 -0.52,-2.44 -1.96,-3.98 -0.66,-0.7 -0.87,-1.65 -0.55,-2.57l17.55 -51.64c0.14,-0.41 0.47,-0.7 0.89,-0.78 0.43,-0.09 0.84,0.05 1.13,0.38 2.03,2.29 3.09,4.22 3.01,5.71l-20.04 52.78 24.34 -63.93c4.58,-23.26 -251.89,-151.95 -283.26,-141.46l-5.35 12.6c2.18,-0.26 4.75,0.17 6.91,0.56l-23.54 59.38c-4.08,-3.17 -6.15,-5.8 -5.58,-7.69l20.63 -48.54 -24.92 58.65c-1.12,2.64 -1.51,3.32 -0.05,6.16zm186.22 64.98l17.02 -57.32c0.69,-2.31 -0.37,-4.74 -2.53,-5.82 -17.26,-8.6 -35.2,-17.18 -52.75,-25.23 -1.1,-0.51 -2.25,-0.51 -3.36,-0.02 -1.11,0.49 -1.87,1.35 -2.24,2.51l-19.18 61.42c-0.74,2.37 0.45,4.89 2.75,5.83 20.91,8.52 40.34,16.16 54.2,21.59 1.24,0.49 2.49,0.44 3.69,-0.15 1.2,-0.58 2.01,-1.54 2.39,-2.82zm7.62 4.07l16.84 -58.12c0.26,-0.91 0.86,-1.58 1.72,-1.96 0.87,-0.38 1.77,-0.35 2.61,0.08 17.02,8.69 33.01,17.27 46.89,25.22 1.8,1.03 2.63,3.09 2.04,5.08l-15.7 53.57c-0.27,0.94 -0.88,1.63 -1.77,2.03 -0.89,0.4 -1.81,0.4 -2.69,-0.01 -15.52,-7.2 -31.47,-14.18 -47.36,-20.57 -2.12,-0.85 -3.23,-3.14 -2.6,-5.33zm108.97 -3.87l-16.11 49.82c-0.21,0.64 -0.66,1.1 -1.3,1.31 -0.64,0.21 -1.28,0.12 -1.82,-0.27 -6.1,-4.31 -15.68,-9.5 -27.13,-15.09 -1.87,-0.91 -2.8,-2.99 -2.22,-5l15.49 -53.9c0.19,-0.68 0.65,-1.18 1.31,-1.45 0.66,-0.26 1.34,-0.2 1.95,0.16 11.87,7.12 21.56,13.55 28.18,18.87 1.68,1.35 2.32,3.49 1.65,5.54zm-187.34 -28.7l19.35 -61.04c0.76,-2.4 -0.39,-4.96 -2.69,-5.99 -17,-7.6 -33.3,-14.54 -47.86,-20.36 -0.94,-0.38 -1.89,-0.35 -2.81,0.07 -0.92,0.42 -1.56,1.12 -1.89,2.08l-21.77 62.74c-0.55,1.58 0.19,3.3 1.71,4 15.44,7.06 32.64,14.43 49.59,21.47 1.28,0.53 2.58,0.5 3.83,-0.08 1.25,-0.58 2.11,-1.56 2.53,-2.88zm-63.93 -26.33l21.81 -60.77c0.81,-2.25 -0.32,-4.73 -2.54,-5.61 -10.02,-3.95 -21.1,-7.82 -31.44,-10.4 -1.59,-0.4 -3.21,0.44 -3.8,1.97l-22.07 57.08c-0.29,0.75 -0.03,1.58 0.65,2.03 7.61,5.04 19.09,11.1 32.72,17.62 0.9,0.43 1.84,0.46 2.76,0.08 0.92,-0.38 1.57,-1.06 1.91,-2z"/>
  <path class="fil29" d="M284.93 231.38l2.88 -7.5c0.74,0.57 1.43,1.14 2.08,1.7l-2.74 7.64c-0.69,-0.6 -1.43,-1.22 -2.22,-1.84z"/>
  <path class="fil29" d="M288.92 234.9l2.81 -7.64c0.61,0.59 1.16,1.18 1.66,1.76l-3 7.54c-0.43,-0.54 -0.92,-1.1 -1.47,-1.66z"/>
  <path class="fil29" d="M282.3 229.45l2.46 -7.8c-1.06,-0.74 -2.19,-1.49 -3.39,-2.25l-2.55 7.73c1.23,0.78 2.39,1.55 3.48,2.32z"/>
  <path class="fil29" d="M270.88 222.47l2.49 -7.76c1.46,0.8 2.85,1.59 4.18,2.37l-2.38 7.83c-1.37,-0.81 -2.8,-1.62 -4.29,-2.44z"/>
  <path class="fil29" d="M266.27 220.01l2.24 -7.88c-1.61,-0.83 -3.28,-1.67 -5.02,-2.52l-2.32 7.82c1.75,0.86 3.45,1.72 5.1,2.58z"/>
  <path class="fil29" d="M249.85 212.07l2.51 -7.68c1.91,0.86 3.77,1.71 5.56,2.55l-2.4 7.76c-1.85,-0.88 -3.74,-1.75 -5.66,-2.63z"/>
  <path class="fil29" d="M243.29 209.13l2.32 -7.72 -0.21 -0.09c-1.84,-0.8 -3.77,-1.63 -5.79,-2.5l-2.46 7.63c2.07,0.89 4.12,1.78 6.14,2.68z"/>
  <path class="fil29" d="M223.35 200.66l2.43 -7.74c2.23,0.95 4.39,1.86 6.46,2.75l-2.19 7.77c-2.23,-0.93 -4.47,-1.86 -6.71,-2.78z"/>
  <path class="fil29" d="M215.55 197.49l2.42 -7.86c-2.26,-0.95 -4.59,-1.92 -6.99,-2.92l-2.32 8.04c2.28,0.9 4.58,1.81 6.89,2.74z"/>
  <path class="fil29" d="M200.3 191.48l2.42 -8.2c-2.3,-0.95 -4.65,-1.92 -7.06,-2.91l-2.65 8.31c2.38,0.91 4.81,1.84 7.28,2.8z"/>
  <path class="fil29" d="M184.55 185.46l2.58 -8.58c-2.48,-1.01 -5.02,-2.04 -7.61,-3.08l-2.63 8.8c2.43,0.91 4.99,1.86 7.66,2.87z"/>
  <path class="fil29" d="M168.15 179.35l2.65 -9.07c-2.51,-1.01 -5.07,-2.03 -7.67,-3.06l-2.93 9.19c2.25,0.84 4.93,1.82 7.95,2.94z"/>
  <path class="fil29" d="M154.27 163.71l-2.74 9.4c-2.63,-1.02 -5.28,-2.06 -7.94,-3.1l3.02 -9.32c2.59,1.02 5.15,2.02 7.66,3.01z"/>
  <path class="fil29" d="M135.01 166.64l2.74 -9.4 -0.4 -0.15c-1.71,-0.66 -4.15,-1.6 -7.16,-2.77l-3.16 9.15c2.66,1.06 5.32,2.12 7.97,3.17z"/>
  <path class="fil29" d="M118.47 160.01l3 -9.11c-2.39,-0.94 -4.96,-1.96 -7.68,-3.04l-2.98 9.03c2.54,1.04 5.1,2.09 7.65,3.12z"/>
  <path class="fil29" d="M102.35 153.39l3.05 -8.91c-2.4,-0.98 -4.88,-1.99 -7.41,-3.03l-3.09 8.81c2.47,1.05 4.95,2.09 7.45,3.13z"/>
  <path class="fil29" d="M89.84 138.05l-3.01 8.76c-2.43,-1.05 -4.83,-2.1 -7.2,-3.14l3.1 -8.64c2.39,1.03 4.77,2.04 7.11,3.03z"/>
  <path class="fil29" d="M72.17 140.34l2.96 -8.62c-2.25,-0.99 -4.49,-1.99 -6.74,-3l-3.13 8.46c2.27,1.05 4.57,2.1 6.91,3.15z"/>
  <path class="fil29" d="M58.24 133.89l2.94 -8.46c-2.04,-0.94 -4.05,-1.89 -6.05,-2.84l-3.17 8.27c2.05,1.01 4.15,2.02 6.28,3.04z"/>
  <path class="fil29" d="M45.62 127.68l3.08 -8.21c-1.93,-0.95 -3.83,-1.9 -5.69,-2.85l-3.17 8.06c1.87,0.99 3.79,1.99 5.77,3z"/>
  <path class="fil29" d="M34.18 121.62l3.23 -7.91c-1.75,-0.93 -3.45,-1.85 -5.1,-2.77l-3.1 7.86c1.6,0.93 3.26,1.87 4.96,2.82z"/>
  <path class="fil29" d="M24.43 115.92l3.01 -7.79c-1.45,-0.86 -2.85,-1.71 -4.19,-2.55l-2.98 7.68c1.33,0.88 2.72,1.76 4.16,2.66z"/>
  <path class="fil29" d="M16.29 110.53l3.02 -7.51c-1.19,-0.81 -2.32,-1.61 -3.38,-2.39l-2.96 7.42c1.04,0.82 2.15,1.64 3.32,2.48z"/>
  <path class="fil29" d="M10.11 105.68l2.86 -7.39c-0.95,-0.79 -1.81,-1.57 -2.59,-2.33l-2.93 7.23c0.81,0.82 1.69,1.65 2.65,2.49z"/>
  <path class="fil29" d="M8.82 94.3l-3.01 7.12c-0.81,-0.94 -1.49,-1.85 -2.06,-2.75 0.15,-0.38 0.34,-0.81 0.55,-1.31l2.49 -5.87c0.5,0.9 1.18,1.84 2.02,2.81z"/>
  <polygon class="fil29" points="316.43,171.71 315.61,170.48 318.22,164.42 318.81,165.45 "/>
  <polygon class="fil29" points="312.57,166.71 314.25,168.68 316.81,162.3 315.16,160.2 "/>
  <polygon class="fil29" points="307.81,161.99 310.32,164.37 312.81,157.58 310.3,155.09 "/>
  <polygon class="fil29" points="301.09,156.36 304.67,159.26 307,152.13 303.64,149.34 "/>
  <polygon class="fil29" points="292.89,150.32 297.05,153.3 299.37,146.05 295.33,143.12 "/>
  <polygon class="fil29" points="283.1,143.77 287.97,146.96 290.28,139.63 285.62,136.55 "/>
  <polyline class="fil30" points="277.41,140.19 279.8,132.85 274.26,129.45 271.92,136.85 277.62,140.32 "/>
  <polygon class="fil29" points="259.65,129.7 265.62,133.13 267.89,125.66 262.04,122.26 "/>
  <polygon class="fil29" points="248.61,114.71 254.91,118.21 252.59,125.75 246.44,122.39 "/>
  <polygon class="fil29" points="234.58,107.12 241.31,110.72 238.89,118.34 232.32,114.89 "/>
  <polygon class="fil29" points="217.41,107.25 224.17,110.68 226.54,102.91 219.8,99.43 "/>
  <polygon class="fil29" points="201.88,99.54 208.96,103.03 211.39,95.13 204.49,91.64 "/>
  <polygon class="fil29" points="186.08,91.91 193.46,95.45 196.02,87.41 188.73,83.81 "/>
  <polygon class="fil29" points="170.33,84.48 177.65,87.91 180.32,79.69 173.12,76.21 "/>
  <polygon class="fil29" points="154.47,77.16 161.94,80.58 164.67,72.18 157.36,68.73 "/>
  <polygon class="fil29" points="138.84,70.08 146.19,73.39 149.07,64.87 141.89,61.58 "/>
  <polygon class="fil29" points="123.86,63.42 130.75,66.47 133.79,57.93 126.74,54.8 "/>
  <polygon class="fil29" points="112.09,48.5 118.82,51.37 116.05,59.98 109.15,56.97 "/>
  <polygon class="fil29" points="95.3,51.1 101.77,53.81 104.53,45.36 98.23,42.82 "/>
  <polygon class="fil29" points="82.16,45.83 88.39,48.29 91.31,40.11 85.26,37.82 "/>
  <polygon class="fil29" points="70.36,41.43 75.76,43.4 78.83,35.48 73.17,33.52 "/>
  <polygon class="fil29" points="59.51,37.79 64.56,39.43 67.42,31.64 62.35,30.09 "/>
  <polygon class="fil29" points="50.13,35.1 54.45,36.27 57.42,28.71 53.01,27.6 "/>
  <polygon class="fil29" points="42.35,33.36 45.83,34.07 48.7,26.66 45.1,26.02 "/>
  <polygon class="fil29" points="36.08,32.48 38.84,32.8 41.76,25.58 38.91,25.35 "/>
  <polygon class="fil29" points="31.94,32.33 33.86,32.35 36.69,25.31 34.89,25.39 "/>
  <polygon class="fil29" points="277.3,140.4 271.69,136.96 274.19,129.66 279.68,133.02 "/>
 </g>
</svg>
