<?xml version="1.0" encoding="UTF-8"?>
<!DOCTYPE svg PUBLIC "-//W3C//DTD SVG 1.1//EN" "http://www.w3.org/Graphics/SVG/1.1/DTD/svg11.dtd">
<!-- Creator: CorelDRAW 2021 (64-Bit) -->
<svg xmlns="http://www.w3.org/2000/svg" xml:space="preserve" width="18.2749mm" height="18.2751mm" version="1.1" style="shape-rendering:geometricPrecision; text-rendering:geometricPrecision; image-rendering:optimizeQuality; fill-rule:evenodd; clip-rule:evenodd"
viewBox="0 0 106.39 106.4"
 xmlns:xlink="http://www.w3.org/1999/xlink"
 xmlns:xodm="http://www.corel.com/coreldraw/odm/2003">
 <defs>
  <style type="text/css">
   <![CDATA[
    .fil3 {fill:#E31E24}
    .fil5 {fill:#2B2A29;fill-opacity:0.109804}
    .fil4 {fill:#2B2A29;fill-opacity:0.231373}
    .fil2 {fill:url(#id2)}
    .fil1 {fill:url(#id3)}
    .fil0 {fill:url(#id4)}
    .fil6 {fill:url(#id5)}
   ]]>
  </style>
   <mask id="id0">
  <linearGradient id="id1" gradientUnits="userSpaceOnUse" x1="52.69" y1="34.06" x2="52.69" y2="61.91">
   <stop offset="0" style="stop-opacity:1; stop-color:white"/>
   <stop offset="1" style="stop-opacity:0; stop-color:white"/>
  </linearGradient>
    <rect style="fill:url(#id1)" x="33.93" y="31.05" width="38.53" height="28.21"/>
   </mask>
  <linearGradient id="id2" gradientUnits="userSpaceOnUse" x1="45.66" y1="0" x2="45.68" y2="106.4">
   <stop offset="0" style="stop-opacity:1; stop-color:#EBECEC"/>
   <stop offset="1" style="stop-opacity:1; stop-color:#898989"/>
  </linearGradient>
  <linearGradient id="id3" gradientUnits="userSpaceOnUse" x1="45.79" y1="105.47" x2="45.81" y2="0.92">
   <stop offset="0" style="stop-opacity:1; stop-color:#FEFEFE"/>
   <stop offset="1" style="stop-opacity:1; stop-color:#898989"/>
  </linearGradient>
  <linearGradient id="id4" gradientUnits="userSpaceOnUse" x1="45.74" y1="105.82" x2="45.76" y2="0.57">
   <stop offset="0" style="stop-opacity:1; stop-color:#5B5B5B"/>
   <stop offset="1" style="stop-opacity:1; stop-color:#2B2A29"/>
  </linearGradient>
  <radialGradient id="id5" gradientUnits="userSpaceOnUse" gradientTransform="matrix(0.000141601 1.0785 -1.49013 0.000141601 110 -19)" cx="53.2" cy="38.39" r="14.95" fx="53.2" fy="38.39">
   <stop offset="0" style="stop-opacity:1; stop-color:#FEFEFE"/>
   <stop offset="1" style="stop-opacity:1; stop-color:#FEFEFE"/>
  </radialGradient>
 </defs>
 <g id="Слой_x0020_1">
  <metadata id="CorelCorpID_0Corel-Layer"/>
  <path class="fil0" d="M53.2 105.82c29.06,0 52.62,-23.56 52.62,-52.62 0,-29.06 -23.56,-52.62 -52.62,-52.62 -29.06,0 -52.62,23.56 -52.62,52.62 0,29.06 23.56,52.62 52.62,52.62z"/>
  <path class="fil1" d="M53.2 105.47c28.87,0 52.27,-23.4 52.27,-52.27 0,-28.87 -23.4,-52.27 -52.27,-52.27 -28.87,0 -52.27,23.4 -52.27,52.27 0,28.87 23.4,52.27 52.27,52.27z"/>
  <path class="fil2" d="M53.2 0c29.38,0 53.2,23.82 53.2,53.2 0,29.38 -23.82,53.2 -53.2,53.2 -29.38,0 -53.2,-23.82 -53.2,-53.2 0,-29.38 23.82,-53.2 53.2,-53.2zm33.88 19.32c-8.67,-8.67 -20.65,-14.03 -33.88,-14.03 -13.23,0 -25.21,5.36 -33.88,14.03 -8.67,8.67 -14.03,20.65 -14.03,33.88 0,13.23 5.36,25.21 14.03,33.88 8.67,8.67 20.65,14.03 33.88,14.03 13.23,0 25.21,-5.36 33.88,-14.03 8.67,-8.67 14.03,-20.65 14.03,-33.88 0,-13.23 -5.36,-25.21 -14.03,-33.88z"/>
  <path class="fil3" d="M55.55 81.58l-2.35 8.66 -2.35 -8.66c0.77,0.06 1.56,0.1 2.35,0.1 0.79,0 1.57,-0.03 2.35,-0.1zm-15.38 -53.71l-1.14 -8.89 5.48 7.1c-1.5,0.48 -2.95,1.08 -4.33,1.8zm21.73 52.45l5.48 7.1 -1.15 -8.89c-1.38,0.71 -2.83,1.31 -4.33,1.8zm-30.42 -45.53l-4.46 -7.78 7.78 4.46c-1.2,1.01 -2.31,2.12 -3.32,3.32zm40.13 40.13l7.78 4.46 -4.46 -7.78c-1.01,1.2 -2.12,2.31 -3.32,3.32zm-45.53 -30.42l-7.1 -5.48 8.89 1.14c-0.71,1.38 -1.31,2.83 -1.8,4.33zm52.45 21.73l8.89 1.14 -7.1 -5.48c-0.48,1.5 -1.08,2.95 -1.8,4.34zm-53.7 -10.68l-8.66 -2.35 8.66 -2.35c-0.06,0.77 -0.1,1.56 -0.1,2.35 0,0.79 0.03,1.57 0.1,2.35zm56.76 0l8.66 -2.35 -8.66 -2.35c0.06,0.77 0.1,1.56 0.1,2.35 0,0.79 -0.03,1.57 -0.1,2.35zm-53.7 10.68l-8.89 1.14 7.1 -5.48c0.48,1.5 1.08,2.95 1.8,4.34zm52.45 -21.73l7.1 -5.48 -8.89 1.14c0.71,1.38 1.32,2.83 1.8,4.33zm-45.53 30.42l-7.79 4.46 4.46 -7.78c1.01,1.2 2.13,2.31 3.32,3.32zm40.13 -40.13l4.46 -7.78 -7.78 4.46c1.19,1.01 2.31,2.12 3.32,3.32zm-30.42 45.53l-5.48 7.1 1.14 -8.89c1.38,0.71 2.83,1.31 4.33,1.8zm11.04 -55.5l-2.35 -8.66 -2.35 8.66c0.77,-0.06 1.56,-0.1 2.35,-0.1 0.79,0 1.57,0.03 2.35,0.1zm10.68 3.05l1.14 -8.89 -5.48 7.1c1.5,0.48 2.95,1.08 4.33,1.8z"/>
  <path class="fil3" d="M53.22 29.41c13.14,0 23.78,10.65 23.78,23.79 0,13.14 -10.65,23.78 -23.78,23.78 -13.14,0 -23.78,-10.65 -23.78,-23.78 0,-13.14 10.65,-23.79 23.78,-23.79z"/>
  <path class="fil4" d="M76.65 57.04c-1.84,11.31 -11.65,19.94 -23.47,19.94 -11.94,0 -21.82,-8.79 -23.52,-20.25 3.87,9.19 12.97,15.64 23.57,15.64 10.48,0 19.48,-6.31 23.43,-15.33z"/>
  <path class="fil5" d="M76.65 57.04c-3.95,9.02 -12.95,15.33 -23.43,15.33 -10.6,0 -19.69,-6.45 -23.57,-15.64 -0.17,-1.15 -0.26,-2.33 -0.26,-3.53 0,-0.95 0.06,-1.88 0.16,-2.8 3.68,9.61 12.98,16.44 23.88,16.44 10.5,0 19.52,-6.33 23.46,-15.39 -0.01,-0.19 -0.03,-0.37 -0.05,-0.56 0.07,0.76 0.11,1.53 0.11,2.31 0,1.31 -0.11,2.59 -0.31,3.84zm-47.09 -6.65c0.06,-0.53 0.08,-0.66 0,0zm47.23 -0.1c-0.05,-0.37 -0.09,-0.75 0,0zm0 0.03c0.02,0.18 0.04,0.36 0.06,0.54 -0.02,-0.18 -0.04,-0.36 -0.06,-0.54z"/>
  <path class="fil6" style="mask:url(#id0)" d="M53.2 31.63c6.63,0 12.57,3 16.52,7.71 2.94,3.5 2.87,8.53 -0.15,11.95 -4,4.53 -9.85,7.38 -16.37,7.38 -6.52,0 -12.37,-2.85 -16.37,-7.38 -3.02,-3.42 -3.09,-8.46 -0.15,-11.95 3.96,-4.71 9.89,-7.71 16.52,-7.71z"/>
 </g>
</svg>
