<?xml version="1.0" encoding="UTF-8"?>
<!DOCTYPE svg PUBLIC "-//W3C//DTD SVG 1.1//EN" "http://www.w3.org/Graphics/SVG/1.1/DTD/svg11.dtd">
<!-- Creator: CorelDRAW 2021 (64-Bit) -->
<svg xmlns="http://www.w3.org/2000/svg" xml:space="preserve" width="18.5033mm" height="18.5033mm" version="1.1" style="shape-rendering:geometricPrecision; text-rendering:geometricPrecision; image-rendering:optimizeQuality; fill-rule:evenodd; clip-rule:evenodd"
viewBox="0 0 51.98 51.98"
 xmlns:xlink="http://www.w3.org/1999/xlink"
 xmlns:xodm="http://www.corel.com/coreldraw/odm/2003">
 <defs>
  <style type="text/css">
   <![CDATA[
    .fil3 {fill:#FEFEFE}
    .fil5 {fill:#D9DADA}
    .fil4 {fill:#C5C6C6}
    .fil7 {fill:#2B2A29;fill-opacity:0.109804}
    .fil6 {fill:#2B2A29;fill-opacity:0.231373}
    .fil0 {fill:url(#id0)}
    .fil1 {fill:url(#id1)}
    .fil2 {fill:url(#id2)}
   ]]>
  </style>
  <linearGradient id="id0" gradientUnits="userSpaceOnUse" x1="22.31" y1="51.98" x2="22.32" y2="0">
   <stop offset="0" style="stop-opacity:1; stop-color:#5B5B5B"/>
   <stop offset="1" style="stop-opacity:1; stop-color:#2B2A29"/>
  </linearGradient>
  <linearGradient id="id1" gradientUnits="objectBoundingBox" xlink:href="#id0" x1="42.9139%" y1="0.000108445%" x2="42.9334%" y2="100%">
  </linearGradient>
  <radialGradient id="id2" gradientUnits="userSpaceOnUse" gradientTransform="matrix(1.42121 -0.728338 -0.728338 -1.42121 17 113)" cx="25.99" cy="38.98" r="9.89" fx="25.99" fy="38.98">
   <stop offset="0" style="stop-opacity:1; stop-color:#A12B33"/>
   <stop offset="1" style="stop-opacity:1; stop-color:#3D1E1D"/>
  </radialGradient>
 </defs>
 <g id="Слой_x0020_1">
  <metadata id="CorelCorpID_0Corel-Layer"/>
  <g id="_831592448">
   <path class="fil0" d="M25.99 51.98c14.35,0 25.99,-11.64 25.99,-25.99 0,-14.35 -11.64,-25.99 -25.99,-25.99 -14.35,0 -25.99,11.64 -25.99,25.99 0,14.35 11.64,25.99 25.99,25.99z"/>
   <path class="fil1" d="M25.99 0c14.35,0 25.99,11.64 25.99,25.99 0,14.35 -11.64,25.99 -25.99,25.99 -14.35,0 -25.99,-11.64 -25.99,-25.99 0,-14.35 11.64,-25.99 25.99,-25.99zm16.55 9.44c-4.23,-4.23 -10.09,-6.85 -16.55,-6.85 -6.46,0 -12.32,2.62 -16.55,6.85 -4.23,4.23 -6.85,10.09 -6.85,16.55 0,6.46 2.62,12.32 6.85,16.55 4.23,4.23 10.09,6.85 16.55,6.85 6.46,0 12.32,-2.62 16.55,-6.85 4.23,-4.23 6.85,-10.09 6.85,-16.55 0,-6.46 -2.62,-12.32 -6.85,-16.55z"/>
   <path class="fil2" d="M25.99 51.98c14.35,0 25.99,-11.64 25.99,-25.99 0,-14.35 -11.64,-25.99 -25.99,-25.99 -14.35,0 -25.99,11.64 -25.99,25.99 0,14.35 11.64,25.99 25.99,25.99z"/>
   <path class="fil1" d="M25.99 0c14.35,0 25.99,11.64 25.99,25.99 0,14.35 -11.64,25.99 -25.99,25.99 -14.35,0 -25.99,-11.64 -25.99,-25.99 0,-14.35 11.64,-25.99 25.99,-25.99zm16.55 9.44c-4.23,-4.23 -10.09,-6.85 -16.55,-6.85 -6.46,0 -12.32,2.62 -16.55,6.85 -4.23,4.23 -6.85,10.09 -6.85,16.55 0,6.46 2.62,12.32 6.85,16.55 4.23,4.23 10.09,6.85 16.55,6.85 6.46,0 12.32,-2.62 16.55,-6.85 4.23,-4.23 6.85,-10.09 6.85,-16.55 0,-6.46 -2.62,-12.32 -6.85,-16.55z"/>
   <polygon class="fil3" points="43.14,33.08 43.53,34.27 44.72,34.66 43.53,35.06 43.14,36.24 42.74,35.06 41.55,34.66 42.74,34.27 "/>
   <path class="fil3" d="M42.33 15.44c0.26,0 0.47,0.21 0.47,0.47 0,0.26 -0.21,0.47 -0.47,0.47 -0.26,0 -0.47,-0.21 -0.47,-0.47 0,-0.26 0.21,-0.47 0.47,-0.47z"/>
   <path class="fil3" d="M38.15 41.36c0.26,0 0.47,0.21 0.47,0.47 0,0.26 -0.21,0.47 -0.47,0.47 -0.26,0 -0.47,-0.21 -0.47,-0.47 0,-0.26 0.21,-0.47 0.47,-0.47z"/>
   <path class="fil3" d="M10.84 17.58c0.26,0 0.47,0.21 0.47,0.47 0,0.26 -0.21,0.47 -0.47,0.47 -0.26,0 -0.47,-0.21 -0.47,-0.47 0,-0.26 0.21,-0.47 0.47,-0.47z"/>
   <path class="fil3" d="M7.66 20.63c0.26,0 0.47,0.21 0.47,0.47 0,0.26 -0.21,0.47 -0.47,0.47 -0.26,0 -0.47,-0.21 -0.47,-0.47 0,-0.26 0.21,-0.47 0.47,-0.47z"/>
   <path class="fil3" d="M42.84 29.89c0.26,0 0.47,0.21 0.47,0.47 0,0.26 -0.21,0.47 -0.47,0.47 -0.26,0 -0.47,-0.21 -0.47,-0.47 0,-0.26 0.21,-0.47 0.47,-0.47z"/>
   <path class="fil3" d="M15.21 7.52c0.26,0 0.47,0.21 0.47,0.47 0,0.26 -0.21,0.47 -0.47,0.47 -0.26,0 -0.47,-0.21 -0.47,-0.47 0,-0.26 0.21,-0.47 0.47,-0.47z"/>
   <path class="fil3" d="M26 11.5c8,0 14.49,6.49 14.49,14.49 0,8 -6.49,14.49 -14.49,14.49 -8,0 -14.49,-6.49 -14.49,-14.49 0,-8.01 6.49,-14.49 14.49,-14.49z"/>
   <path class="fil4" d="M16.96 18.65c1.26,0 2.28,1.02 2.28,2.28 0,1.26 -1.02,2.28 -2.28,2.28 -1.26,0 -2.28,-1.02 -2.28,-2.28 0,-1.26 1.02,-2.28 2.28,-2.28z"/>
   <path class="fil5" d="M17.08 18.9c1.19,0 2.16,0.97 2.16,2.16 0,1.19 -0.97,2.16 -2.16,2.16 -1.19,0 -2.16,-0.97 -2.16,-2.16 0,-1.19 0.97,-2.16 2.16,-2.16z"/>
   <path class="fil4" d="M35.89 25.65c1.55,0 2.8,1.25 2.8,2.8 0,1.55 -1.25,2.8 -2.8,2.8 -1.55,0 -2.8,-1.25 -2.8,-2.8 0,-1.55 1.25,-2.8 2.8,-2.8z"/>
   <path class="fil5" d="M36.05 25.95c1.46,0 2.65,1.19 2.65,2.65 0,1.46 -1.19,2.65 -2.65,2.65 -1.46,0 -2.65,-1.19 -2.65,-2.65 0,-1.46 1.19,-2.65 2.65,-2.65z"/>
   <path class="fil4" d="M28.39 32.19c1.55,0 2.8,1.25 2.8,2.8 0,1.55 -1.25,2.8 -2.8,2.8 -1.55,0 -2.8,-1.25 -2.8,-2.8 0,-1.55 1.25,-2.8 2.8,-2.8z"/>
   <path class="fil5" d="M28.54 32.5c1.46,0 2.65,1.19 2.65,2.65 0,1.46 -1.19,2.65 -2.65,2.65 -1.46,0 -2.65,-1.19 -2.65,-2.65 0,-1.46 1.19,-2.65 2.65,-2.65z"/>
   <path class="fil4" d="M22.75 31.71c0.82,0 1.49,0.67 1.49,1.49 0,0.82 -0.67,1.49 -1.49,1.49 -0.82,0 -1.49,-0.67 -1.49,-1.49 0,-0.82 0.67,-1.49 1.49,-1.49z"/>
   <path class="fil5" d="M22.83 31.87c0.78,0 1.41,0.63 1.41,1.41 0,0.78 -0.63,1.41 -1.41,1.41 -0.78,0 -1.41,-0.63 -1.41,-1.41 0,-0.78 0.63,-1.41 1.41,-1.41z"/>
   <path class="fil4" d="M25.72 30.23c0.51,0 0.92,0.41 0.92,0.92 0,0.51 -0.41,0.92 -0.92,0.92 -0.51,0 -0.92,-0.41 -0.92,-0.92 0,-0.51 0.41,-0.92 0.92,-0.92z"/>
   <path class="fil5" d="M25.77 30.33c0.48,0 0.87,0.39 0.87,0.87 0,0.48 -0.39,0.87 -0.87,0.87 -0.48,0 -0.87,-0.39 -0.87,-0.87 0,-0.48 0.39,-0.87 0.87,-0.87z"/>
   <path class="fil4" d="M21.73 19.4c0.65,0 1.18,0.53 1.18,1.18 0,0.65 -0.53,1.18 -1.18,1.18 -0.65,0 -1.18,-0.53 -1.18,-1.18 0,-0.65 0.53,-1.18 1.18,-1.18z"/>
   <path class="fil5" d="M21.8 19.53c0.62,0 1.11,0.5 1.11,1.11 0,0.62 -0.5,1.11 -1.11,1.11 -0.62,0 -1.11,-0.5 -1.11,-1.11 0,-0.62 0.5,-1.11 1.11,-1.11z"/>
   <path class="fil4" d="M18.34 24.35c0.78,0 1.42,0.63 1.42,1.42 0,0.78 -0.63,1.42 -1.42,1.42 -0.78,0 -1.42,-0.63 -1.42,-1.42 0,-0.78 0.63,-1.42 1.42,-1.42z"/>
   <path class="fil5" d="M18.41 24.5c0.74,0 1.34,0.6 1.34,1.34 0,0.74 -0.6,1.34 -1.34,1.34 -0.74,0 -1.34,-0.6 -1.34,-1.34 0,-0.74 0.6,-1.34 1.34,-1.34z"/>
   <path class="fil4" d="M31.99 15.89c0.62,0 1.12,0.5 1.12,1.12 0,0.62 -0.5,1.12 -1.12,1.12 -0.62,0 -1.12,-0.5 -1.12,-1.12 0,-0.62 0.5,-1.12 1.12,-1.12z"/>
   <path class="fil5" d="M32.05 16.01c0.58,0 1.06,0.47 1.06,1.06 0,0.58 -0.47,1.06 -1.06,1.06 -0.58,0 -1.06,-0.47 -1.06,-1.06 0,-0.58 0.47,-1.06 1.06,-1.06z"/>
   <path class="fil4" d="M38.54 23.35c0.62,0 1.12,0.5 1.12,1.12 0,0.62 -0.5,1.12 -1.12,1.12 -0.62,0 -1.12,-0.5 -1.12,-1.12 0,-0.62 0.5,-1.12 1.12,-1.12z"/>
   <path class="fil5" d="M38.6 23.47c0.58,0 1.06,0.47 1.06,1.06 0,0.58 -0.47,1.06 -1.06,1.06 -0.58,0 -1.06,-0.47 -1.06,-1.06 0,-0.58 0.47,-1.06 1.06,-1.06z"/>
   <path class="fil4" d="M19.44 33.2c0.48,0 0.86,0.39 0.86,0.86 0,0.48 -0.39,0.86 -0.86,0.86 -0.48,0 -0.86,-0.39 -0.86,-0.86 0,-0.48 0.39,-0.86 0.86,-0.86z"/>
   <path class="fil5" d="M19.49 33.3c0.45,0 0.82,0.37 0.82,0.82 0,0.45 -0.37,0.82 -0.82,0.82 -0.45,0 -0.82,-0.37 -0.82,-0.82 0,-0.45 0.37,-0.82 0.82,-0.82z"/>
   <path class="fil6" d="M40.28 28.33c-1.12,6.89 -7.1,12.15 -14.3,12.15 -7.27,0 -13.3,-5.36 -14.34,-12.34 2.36,5.6 7.9,9.53 14.36,9.53 6.39,0 11.87,-3.84 14.28,-9.34z"/>
   <path class="fil7" d="M40.28 28.33c-2.41,5.5 -7.89,9.34 -14.28,9.34 -6.46,0 -12,-3.93 -14.36,-9.53 -0.1,-0.7 -0.16,-1.42 -0.16,-2.15 0,-0.58 0.03,-1.15 0.1,-1.7 2.24,5.86 7.91,10.02 14.55,10.02 6.4,0 11.9,-3.86 14.29,-9.38 -0.01,-0.11 -0.02,-0.23 -0.03,-0.34 0.04,0.46 0.07,0.93 0.07,1.41 0,0.8 -0.07,1.58 -0.19,2.34zm-28.7 -4.05c0.04,-0.32 0.05,-0.4 0,0zm28.78 -0.06c-0.03,-0.23 -0.06,-0.46 0,0zm0 0.02c0.01,0.11 0.03,0.22 0.04,0.33 -0.01,-0.11 -0.02,-0.22 -0.04,-0.33z"/>
  </g>
 </g>
</svg>
