<?xml version="1.0" encoding="UTF-8"?>
<!DOCTYPE svg PUBLIC "-//W3C//DTD SVG 1.1//EN" "http://www.w3.org/Graphics/SVG/1.1/DTD/svg11.dtd">
<!-- Creator: CorelDRAW 2021 (64-Bit) -->
<svg xmlns="http://www.w3.org/2000/svg" xml:space="preserve" width="11.4214mm" height="11.3788mm" version="1.1" style="shape-rendering:geometricPrecision; text-rendering:geometricPrecision; image-rendering:optimizeQuality; fill-rule:evenodd; clip-rule:evenodd"
viewBox="0 0 217.97 217.15"
 xmlns:xlink="http://www.w3.org/1999/xlink"
 xmlns:xodm="http://www.corel.com/coreldraw/odm/2003">
 <defs>
  <style type="text/css">
   <![CDATA[
    .fil2 {fill:#FEFEFE}
    .fil0 {fill:url(#id0)}
    .fil1 {fill:url(#id1)}
   ]]>
  </style>
  <linearGradient id="id0" gradientUnits="userSpaceOnUse" x1="95.19" y1="204.95" x2="95.23" y2="12.21">
   <stop offset="0" style="stop-opacity:1; stop-color:#5B5B5B"/>
   <stop offset="1" style="stop-opacity:1; stop-color:#2B2A29"/>
  </linearGradient>
  <linearGradient id="id1" gradientUnits="userSpaceOnUse" xlink:href="#id0" x1="93.54" y1="0" x2="93.58" y2="217.15">
  </linearGradient>
 </defs>
 <g id="Слой_x0020_1">
  <metadata id="CorelCorpID_0Corel-Layer"/>
  <path class="fil0" d="M82.43 204.95l53.12 0c38.67,0 70.32,-31.6 70.22,-70.22l-0.14 -52.3c-0.1,-38.62 -31.62,-70.22 -70.22,-70.22l-53.12 0c-38.61,0 -70.32,31.56 -70.22,70.22l0.14 52.3c0.11,38.66 31.54,70.22 70.22,70.22z"/>
  <path class="fil1" d="M82.42 204.95l53.12 0.01c38.68,0 70.22,-31.56 70.22,-70.23l0 -52.29c0,-38.67 -31.56,-70.22 -70.22,-70.22l-53.12 -0.01c-38.66,0 -70.22,31.54 -70.22,70.22l0 52.29c0,38.68 31.54,70.22 70.22,70.22zm53.12 12.21l-53.12 0c-22.66,0 -43.27,-9.27 -58.21,-24.21 -14.95,-14.9 -24.21,-35.51 -24.21,-58.22l0 -52.29c0,-22.71 9.26,-43.32 24.19,-58.24 14.92,-14.92 35.54,-24.19 58.24,-24.19l53.12 0c22.64,0 43.22,9.27 58.18,24.19l0.06 0.05c14.93,14.96 24.18,35.55 24.18,58.2l0 52.29c0,22.7 -9.25,43.33 -24.18,58.25 -14.92,14.92 -35.53,24.18 -58.23,24.18z"/>
  <path class="fil2" d="M146.53 160.91c-2.08,0 -4.08,-0.79 -5.31,-1.7 -1.4,-1.04 -2.63,-1.94 -4.03,-2.98 -0.38,-0.28 -0.67,-0.44 -1.03,-0.72l-16.07 -11.97c-2.34,-1.72 -4.63,-3.62 -7.04,-5.23l-7.97 7.63c-1.74,1.61 -3.28,3.39 -5.09,4.9 -0.32,0.27 -0.36,0.3 -0.65,0.58 -1.28,1.25 -3.67,2.84 -5.92,3.02 0,-1.45 0.08,-2.6 0.28,-3.93l0.94 -11.68c0.12,-1.5 0.05,-2.54 0.23,-3.97l0.66 -7.76c0.02,-2.83 0.56,-2.23 2.4,-4.08 1.45,-1.46 3.93,-3.45 5.52,-4.99l9.9 -9.04c0.45,-0.4 0.71,-0.73 1.14,-1.13l2.69 -2.4c0.03,-0.02 0.07,-0.06 0.1,-0.08l5.57 -5.11c0.03,-0.02 0.07,-0.06 0.1,-0.08l4.5 -4.09c2.19,-1.84 6.09,-5.77 8.07,-7.35 0.42,-0.34 0.68,-0.65 1.06,-1.04l4.49 -4.1c2.33,-1.86 4.35,-4.08 6.63,-5.98 3.91,-3.27 0.95,-3.96 -1.35,-2.93 -0.6,0.27 -0.99,0.55 -1.54,0.91 -5.04,3.41 -11.33,7.1 -16.55,10.45 -4.03,2.58 -8.19,4.97 -12.17,7.64l-15.26 9.63c-1.08,0.64 -1.96,1.26 -3,1.91 -0.3,0.19 -0.48,0.25 -0.79,0.43 -0.44,0.26 -0.34,0.24 -0.72,0.5l-16.69 10.48c-0.4,0.13 -1.34,-0.24 -1.81,-0.4l-9.53 -2.92c-1.31,-0.39 -2.45,-0.76 -3.76,-1.15l-11.39 -3.51c-1.6,-0.45 -6.35,-1.23 -6.35,-3.64 0,-1.19 0.11,-1.59 0.77,-2.56 0.4,-0.58 0.81,-0.85 1.4,-1.23 1.15,-0.76 2.19,-1.22 3.51,-1.75 2.54,-1.01 4.98,-1.89 7.46,-2.88 2.49,-0.99 4.88,-1.9 7.46,-2.88l16.8 -6.51c0.7,-0.28 1.25,-0.42 1.92,-0.71 3.52,-1.56 9.33,-3.52 13.16,-5.07 9.28,-3.75 18.77,-7.09 28.07,-10.85 11.17,-4.52 22.59,-8.44 33.75,-13.05 3.17,-1.31 6.55,-2.38 8.9,0.87 2.5,3.47 0.31,8.89 -0.55,13.6l-2.72 12.7c-0.27,1.07 -0.41,2.08 -0.67,3.19l-2.02 9.55c-0.1,0.57 -0.23,0.96 -0.37,1.56 -0.1,0.44 -0.19,1.13 -0.31,1.62 -0.49,2.07 -0.93,4.32 -1.36,6.35l-6.77 31.79c-0.25,1.18 -0.41,2.09 -0.64,3.21l-2.05 9.52c-0.76,3.86 -1.61,9.42 -6.01,9.42z"/>
 </g>
</svg>
