<?xml version="1.0" encoding="UTF-8"?>
<!DOCTYPE svg PUBLIC "-//W3C//DTD SVG 1.1//EN" "http://www.w3.org/Graphics/SVG/1.1/DTD/svg11.dtd">
<!-- Creator: CorelDRAW 2021 (64-Bit) -->
<svg xmlns="http://www.w3.org/2000/svg" xml:space="preserve" width="11.2806mm" height="11.2386mm" version="1.1" style="shape-rendering:geometricPrecision; text-rendering:geometricPrecision; image-rendering:optimizeQuality; fill-rule:evenodd; clip-rule:evenodd"
viewBox="0 0 57.88 57.67"
 xmlns:xlink="http://www.w3.org/1999/xlink"
 xmlns:xodm="http://www.corel.com/coreldraw/odm/2003">
 <defs>
  <style type="text/css">
   <![CDATA[
    .fil2 {fill:#2B2A29}
    .fil0 {fill:url(#id0)}
    .fil1 {fill:url(#id1)}
   ]]>
  </style>
  <linearGradient id="id0" gradientUnits="userSpaceOnUse" x1="25.28" y1="54.43" x2="25.29" y2="3.24">
   <stop offset="0" style="stop-opacity:1; stop-color:#EBECEC"/>
   <stop offset="1" style="stop-opacity:1; stop-color:#898989"/>
  </linearGradient>
  <linearGradient id="id1" gradientUnits="userSpaceOnUse" xlink:href="#id0" x1="24.84" y1="0" x2="24.85" y2="57.67">
  </linearGradient>
 </defs>
 <g id="Слой_x0020_1">
  <metadata id="CorelCorpID_0Corel-Layer"/>
  <path class="fil0" d="M21.89 54.43l14.11 0c10.27,0 18.67,-8.39 18.65,-18.65l-0.04 -13.89c-0.03,-10.26 -8.4,-18.65 -18.65,-18.65l-14.11 0c-10.25,0 -18.67,8.38 -18.65,18.65l0.04 13.89c0.03,10.27 8.38,18.65 18.65,18.65z"/>
  <path class="fil1" d="M21.89 54.42l14.11 0c10.27,0 18.65,-8.38 18.65,-18.65l0 -13.89c0,-10.27 -8.38,-18.65 -18.65,-18.65l-14.11 -0c-10.27,0 -18.65,8.38 -18.65,18.65l0 13.89c0,10.27 8.38,18.65 18.65,18.65zm14.11 3.24l-14.11 0c-6.02,0 -11.49,-2.46 -15.46,-6.43 -3.97,-3.96 -6.43,-9.43 -6.43,-15.46l0 -13.89c0,-6.03 2.46,-11.5 6.42,-15.47 3.96,-3.96 9.44,-6.42 15.47,-6.42l14.11 0c6.01,0 11.48,2.46 15.45,6.42l0.01 0.01c3.97,3.97 6.42,9.44 6.42,15.45l0 13.89c0,6.03 -2.46,11.51 -6.42,15.47 -3.96,3.96 -9.44,6.42 -15.46,6.42z"/>
  <path class="fil2" d="M38.91 42.73c-0.55,0 -1.08,-0.21 -1.41,-0.45 -0.37,-0.28 -0.7,-0.52 -1.07,-0.79 -0.1,-0.07 -0.18,-0.12 -0.27,-0.19l-4.27 -3.18c-0.62,-0.46 -1.23,-0.96 -1.87,-1.39l-2.12 2.02c-0.46,0.43 -0.87,0.9 -1.35,1.3 -0.08,0.07 -0.1,0.08 -0.17,0.15 -0.34,0.33 -0.97,0.75 -1.57,0.8 0,-0.38 0.02,-0.69 0.07,-1.04l0.25 -3.1c0.03,-0.4 0.01,-0.68 0.06,-1.05l0.17 -2.06c0,-0.75 0.15,-0.59 0.64,-1.08 0.38,-0.39 1.04,-0.92 1.47,-1.33l2.63 -2.4c0.12,-0.11 0.19,-0.19 0.3,-0.3l0.71 -0.64c0.01,-0.01 0.02,-0.01 0.03,-0.02l1.48 -1.36c0.01,-0.01 0.02,-0.01 0.03,-0.02l1.19 -1.09c0.58,-0.49 1.62,-1.53 2.14,-1.95 0.11,-0.09 0.18,-0.17 0.28,-0.28l1.19 -1.09c0.62,-0.49 1.16,-1.08 1.76,-1.59 1.04,-0.87 0.25,-1.05 -0.36,-0.78 -0.16,0.07 -0.26,0.14 -0.41,0.24 -1.34,0.91 -3.01,1.89 -4.39,2.77 -1.07,0.69 -2.17,1.32 -3.23,2.03l-4.05 2.56c-0.29,0.17 -0.52,0.34 -0.8,0.51 -0.08,0.05 -0.13,0.07 -0.21,0.12 -0.12,0.07 -0.09,0.06 -0.19,0.13l-4.43 2.78c-0.11,0.03 -0.36,-0.06 -0.48,-0.11l-2.53 -0.77c-0.35,-0.1 -0.65,-0.2 -1,-0.31l-3.03 -0.93c-0.43,-0.12 -1.69,-0.33 -1.69,-0.97 0,-0.32 0.03,-0.42 0.21,-0.68 0.11,-0.15 0.21,-0.22 0.37,-0.33 0.31,-0.2 0.58,-0.32 0.93,-0.46 0.67,-0.27 1.32,-0.5 1.98,-0.76 0.66,-0.26 1.3,-0.5 1.98,-0.77l4.46 -1.73c0.19,-0.08 0.33,-0.11 0.51,-0.19 0.93,-0.41 2.48,-0.94 3.49,-1.35 2.47,-1 4.98,-1.88 7.45,-2.88 2.97,-1.2 6,-2.24 8.96,-3.46 0.84,-0.35 1.74,-0.63 2.36,0.23 0.66,0.92 0.08,2.36 -0.15,3.61l-0.72 3.37c-0.07,0.29 -0.11,0.55 -0.18,0.85l-0.54 2.54c-0.03,0.15 -0.06,0.26 -0.1,0.41 -0.03,0.12 -0.05,0.3 -0.08,0.43 -0.13,0.55 -0.25,1.15 -0.36,1.69l-1.8 8.44c-0.07,0.31 -0.11,0.56 -0.17,0.85l-0.54 2.53c-0.2,1.03 -0.43,2.5 -1.59,2.5z"/>
 </g>
</svg>
