<?xml version="1.0" encoding="UTF-8"?>
<!DOCTYPE svg PUBLIC "-//W3C//DTD SVG 1.1//EN" "http://www.w3.org/Graphics/SVG/1.1/DTD/svg11.dtd">
<!-- Creator: CorelDRAW 2021 (64-Bit) -->
<svg xmlns="http://www.w3.org/2000/svg" xml:space="preserve" width="11.2806mm" height="11.2386mm" version="1.1" style="shape-rendering:geometricPrecision; text-rendering:geometricPrecision; image-rendering:optimizeQuality; fill-rule:evenodd; clip-rule:evenodd"
viewBox="0 0 46.75 46.58"
 xmlns:xlink="http://www.w3.org/1999/xlink"
 xmlns:xodm="http://www.corel.com/coreldraw/odm/2003">
 <defs>
  <style type="text/css">
   <![CDATA[
    .fil2 {fill:#2B2A29;fill-rule:nonzero}
    .fil0 {fill:url(#id0)}
    .fil1 {fill:url(#id1)}
   ]]>
  </style>
  <linearGradient id="id0" gradientUnits="userSpaceOnUse" x1="20.42" y1="43.96" x2="20.43" y2="2.62">
   <stop offset="0" style="stop-opacity:1; stop-color:#EBECEC"/>
   <stop offset="1" style="stop-opacity:1; stop-color:#898989"/>
  </linearGradient>
  <linearGradient id="id1" gradientUnits="userSpaceOnUse" xlink:href="#id0" x1="20.07" y1="0" x2="20.07" y2="46.58">
  </linearGradient>
 </defs>
 <g id="Слой_x0020_1">
  <metadata id="CorelCorpID_0Corel-Layer"/>
  <path class="fil0" d="M17.68 43.96l11.39 0c8.29,0 15.08,-6.78 15.06,-15.06l-0.03 -11.22c-0.02,-8.28 -6.78,-15.06 -15.06,-15.06l-11.39 0c-8.28,0 -15.08,6.77 -15.06,15.06l0.03 11.22c0.02,8.29 6.77,15.06 15.06,15.06z"/>
  <path class="fil1" d="M17.68 43.96l11.39 0c8.3,0 15.06,-6.77 15.06,-15.06l0 -11.22c0,-8.29 -6.77,-15.06 -15.06,-15.06l-11.39 -0c-8.29,0 -15.06,6.77 -15.06,15.06l0 11.22c0,8.3 6.77,15.06 15.06,15.06zm11.39 2.62l-11.39 0c-4.86,0 -9.28,-1.99 -12.49,-5.19 -3.21,-3.2 -5.19,-7.62 -5.19,-12.49l0 -11.22c0,-4.87 1.99,-9.29 5.19,-12.49 3.2,-3.2 7.62,-5.19 12.49,-5.19l11.39 0c4.86,0 9.27,1.99 12.48,5.19l0.01 0.01c3.2,3.21 5.19,7.62 5.19,12.48l0 11.22c0,4.87 -1.99,9.29 -5.19,12.49 -3.2,3.2 -7.62,5.19 -12.49,5.19z"/>
  <path class="fil2" d="M10.45 31.42c2.35,1.51 5.14,2.38 8.13,2.38 9.85,0 15.42,-8.32 15.08,-15.78 1.04,-0.75 1.94,-1.68 2.65,-2.75 -0.95,0.42 -1.97,0.71 -3.05,0.84 1.1,-0.66 1.94,-1.7 2.33,-2.94 -1.03,0.61 -2.16,1.05 -3.37,1.29 -0.97,-1.03 -2.35,-1.67 -3.87,-1.67 -3.42,0 -5.94,3.19 -5.17,6.51 -4.41,-0.22 -8.32,-2.33 -10.94,-5.54 -1.39,2.38 -0.72,5.51 1.64,7.08 -0.87,-0.03 -1.69,-0.27 -2.4,-0.66 -0.06,2.46 1.7,4.76 4.26,5.27 -0.75,0.2 -1.57,0.25 -2.39,0.09 0.67,2.11 2.63,3.64 4.96,3.69 -2.23,1.75 -5.04,2.53 -7.86,2.2z"/>
 </g>
</svg>
