<?xml version="1.0" encoding="UTF-8"?>
<!DOCTYPE svg PUBLIC "-//W3C//DTD SVG 1.1//EN" "http://www.w3.org/Graphics/SVG/1.1/DTD/svg11.dtd">
<!-- Creator: CorelDRAW 2021 (64-Bit) -->
<svg xmlns="http://www.w3.org/2000/svg" xml:space="preserve" width="11.4214mm" height="11.3788mm" version="1.1" style="shape-rendering:geometricPrecision; text-rendering:geometricPrecision; image-rendering:optimizeQuality; fill-rule:evenodd; clip-rule:evenodd"
viewBox="0 0 1897.21 1890.13"
 xmlns:xlink="http://www.w3.org/1999/xlink"
 xmlns:xodm="http://www.corel.com/coreldraw/odm/2003">
 <defs>
  <style type="text/css">
   <![CDATA[
    .fil2 {fill:#FEFEFE;fill-rule:nonzero}
    .fil1 {fill:url(#id0)}
    .fil0 {fill:url(#id1)}
   ]]>
  </style>
  <linearGradient id="id0" gradientUnits="userSpaceOnUse" x1="814.19" y1="0" x2="814.55" y2="1890.15">
   <stop offset="0" style="stop-opacity:1; stop-color:#5B5B5B"/>
   <stop offset="1" style="stop-opacity:1; stop-color:#2B2A29"/>
  </linearGradient>
  <linearGradient id="id1" gradientUnits="userSpaceOnUse" xlink:href="#id0" x1="828.51" y1="1783.94" x2="828.84" y2="106.31">
  </linearGradient>
 </defs>
 <g id="Слой_x0020_1">
  <metadata id="CorelCorpID_0Corel-Layer"/>
  <path class="fil0" d="M717.45 1783.94l462.35 0c336.59,0 612.07,-275.03 611.19,-611.2l-1.23 -455.24c-0.86,-336.17 -275.24,-611.19 -611.22,-611.19l-462.35 0c-336.06,0 -612.1,274.75 -611.19,611.19l1.26 455.24c0.91,336.49 274.56,611.2 611.19,611.2z"/>
  <path class="fil1" d="M717.43 1783.89l462.4 0.05c336.64,0 611.17,-274.75 611.17,-611.29l0 -455.11c0,-336.59 -274.75,-611.24 -611.17,-611.24l-462.4 -0.05c-336.47,0 -611.17,274.53 -611.17,611.22l0 455.17c0,336.64 274.53,611.24 611.17,611.24zm462.4 106.26l-462.4 0c-197.22,0 -376.59,-80.66 -506.72,-210.73 -130.11,-129.68 -210.71,-309.11 -210.71,-506.77l0 -455.17c0,-197.7 80.6,-377.07 210.51,-506.97 129.9,-129.86 309.38,-210.51 506.92,-210.51l462.4 0c197.06,0 376.22,80.71 506.39,210.56l0.48 0.42c129.96,130.18 210.51,309.4 210.51,506.57l0 455.11c0,197.55 -80.55,377.14 -210.51,507.03 -129.85,129.85 -309.28,210.46 -506.87,210.46z"/>
  <path class="fil2" d="M423.88 1274.76c95.28,61.11 208.47,96.78 330.03,96.78 399.73,0 625.57,-337.64 612.02,-640.47 42.03,-30.33 78.55,-68.27 107.39,-111.48 -38.6,17.13 -80.11,28.72 -123.65,33.9 44.47,-26.61 78.59,-68.8 94.67,-119.13 -41.61,24.68 -87.72,42.64 -136.68,52.26 -39.33,-41.83 -95.28,-67.94 -157.22,-67.94 -138.95,0 -241.11,129.63 -209.7,264.35 -178.95,-8.95 -337.62,-94.72 -443.78,-224.96 -56.39,96.78 -29.29,223.4 66.61,287.47 -35.3,-1.13 -68.52,-10.86 -97.54,-26.98 -2.34,99.8 69.14,193.05 172.69,213.85 -30.33,8.29 -63.5,10.15 -97.19,3.69 27.33,85.6 106.86,147.79 201.11,149.55 -90.53,70.96 -204.53,102.64 -318.75,89.12z"/>
 </g>
</svg>
