<?xml version="1.0" encoding="UTF-8"?>
<!DOCTYPE svg PUBLIC "-//W3C//DTD SVG 1.1//EN" "http://www.w3.org/Graphics/SVG/1.1/DTD/svg11.dtd">
<!-- Creator: CorelDRAW 2021 (64-Bit) -->
<svg xmlns="http://www.w3.org/2000/svg" xml:space="preserve" width="11.4214mm" height="11.3788mm" version="1.1" style="shape-rendering:geometricPrecision; text-rendering:geometricPrecision; image-rendering:optimizeQuality; fill-rule:evenodd; clip-rule:evenodd"
viewBox="0 0 203.97 203.21"
 xmlns:xlink="http://www.w3.org/1999/xlink"
 xmlns:xodm="http://www.corel.com/coreldraw/odm/2003">
 <defs>
  <style type="text/css">
   <![CDATA[
    .fil2 {fill:#FEFEFE;fill-rule:nonzero}
    .fil0 {fill:url(#id0)}
    .fil1 {fill:url(#id1)}
   ]]>
  </style>
  <linearGradient id="id0" gradientUnits="userSpaceOnUse" x1="89.07" y1="191.79" x2="89.11" y2="11.43">
   <stop offset="0" style="stop-opacity:1; stop-color:#5B5B5B"/>
   <stop offset="1" style="stop-opacity:1; stop-color:#2B2A29"/>
  </linearGradient>
  <linearGradient id="id1" gradientUnits="userSpaceOnUse" xlink:href="#id0" x1="87.53" y1="0" x2="87.57" y2="203.21">
  </linearGradient>
 </defs>
 <g id="Слой_x0020_1">
  <metadata id="CorelCorpID_0Corel-Layer"/>
  <path class="fil0" d="M77.13 191.79l49.71 0c36.19,0 65.8,-29.57 65.71,-65.71l-0.13 -48.94c-0.09,-36.14 -29.59,-65.71 -65.71,-65.71l-49.71 0c-36.13,0 -65.81,29.54 -65.71,65.71l0.14 48.94c0.1,36.18 29.52,65.71 65.71,65.71z"/>
  <path class="fil1" d="M77.13 191.79l49.71 0.01c36.19,0 65.71,-29.54 65.71,-65.72l0 -48.93c0,-36.19 -29.54,-65.71 -65.71,-65.71l-49.71 -0.01c-36.17,0 -65.71,29.51 -65.71,65.71l0 48.94c0,36.19 29.51,65.71 65.71,65.71zm49.71 11.42l-49.71 0c-21.2,0 -40.49,-8.67 -54.48,-22.66 -13.99,-13.94 -22.65,-33.23 -22.65,-54.48l0 -48.94c0,-21.26 8.66,-40.54 22.63,-54.5 13.97,-13.96 33.26,-22.63 54.5,-22.63l49.71 0c21.19,0 40.45,8.68 54.44,22.64l0.05 0.04c13.97,14 22.63,33.26 22.63,54.46l0 48.93c0,21.24 -8.66,40.55 -22.63,54.51 -13.96,13.96 -33.25,22.63 -54.49,22.63z"/>
  <path class="fil2" d="M161.79 71.37c-1.44,-5.41 -5.67,-9.66 -11.04,-11.11 -9.74,-2.63 -48.77,-2.63 -48.77,-2.63 0,0 -39.04,0 -48.77,2.63 -5.37,1.44 -9.6,5.7 -11.04,11.11 -2.61,9.8 -2.61,30.24 -2.61,30.24 0,0 0,20.44 2.61,30.24 1.44,5.41 5.66,9.66 11.04,11.11 9.73,2.62 48.77,2.62 48.77,2.62 0,0 39.04,0 48.77,-2.62 5.37,-1.45 9.6,-5.7 11.04,-11.11 2.61,-9.8 2.61,-30.24 2.61,-30.24 0,0 0,-20.44 -2.61,-30.24zm-72.58 48.8l0 -37.12 32.63 18.56 -32.63 18.56z"/>
 </g>
</svg>
