<?xml version="1.0" encoding="UTF-8"?>
<!DOCTYPE svg PUBLIC "-//W3C//DTD SVG 1.1//EN" "http://www.w3.org/Graphics/SVG/1.1/DTD/svg11.dtd">
<!-- Creator: CorelDRAW 2021 (64-Bit) -->
<svg xmlns="http://www.w3.org/2000/svg" xml:space="preserve" width="11.2805mm" height="11.2386mm" version="1.1" style="shape-rendering:geometricPrecision; text-rendering:geometricPrecision; image-rendering:optimizeQuality; fill-rule:evenodd; clip-rule:evenodd"
viewBox="0 0 37.19 37.06"
 xmlns:xlink="http://www.w3.org/1999/xlink"
 xmlns:xodm="http://www.corel.com/coreldraw/odm/2003">
 <defs>
  <style type="text/css">
   <![CDATA[
    .fil2 {fill:#2B2A29;fill-rule:nonzero}
    .fil1 {fill:url(#id0)}
    .fil0 {fill:url(#id1)}
   ]]>
  </style>
  <linearGradient id="id0" gradientUnits="userSpaceOnUse" x1="15.96" y1="0" x2="15.97" y2="37.06">
   <stop offset="0" style="stop-opacity:1; stop-color:#EBECEC"/>
   <stop offset="1" style="stop-opacity:1; stop-color:#898989"/>
  </linearGradient>
  <linearGradient id="id1" gradientUnits="userSpaceOnUse" xlink:href="#id0" x1="16.24" y1="34.97" x2="16.25" y2="2.08">
  </linearGradient>
 </defs>
 <g id="Слой_x0020_1">
  <metadata id="CorelCorpID_0Corel-Layer"/>
  <path class="fil0" d="M14.07 34.97l9.06 0c6.6,0 12,-5.39 11.98,-11.98l-0.02 -8.92c-0.02,-6.59 -5.4,-11.98 -11.98,-11.98l-9.06 0c-6.59,0 -12,5.39 -11.98,11.98l0.02 8.92c0.02,6.6 5.38,11.98 11.98,11.98z"/>
  <path class="fil1" d="M14.06 34.97l9.06 0c6.6,0 11.98,-5.39 11.98,-11.98l0 -8.92c0,-6.6 -5.39,-11.98 -11.98,-11.98l-9.06 -0c-6.6,0 -11.98,5.38 -11.98,11.98l0 8.92c0,6.6 5.38,11.98 11.98,11.98zm9.06 2.08l-9.06 0c-3.87,0 -7.38,-1.58 -9.93,-4.13 -2.55,-2.54 -4.13,-6.06 -4.13,-9.93l0 -8.92c0,-3.88 1.58,-7.39 4.13,-9.94 2.55,-2.55 6.07,-4.13 9.94,-4.13l9.06 0c3.86,0 7.38,1.58 9.93,4.13l0.01 0.01c2.55,2.55 4.13,6.07 4.13,9.93l0 8.92c0,3.87 -1.58,7.39 -4.13,9.94 -2.55,2.55 -6.06,4.13 -9.94,4.13z"/>
  <path class="fil2" d="M29.5 13.01c-0.26,-0.99 -1.03,-1.76 -2.01,-2.02 -1.78,-0.48 -8.89,-0.48 -8.89,-0.48 0,0 -7.12,0 -8.89,0.48 -0.98,0.26 -1.75,1.04 -2.01,2.02 -0.48,1.79 -0.48,5.52 -0.48,5.52 0,0 0,3.73 0.48,5.51 0.26,0.99 1.03,1.76 2.01,2.03 1.78,0.48 8.89,0.48 8.89,0.48 0,0 7.12,0 8.89,-0.48 0.98,-0.26 1.75,-1.04 2.01,-2.03 0.48,-1.79 0.48,-5.51 0.48,-5.51 0,0 0,-3.73 -0.48,-5.52zm-13.23 8.9l0 -6.77 5.95 3.38 -5.95 3.38z"/>
 </g>
</svg>
