<?xml version='1.0' encoding='iso-8859-1'?>
<svg version="1.1" xmlns="http://www.w3.org/2000/svg" viewBox="0 0 44.001 44.001" xmlns:xlink="http://www.w3.org/1999/xlink" enable-background="new 0 0 44.001 44.001">
  <path fill="#020400" fill-rule="evenodd" d="m41.477,13.689l-.529,1.941-4.057-1.066-5.35,3.088 2.748,.721 3.092-1.782 1,1.733-3.807,2.197-5.508-1.444-5.066,2.926 5.066,2.922 5.508-1.44 3.807,2.197-1,1.733-3.092-1.786-2.748,.725 5.35,3.088 4.057-1.066 .529,1.938-2.109,.557 2.197,1.266-1.002,1.734-2.197-1.27 .574,2.104-1.943,.512-1.106-4.045-5.351-3.084 .75,2.738 3.09,1.787-1.002,1.729-3.807-2.197-1.502-5.484-5.068-2.926v5.852l4.002,4.045v4.391h-1.998v-3.564l-2.004-2.02v6.178l2.951,2.975-1.414,1.428-1.537-1.549v2.535h-2v-2.535l-1.539,1.549-1.412-1.428 2.951-2.975v-6.178l-2.002,2.02v3.564h-2v-4.391l4.002-4.045v-5.852l-5.068,2.926-1.502,5.484-3.807,2.197-1.002-1.732 3.09-1.787 .75-2.738-5.355,3.084-1.102,4.045-1.943-.512 .574-2.104-2.197,1.27-1.002-1.734 2.197-1.266-2.109-.557 .529-1.938 4.056,1.067 5.35-3.088-2.748-.725-3.092,1.787-1-1.733 3.807-2.197 5.504,1.44 5.068-2.922-5.068-2.926-5.504,1.444-3.807-2.197 1-1.733 3.092,1.782 2.748-.721-5.35-3.088-4.057,1.067-.529-1.941 2.109-.553-2.197-1.269 1.002-1.731 2.197,1.266-.574-2.104 1.943-.513 1.102,4.045 5.355,3.089-.75-2.743-3.09-1.782 1.002-1.733 3.807,2.197 1.502,5.489 5.068,2.922v-5.848l-4.002-4.045v-4.395h2v3.569l2.002,2.019v-6.177l-2.951-2.979 1.412-1.424 1.539,1.55v-2.539h2v2.539l1.537-1.55 1.414,1.424-2.951,2.979v6.178l2.004-2.019v-3.57h1.998v4.395l-4.002,4.045v5.848l5.068-2.922 1.502-5.489 3.807-2.197 1.002,1.733-3.09,1.782-.75,2.743 5.351-3.089 1.106-4.045 1.943,.513-.574,2.103 2.197-1.266 1.002,1.731-2.197,1.269 2.11,.554z"/>
</svg>
